<?xml version="1.0" standalone="no"?>
<!DOCTYPE svg PUBLIC "-//W3C//DTD SVG 20010904//EN"
 "http://www.w3.org/TR/2001/REC-SVG-20010904/DTD/svg10.dtd">
<svg version="1.0" xmlns="http://www.w3.org/2000/svg"
 width="676.000000pt" height="676.000000pt" viewBox="0 0 676.000000 676.000000"
 preserveAspectRatio="xMidYMid meet">
<metadata>
Created by potrace 1.11, written by Peter Selinger 2001-2013
</metadata>
<g transform="translate(0.000000,676.000000) scale(0.100000,-0.100000)"
fill="#000000" stroke="none">
<path d="M3239 6733 c-49 -128 -1099 -2935 -1099 -2939 0 -4 -6 -20 -14 -37
-8 -18 -24 -59 -36 -92 -12 -33 -32 -87 -45 -120 -13 -33 -55 -148 -95 -255
-40 -107 -82 -222 -95 -255 -13 -33 -45 -118 -71 -190 -26 -71 -51 -134 -55
-140 -5 -5 -9 -15 -9 -22 0 -7 -15 -52 -34 -101 -19 -48 -103 -271 -187 -496
l-152 -408 34 -32 c19 -17 124 -110 234 -206 110 -96 202 -177 205 -180 3 -3
113 -100 245 -215 132 -115 242 -212 245 -215 3 -3 39 -35 80 -70 41 -36 77
-67 80 -70 4 -5 291 -256 365 -321 17 -14 55 -48 85 -75 31 -27 87 -76 125
-110 151 -132 180 -158 193 -171 16 -15 29 -17 37 -4 3 6 -22 101 -56 213 -60
201 -93 309 -144 483 -15 50 -43 142 -62 205 -19 63 -48 160 -65 215 -84 285
-207 692 -234 780 -14 44 -29 96 -34 115 -4 19 -49 169 -99 334 -51 164 -90
300 -89 301 2 2 409 363 737 654 346 307 359 320 356 348 -2 16 -6 66 -10 113
-4 47 -8 92 -10 100 -2 8 -7 47 -10 85 -7 92 -33 354 -40 410 -2 17 -7 66 -10
110 -3 44 -8 87 -10 95 -2 8 -6 51 -10 95 -7 95 -12 144 -19 205 -3 25 -8 70
-11 100 -3 30 -7 80 -10 110 -3 30 -7 76 -10 103 -3 26 -7 70 -10 97 -3 27 -7
72 -10 100 -3 28 -7 74 -10 103 -5 49 -8 74 -19 192 -3 28 -8 73 -11 100 -3
28 -7 77 -10 110 -3 33 -7 76 -10 95 -2 19 -7 60 -9 90 -3 30 -8 80 -11 110
-3 30 -7 75 -9 100 -5 50 -14 143 -21 205 -3 22 -7 69 -10 105 -9 102 -16 153
-21 162 -10 16 -25 8 -35 -19z"/>
<path d="M3487 6754 c-4 -4 -5 -16 -2 -28 12 -58 58 -295 62 -321 3 -16 18
-95 33 -175 16 -80 32 -161 35 -180 3 -19 8 -42 10 -50 2 -8 6 -31 9 -50 3
-19 8 -46 11 -60 3 -14 7 -36 10 -50 2 -14 7 -36 10 -50 2 -14 7 -36 9 -50 3
-14 7 -34 9 -45 3 -11 8 -40 13 -65 4 -25 8 -47 9 -50 1 -3 5 -25 9 -50 13
-69 15 -81 26 -135 24 -117 52 -265 76 -395 2 -14 7 -36 9 -50 3 -14 7 -36 10
-50 3 -14 10 -50 16 -80 5 -30 12 -66 15 -80 2 -14 13 -70 24 -125 11 -55 22
-115 25 -132 3 -18 14 -77 24 -130 11 -54 22 -109 24 -123 17 -91 71 -370 86
-442 l18 -88 -23 -27 c-12 -16 -91 -111 -175 -213 -83 -102 -169 -205 -190
-230 -20 -25 -88 -106 -149 -180 -61 -74 -127 -154 -146 -177 -88 -106 -133
-166 -130 -172 2 -3 7 -51 11 -106 3 -55 8 -111 10 -125 2 -14 7 -61 10 -105
3 -44 8 -100 10 -125 2 -25 7 -79 10 -120 3 -41 8 -95 10 -120 2 -25 7 -76 10
-115 6 -75 12 -147 20 -235 7 -72 13 -156 20 -255 3 -44 8 -96 10 -115 4 -33
7 -70 20 -225 3 -33 7 -86 10 -118 5 -54 7 -81 20 -242 5 -65 10 -121 19 -220
2 -22 7 -80 11 -130 3 -49 8 -106 10 -125 2 -19 7 -73 10 -120 4 -47 11 -89
15 -94 8 -8 66 32 112 77 7 7 87 78 178 157 91 79 179 156 195 171 127 112
216 190 450 394 99 87 198 174 220 194 22 20 76 67 120 105 44 39 85 75 90 80
6 6 39 36 75 66 36 30 67 57 70 60 3 3 43 39 90 80 105 91 140 122 154 135 6
6 46 41 89 79 42 38 77 73 77 79 0 9 -127 357 -195 532 -13 33 -87 231 -165
440 -331 888 -441 1181 -449 1200 -9 19 -144 380 -761 2035 -139 371 -258 689
-265 705 -7 17 -18 48 -25 70 -24 78 -45 107 -63 89z"/>
</g>
</svg>
