<?xml version="1.0" encoding="utf-8"?>
<!-- Generator: Adobe Illustrator 23.0.0, SVG Export Plug-In . SVG Version: 6.00 Build 0)  -->
<svg version="1.1" id="Layer_1" xmlns="http://www.w3.org/2000/svg" xmlns:xlink="http://www.w3.org/1999/xlink" x="0px" y="0px"
	 viewBox="0 0 110 110" style="enable-background:new 0 0 110 110;" xml:space="preserve">
<style type="text/css">
	.st0{fill:#29023F;}
</style>
<g id="Blockchain">
	<path class="st0" d="M108.9,40.2c0.6-0.3,0.9-0.9,0.9-1.6V23.9c0-0.7-0.3-1.3-0.9-1.6L96.2,15c-0.6-0.3-1.3-0.3-1.8,0l-12.8,7.3
		c-0.6,0.3-0.9,0.9-0.9,1.6v4.4l-11-5.5V9.4c0-0.7-0.3-1.3-0.9-1.6l-13-7.4c-0.6-0.3-1.3-0.3-1.8,0L41.3,7.8
		c-0.6,0.3-0.9,0.9-0.9,1.6v13.5l-11,5.5v-4.4c0-0.7-0.3-1.3-0.9-1.6L15.8,15c-0.6-0.3-1.3-0.3-1.8,0l-13,7.3
		c-0.5,0.4-0.9,1-0.9,1.6v14.6c0,0.7,0.3,1.3,0.9,1.6l11.9,6.8v16.1L1.1,69.8c-0.6,0.3-0.9,0.9-0.9,1.6v14.6c0,0.7,0.3,1.3,0.9,1.6
		L13.8,95c0.6,0.3,1.3,0.3,1.8,0l11.9-6.8l12.9,8v4.5c0,0.7,0.3,1.3,0.9,1.6l12.8,7.3c0.6,0.3,1.3,0.3,1.8,0l12.8-7.3
		c0.6-0.3,0.9-0.9,0.9-1.6v-4.5l12.9-8L94.2,95c0.6,0.3,1.3,0.3,1.8,0l12.8-7.3c0.6-0.3,0.9-0.9,0.9-1.6V71.4c0-0.7-0.3-1.3-0.9-1.6
		l-11.9-6.8V46.9L108.9,40.2z M97.1,42.7V32.3l9.2-5.2v10.4L97.1,42.7z M95.2,76.6l-9.1-5.2l9.1-5.2l9.1,5.2L95.2,76.6z M84.2,27.1
		l9.2,5.2v10.4l-9.2-5.2V27.1z M95.2,18.7l9.1,5.2l-9.1,5.2l-9.1-5.2L95.2,18.7z M55,91.3l-9.1-5.2l9.1-5.2l9.1,5.2L55,91.3z
		 M44,50.8l9.2,5.2v10.5L44,61.3V50.8z M56.8,56.1l9.2-5.2v10.4l-9.2,5.2V56.1z M55,52.9l-9.1-5.2l9.1-5.2l9.1,5.2L55,52.9z
		 M44,12.4l9.2,5.2v10.5L44,22.9V12.4z M56.8,17.7l9.2-5.2v10.4l-9.2,5.2V17.7z M55,4.1l9.1,5.2L55,14.5l-9.1-5.2L55,4.1z
		 M16.6,32.3l9.2-5.2v10.5l-9.2,5.2V32.3z M14.8,18.7l9.1,5.2l-9.1,5.2l-9.1-5.2L14.8,18.7z M3.9,27.1l9.2,5.2v10.4l-9.2-5.2
		C3.9,37.5,3.9,27.1,3.9,27.1z M14.8,76.6l-9.1-5.2l9.1-5.2l9.1,5.2L14.8,76.6z M3.9,74.6l9.2,5.2v10.5l-9.2-5.2
		C3.9,85.1,3.9,74.6,3.9,74.6z M16.6,90.2V79.8l9.2-5.2v10.5L16.6,90.2z M29.4,85V71.4c0-0.7-0.3-1.3-0.9-1.6l-11.9-6.8V46.9
		l11.9-6.8c0.6-0.3,0.9-0.9,0.9-1.6v-6.2L42.1,26l11.1,6.3v7L41.3,46c-0.6,0.3-0.9,0.9-0.9,1.6v14.6c0,0.7,0.3,1.3,0.9,1.6l11.9,6.8
		v7l-11.9,6.8c-0.6,0.3-0.9,0.9-0.9,1.6v5.9L29.4,85z M44,89.2l9.2,5.2v10.5L44,99.6V89.2z M56.8,104.8V94.5l9.2-5.2v10.5
		L56.8,104.8z M68.8,84.5l-11.9-6.8v-7L68.8,64c0.6-0.3,0.9-0.9,0.9-1.6V47.7c0-0.7-0.3-1.3-0.9-1.6l-11.9-6.8v-7L68,26.1l12.8,6.4
		v6.2c0,0.7,0.3,1.3,0.9,1.6L93.5,47v16.1l-11.9,6.8c-0.6,0.3-0.9,0.9-0.9,1.6v13.6l-11,6.9v-5.9C69.6,85.4,69.3,84.8,68.8,84.5z
		 M84.2,74.6l9.2,5.2v10.4L84.2,85V74.6z M97.1,90.2V79.8l9.2-5.2v10.5L97.1,90.2z"/>
</g>
</svg>
