<svg id="Layer_2" data-name="Layer 2" xmlns="http://www.w3.org/2000/svg" width="188.98" height="62.353" viewBox="0 0 188.98 62.353">
  <g id="Layer_1" data-name="Layer 1">
    <path id="Path_99" data-name="Path 99" d="M23.764,23.851H22.33c.652,1,1.216,1.912,1.825,2.78a1.287,1.287,0,0,1,.782.261,6.516,6.516,0,0,1,.869,0c.521,0,1.216,0,1.434.391s0,.956,0,1.521L25.2,28.151c1.694,2.3,1.738,2.607.348,3.258l-.912-1.868a12.512,12.512,0,0,1-.869,2h-1l.434-3.345-2.694.391-.478-1.216,2.3-.608-1.347-1.955-.652.608L19.2,22.46a9.3,9.3,0,0,0,2.042,9.427c-.869,1.043-1.26,1-2.346-.391L17.377,32.93l-1.216-1.39a7,7,0,0,1-1.434,1,4.55,4.55,0,0,1-1.13-.478c3.171-2.607,2.476-6.039,2.476-9.254h-.391L14.641,25.5l-.652-.565-.956,1.825,2.3.608-.434,1.3-2.737-.434.391,3.258c-.739.521-1.434.348-1.694-2.172l-1,2.042c-1.3-.348-1.3-.739.261-3.215L8.254,28.8a4.692,4.692,0,0,1,0-1.521,4.1,4.1,0,0,0,.434-.434c0-.043,1.651.348,2,0a14.554,14.554,0,0,0,2.346-2.867h-1.39c2.216-2.259,4.344-4.344,3.258-7.95L14.163,17.2,9.818,24.459a4,4,0,0,1-4,2.172c1.216-1.738,2.563-3.519,3.78-5.387s2.346-3.78,3.562-5.691c-.7-.652-.912,0-1.173.348-1.39,2.172-2.737,4.344-4.084,6.517a3.953,3.953,0,0,1-4.344,2,59.344,59.344,0,0,0,6.69-10.079c-.608-.739-.825,0-1.086,0-1.13,1.738-2.216,3.475-3.3,5.213a3.91,3.91,0,0,1-4.127,2.172A39.1,39.1,0,0,0,7.6,13.337a2.65,2.65,0,0,0,0-1.043H7.255c-.912,1.434-1.781,2.867-2.737,4.344A3.649,3.649,0,0,1,.652,18.594c1.043-1.39,2.129-2.78,3.084-4.344,2.346-3.693,2.346-3.693,1.912-4.344-1.3,1.825-2.129,4.735-5.648,4.3A46.137,46.137,0,0,0,7.646,2.216l3.432-.869c.7,0,1.434,0,1.564.739a1.13,1.13,0,0,1-1.3,1.173A1.979,1.979,0,0,0,9.123,4.953a2.65,2.65,0,0,0,.912,3.041,7.342,7.342,0,0,0,2.129,1.173c1.564.521,1.738.348,2.607-1.086a21.418,21.418,0,0,1,1.564-2.3L14.467,4.344V4.127l2.476.217h0L14.206,3.3V3.041l2.52.217c-.348-1.3-.652-1.434-2.3-1.086C13.468.869,13.685,0,14.988,0h5.648a11.078,11.078,0,0,1,0,1.477,18.507,18.507,0,0,1,0,2.694,17.05,17.05,0,0,1-.7,2.433c-.3,1.955.956,3.128,2.78,2.52a6.647,6.647,0,0,0,2.607-1.564,2.954,2.954,0,0,0,0-4.084s-.565-.13-.825-.174a10.565,10.565,0,0,0-1.173,0c-.261,0-.565-.956-.825-1.347.434,0,.869-.7,1.26-.608a17.583,17.583,0,0,1,3.736.825A56.477,56.477,0,0,0,34.755,14.38a8.08,8.08,0,0,1-2.346-.608,6.169,6.169,0,0,1-1.738-1.781,24.067,24.067,0,0,1-1.434-2.216H28.89a3.823,3.823,0,0,0,.261,1.216c1.564,2.476,3.215,4.953,4.822,7.3a3.085,3.085,0,0,1-3.345-1.39c-.869-1.173-1.607-2.476-2.389-3.693l-.652-1.043h-.174a3.562,3.562,0,0,0,0,1,37.97,37.97,0,0,0,5.952,8.558,3.432,3.432,0,0,1-4.04-1.781c-1.086-1.564-2.042-3.215-3.041-4.822a1.868,1.868,0,0,0-.217-.739,1.912,1.912,0,0,0-.652-.348,2.129,2.129,0,0,0,0,.739,3.128,3.128,0,0,0,.478.825,47.788,47.788,0,0,0,6.126,8.689,3.953,3.953,0,0,1-4.344-2c-1.347-2.172-2.737-4.344-4.344-6.517a1.26,1.26,0,0,0-1-.521,58.562,58.562,0,0,0,7.69,11.208,3.866,3.866,0,0,1-4.344-2c-1.651-2.52-3.215-5.083-4.822-7.646a2.65,2.65,0,0,0-.739-.825C19.55,19.332,21.722,21.722,23.764,23.851ZM21.374,12.338A6.56,6.56,0,0,0,27.63,7.429a3.953,3.953,0,0,0-1.564-4.171c2.694,3.693-.3,6.994-4.344,7.516ZM9.34,3A4.344,4.344,0,0,0,7.863,8.689a6.473,6.473,0,0,0,6,3.823V10.817C8.689,9.644,7.125,7.342,9.34,3ZM12.034,27.37c.739-1.086,1.347-1.868,1.868-2.737a2.607,2.607,0,0,0,0-.825,1.912,1.912,0,0,0-.869.348,4.344,4.344,0,0,0-.7,1.216c-.7,1.434-1.607,2.389-3.389,1.868a2.3,2.3,0,0,0-.912,0v.825l2.476-.261c-1.825,2.607-1.825,2.607-1.13,3l1.564-2.172c.478,2.52.478,2.52.956,2.65l-.217-3.345a10.817,10.817,0,0,1,2.172.217c.825.261.912,0,.912-.912Zm14.988,0H26.37c-2.085.652-3-.608-3.78-2.172a1.477,1.477,0,0,0-.391-.652,6.647,6.647,0,0,0-.912-.608,4.345,4.345,0,0,0,0,1.13c.478.782,1.043,1.521,1.651,2.433H20.245l.348.825H23.5L23.242,31.8c1.26-.565.391-1.868,1.086-2.694l1.738,1.868c.825-1.521-1-1.868-1.3-3.128l2.389.348ZM17.377,3.519c.565-1.13.7-2.042,0-2.476A7.82,7.82,0,0,0,14.554.565s-.3.434-.261.608.391.521.521.478C16.248,1.347,16.943,2.129,17.377,3.519Z" fill="#260f40"/>
    <path id="Path_100" data-name="Path 100" d="M10.26.34h5.387V59.858c0,1-.217,1.434-1.347,1.347a22.331,22.331,0,0,0-2.954,0c-.869,0-1.13-.3-1.043-1.086h0V1.73Z" transform="translate(34.313 1.137)" fill="#260f40"/>
    <path id="Path_101" data-name="Path 101" d="M19.08,4.49h3.736c1.955,0,2.954.7,3.345,2.216a3.041,3.041,0,0,1-1.694,3.649A3.258,3.258,0,0,1,26.509,14.7a2.52,2.52,0,0,1-2.216,2H19.08Zm1.564,10.9c1.521,0,3.128.478,4.127-1.13a2.172,2.172,0,0,0,0-2.476c-1.086-1.3-2.607-.7-4.04-.869Zm0-9.688V9.573c1.347,0,2.824.565,3.693-.825a2.476,2.476,0,0,0,0-2.216c-.869-1.216-2.346-.521-3.693-.7Z" transform="translate(63.811 15.016)" fill="#260f40"/>
    <path id="Path_102" data-name="Path 102" d="M14,12.458V.38a50.35,50.35,0,0,1,5.126,0c1.173,0,1.868,1.13,2.042,2.433a2.954,2.954,0,0,1-1.825,3.171c1.868.912,2.389,1.694,2.259,3.389a2.954,2.954,0,0,1-2.911,3.041A42.063,42.063,0,0,1,14,12.458Zm1.564-1.3c1.521,0,3.171.565,4.04-1.043a2.824,2.824,0,0,0,0-2.433c-.956-1.39-2.563-.825-4-.912Zm0-9.644V5.463c1.3-.261,2.737.478,3.606-.825a2.52,2.52,0,0,0,0-2.172c-.825-1.434-2.216-.739-3.562-.956Z" transform="translate(46.821 1.053)" fill="#260f40"/>
    <path id="Path_103" data-name="Path 103" d="M35.424,10.179H33.991V3.749a1.173,1.173,0,0,0-1.26-1.216c-.782,0-1.347.261-1.434,1.043a29.452,29.452,0,0,0,0,3.389v3.128h-1.39V4.01a1.38,1.38,0,0,0-1.26-1.3,1.347,1.347,0,0,0-1.521,1.173,13.251,13.251,0,0,0,0,1.868c0,1.477,0,3,0,4.344H25.78V1.4c.565,0,1.347-.434,1.477.652a2.694,2.694,0,0,1,4.04,0l.652-.565a2.346,2.346,0,0,1,3.736,1.477A68.308,68.308,0,0,0,35.424,10.179Z" transform="translate(86.218 3.376)" fill="#260f40"/>
    <path id="Path_104" data-name="Path 104" d="M51.082,10h-1.39V4.747c0-1.781-.348-2.346-1.434-2.3s-1.434.652-1.434,2.346V10h-1.39V3.791a1.209,1.209,0,0,0-1.26-1.347,1.393,1.393,0,0,0-1.564,1.39c-.043.956,0,3,0,4.344V9.83H41.22V1.141L43,1.706a2.52,2.52,0,0,1,3.606.217,9.3,9.3,0,0,1,2.042-.782c1.607,0,2.433.608,2.476,2.216Z" transform="translate(137.855 3.507)" fill="#260f40"/>
    <path id="Path_105" data-name="Path 105" d="M29.569,14.957c.739,0,1.39,0,1.781.652s.956.521,1.434.434a1.564,1.564,0,0,0,.912-1,6.516,6.516,0,0,0,0-1.868l-.608.391a2.433,2.433,0,0,1-3.736-1.043,8.167,8.167,0,0,1,0-5.387,2.346,2.346,0,0,1,3.91-1.13l1.868-.652v9.731c0,1.651-1,2.346-3.041,2.346S29.612,16.478,29.569,14.957ZM33.913,9.57a14.857,14.857,0,0,0,0-1.912,1.434,1.434,0,0,0-1.521-1.3,1.3,1.3,0,0,0-1.434,1.216,25.112,25.112,0,0,0,0,4.04c0,.782.652,1.173,1.477,1.173a1.434,1.434,0,0,0,1.39-1.3,13.6,13.6,0,0,0,.087-1.912Z" transform="translate(96.635 17.886)" fill="#260f40"/>
    <path id="Path_106" data-name="Path 106" d="M39.1,10.239,40.884,9.5v9.644a2.085,2.085,0,0,1-2.172,2.346,5.387,5.387,0,0,1-1.868,0,1.825,1.825,0,0,1-1.651-2.085c.7,0,1.347-.3,1.781.652,0,.3,1,.521,1.434.391a1.911,1.911,0,0,0,1-1.086,6.515,6.515,0,0,0,0-1.868l-.652.478a2.3,2.3,0,0,1-3.562-1.216,13.38,13.38,0,0,1-.043-4.779A2.389,2.389,0,0,1,39.1,10.239Zm.478,3.736a5.068,5.068,0,0,0-.261-2,1.347,1.347,0,0,0-1.434-1.26,1.3,1.3,0,0,0-1.434,1.216,21.724,21.724,0,0,0,0,4.127c0,.391.782.912,1.3,1.043a1.216,1.216,0,0,0,1.738-1.086,18.59,18.59,0,0,0,0-2.042Z" transform="translate(116.904 31.771)" fill="#260f40"/>
    <path id="Path_107" data-name="Path 107" d="M27.9,4.543h1.3V16.925l-1.694-.608c-2,1.477-3.866.7-4.344-2.129a13.988,13.988,0,0,1,0-3.3c.3-2.824,2.216-3.649,4.692-2.042V4.5Zm-3.389,7.994A7.949,7.949,0,0,0,24.9,14.8a1.825,1.825,0,0,0,1.434.912c.391,0,1.216-.521,1.216-.912a20.81,20.81,0,0,0,0-4.648c0-.348-.869-.912-1.347-.912a2,2,0,0,0-1.347.956,9.86,9.86,0,0,0-.348,2.346Z" transform="translate(77.146 15.05)" fill="#260f40"/>
    <path id="Path_108" data-name="Path 108" d="M23.909,8.7V21.212l-1.694-.7a2.563,2.563,0,0,1-4.344-2.129,20.939,20.939,0,0,1,0-3.3c.3-2.78,2.216-3.649,4.735-2V8.743Zm-4.735,7.994a8.255,8.255,0,0,0,.391,2.3,2.129,2.129,0,0,0,1.39.956c.391,0,1.216-.478,1.26-.782a26.067,26.067,0,0,0,0-4.866c0-.348-.912-.869-1.39-.869a1.738,1.738,0,0,0-1.26.956,7.516,7.516,0,0,0-.391,2.3Z" transform="translate(59.546 29.096)" fill="#260f40"/>
    <path id="Path_109" data-name="Path 109" d="M24.781,4.644V.3h1.3V12.551c-.521,0-1.26.434-1.347-.739l-.565.478a2.389,2.389,0,0,1-3.649-1.043,9.21,9.21,0,0,1,0-5.821C20.914,3.645,22.826,3.341,24.781,4.644Zm0,3.562a7.95,7.95,0,0,0-.391-2.259,1.868,1.868,0,0,0-1.26-.956c-.478,0-1.347.478-1.347.782a22.765,22.765,0,0,0,0,4.866c0,.348.912.912,1.39.869a1.694,1.694,0,0,0,1.26-1.043,7.255,7.255,0,0,0,.434-2.259Z" transform="translate(67.059 1.003)" fill="#260f40"/>
    <path id="Path_110" data-name="Path 110" d="M30.37,20.884H29.11V8.72h1.26v4.344a16.2,16.2,0,0,1,2.607-.869,1.781,1.781,0,0,1,2.085,1.825v6.864H33.715V15.15c0-1.26-.478-1.781-1.434-1.825a1.679,1.679,0,0,0-1.825,1.738c-.087,1.216,0,3.171,0,4.735A7.861,7.861,0,0,0,30.37,20.884Z" transform="translate(97.355 29.163)" fill="#260f40"/>
    <path id="Path_111" data-name="Path 111" d="M20.6,8.71h6.082V9.97H22.338v3.91h4.344v1.434H22.338v5.517H20.6Z" transform="translate(68.894 29.129)" fill="#260f40"/>
    <path id="Path_112" data-name="Path 112" d="M28.181,7.417a2.346,2.346,0,0,1-2.042,2.607,3,3,0,0,1-3.693-1.39,8.689,8.689,0,0,1,0-5.821,2.867,2.867,0,0,1,3.3-1.651A2.476,2.476,0,0,1,28.181,3.29a10.7,10.7,0,0,0,.261,2.78H23.4a5.734,5.734,0,0,0,.391,1.955,1.912,1.912,0,0,0,1.3.869,1.564,1.564,0,0,0,1.434-.7C26.747,7.243,27.312,7.2,28.181,7.417Zm-1.39-2.346c0-1.955-.391-2.78-1.651-2.737S23.4,3.29,23.619,5.071Z" transform="translate(73.39 3.617)" fill="#260f40"/>
    <path id="Path_113" data-name="Path 113" d="M41.474,6.064H36.826c-.3,1.564,0,2.563,1.043,2.78s1.564,0,2.042-1.521h1.434a2.259,2.259,0,0,1-1,2.216,3.171,3.171,0,0,1-5.039-1.955,14.6,14.6,0,0,1,0-4.344c.261-1.564,1.521-2.259,3.345-2.129a2.52,2.52,0,0,1,2.607,2.476A13.1,13.1,0,0,1,41.474,6.064ZM39.954,5.022c0-1,0-2.042-.825-2.52a2.172,2.172,0,0,0-1.651,0c-.869.565-.825,1.521-.739,2.52Z" transform="translate(117.53 3.667)" fill="#260f40"/>
    <path id="Path_114" data-name="Path 114" d="M28.726,13.995v1.347a3.128,3.128,0,0,1-4.344,3,2.3,2.3,0,0,1-1.738-1.651,8.949,8.949,0,0,1,0-5.344c.348-1.3,1.3-1.825,2.867-1.825s2.65.521,3,1.868a18.114,18.114,0,0,1,.434,2.607Zm-1.477,0V12.17a1.711,1.711,0,0,0-1.607-1.564A1.521,1.521,0,0,0,23.9,12.04a24.068,24.068,0,0,0,0,3.953,1.347,1.347,0,0,0,1.521,1.26,1.477,1.477,0,0,0,1.564-1.26,19.5,19.5,0,0,0,.261-1.955Z" transform="translate(74.366 31.838)" fill="#260f40"/>
    <path id="Path_115" data-name="Path 115" d="M17.287,18.209H15.94V9.737c.652,0,1.347-.348,1.39.608A8.689,8.689,0,0,1,19.2,9.52c1.651,0,2.563.434,2.65,2.129s0,4.344,0,6.56H20.5V12.17a1.338,1.338,0,0,0-1.39-1.521,1.477,1.477,0,0,0-1.738,1.3,13.381,13.381,0,0,0,0,2.3A39.141,39.141,0,0,0,17.287,18.209Z" transform="translate(53.309 31.838)" fill="#260f40"/>
    <path id="Path_116" data-name="Path 116" d="M19.56,10.043H18.17V1.354c.652,0,1.434-.391,1.434.825a6.734,6.734,0,0,1,.739-.565,2.259,2.259,0,0,1,3.736,1.3c0,2.3,0,4.605,0,6.951h-1.3V3.657a1.26,1.26,0,0,0-1-1.173,1.434,1.434,0,0,0-1.738.956,6.69,6.69,0,0,0-.261,1.868A28.6,28.6,0,0,0,19.56,10.043Z" transform="translate(60.767 3.468)" fill="#260f40"/>
    <path id="Path_117" data-name="Path 117" d="M34.434,18.26H33V9.789c.565,0,1.39-.608,1.39.869l.652-.608a2.694,2.694,0,0,1,2.737-.3,1.825,1.825,0,0,1,1.173,1.912c0,2.172,0,4.344,0,6.6H37.605V12.439c0-.956-.3-1.694-1.39-1.738a1.564,1.564,0,0,0-1.781,1.521c0,1.347,0,2.737,0,4.084Z" transform="translate(110.364 31.787)" fill="#260f40"/>
    <path id="Path_118" data-name="Path 118" d="M43.816,1.15h1.347V9.839c-.608,0-1.347.478-1.434-.608a10.21,10.21,0,0,1-1.738.782,2.085,2.085,0,0,1-2.737-2.129V1.367h1.39V6.45c0,1.694.478,2.389,1.477,2.389s1.651-.869,1.651-2.433S43.816,2.975,43.816,1.15Z" transform="translate(131.262 3.846)" fill="#260f40"/>
    <path id="Path_119" data-name="Path 119" d="M35.482,17.52a8.385,8.385,0,0,1-2.085.7,1.912,1.912,0,0,1-2.3-2.129V9.57h1.39v6.212a1.393,1.393,0,0,0,1.26,1.564A1.564,1.564,0,0,0,35.525,16a6.646,6.646,0,0,0,0-1.607V9.57h1.39V18C36.394,18.085,35.655,18.519,35.482,17.52Z" transform="translate(103.929 32.006)" fill="#260f40"/>
    <path id="Path_120" data-name="Path 120" d="M20.73,1.15h1.39V9.839c-.608,0-1.477.521-1.477-.608a13.033,13.033,0,0,1-1.825.782,2.085,2.085,0,0,1-2.563-1.651,7.949,7.949,0,0,1,0-1.434V1.15h1.434V6.494c0,1.564.391,2.3,1.39,2.346s1.694-.825,1.738-2.346Z" transform="translate(54.254 3.846)" fill="#260f40"/>
    <path id="Path_121" data-name="Path 121" d="M19.716,5.36h1.347v8.689c-.608,0-1.39.434-1.434-.608a7.733,7.733,0,0,1-1.781.739,2,2,0,0,1-2.65-2.085c0-2.172,0-4.344,0-6.56h1.39V10.66c0,1.651.434,2.346,1.477,2.346s1.651-.869,1.651-2.389Z" transform="translate(50.793 17.926)" fill="#260f40"/>
    <path id="Path_122" data-name="Path 122" d="M19.819,18.393l-1.781-.652a6.3,6.3,0,0,1-1.477.608,2.042,2.042,0,0,1-2.52-2.433V9.53h1.347v6.386a1.428,1.428,0,0,0,1.477,1.607,1.564,1.564,0,0,0,1.521-1.607V9.964h1.39Z" transform="translate(46.78 31.872)" fill="#260f40"/>
    <path id="Path_123" data-name="Path 123" d="M25.433,15.694h1.347c.261.869.565,1.825,1.781,1.521a1.607,1.607,0,0,0,1.13-.912,1.854,1.854,0,0,0-.565-1.216c-.348-.261-1.434-.739-2.129-1.173a2.3,2.3,0,0,1-1.39-2.694A2.52,2.52,0,0,1,28.17,9.525q2.954,0,3,2.346h-1.39c-.217-.869-.7-1.521-1.738-1.26a1.39,1.39,0,0,0-.912.782,1.216,1.216,0,0,0,.434,1.086,16.509,16.509,0,0,0,2.129,1.13,2.433,2.433,0,0,1,1.521,2.954c-.261,1.173-1.216,1.825-2.78,1.868A2.649,2.649,0,0,1,25.433,15.694Z" transform="translate(85.045 31.833)" fill="#260f40"/>
    <path id="Path_124" data-name="Path 124" d="M33.68,7.324c.391,1.39.912,1.825,1.912,1.521a1.694,1.694,0,0,0,1-.956,1.3,1.3,0,0,0-.565-1.13,18.115,18.115,0,0,0-2-1.13c-1.39-.739-1.912-1.781-1.477-2.911a2.824,2.824,0,0,1,3.128-1.564,2.172,2.172,0,0,1,2.3,2.3H36.548A1.26,1.26,0,0,0,34.94,2.241c-.956.217-.956.434-1.043.782a1.39,1.39,0,0,0,.521,1.13,19.94,19.94,0,0,0,2.129,1.13,2.433,2.433,0,0,1,1.477,2.78,2.52,2.52,0,0,1-2.563,2c-2.129,0-3.345-.825-3.258-2.737Z" transform="translate(107.685 3.667)" fill="#260f40"/>
    <path id="Path_125" data-name="Path 125" d="M29.58,3.543c-.7,0-1.39.3-1.738-.739,0-.3-.912-.521-1.39-.478a1.173,1.173,0,0,0-.912.825,1.651,1.651,0,0,0,.739,1.216c.652.434,1.477.739,2.216,1.173a2.259,2.259,0,0,1,1.173,2.476,2.3,2.3,0,0,1-2.042,2c-2.346.478-3.91-.565-3.78-2.65h1.39c0,.956.608,1.868,1.825,1.564a1.651,1.651,0,0,0,1.086-.912,1.564,1.564,0,0,0-.565-1.26,17.856,17.856,0,0,0-2.216-1.173A2.3,2.3,0,0,1,24.02,3.022,2.346,2.346,0,0,1,26.235,1.2C28.234.719,29.537,1.805,29.58,3.543Z" transform="translate(79.724 3.625)" fill="#260f40"/>
    <path id="Path_126" data-name="Path 126" d="M31.585,14.426V8.734c0-1.39-.434-2-1.434-2.042s-1.781.652-1.825,2.042,0,3.345,0,5.039a2.26,2.26,0,0,1,0,.478H27.11V5.563c.521,0,1.3-.521,1.39.782a8.687,8.687,0,0,1,.7-.608,2.3,2.3,0,0,1,3.78,1.434c0,2.259,0,4.344,0,6.821Z" transform="translate(90.666 17.332)" fill="#260f40"/>
    <path id="Path_127" data-name="Path 127" d="M35.422,9.992H34.075V3.954A1.3,1.3,0,0,0,32.9,2.477a1.521,1.521,0,0,0-1.825.869,4.344,4.344,0,0,0-.261,1.521c0,1.3,0,2.607,0,3.953V9.992H29.47V1.3c.521,0,1.3-.565,1.39.521a10.557,10.557,0,0,1,2.346-.739A1.825,1.825,0,0,1,35.378,3C35.465,5.474,35.422,7.69,35.422,9.992Z" transform="translate(98.558 3.519)" fill="#260f40"/>
    <path id="Path_128" data-name="Path 128" d="M25.215,5.36H26.6v6.126a1.392,1.392,0,0,0,1.347,1.521,1.564,1.564,0,0,0,1.694-1.26,7.994,7.994,0,0,0,0-1.781V5.36h1.3v8.689l-1.607-.608a8.124,8.124,0,0,1-2.3.565,1.781,1.781,0,0,1-1.955-1.912C25.171,9.878,25.215,7.663,25.215,5.36Z" transform="translate(83.872 17.926)" fill="#260f40"/>
    <path id="Path_129" data-name="Path 129" d="M31.863,15.56h1.216a2.476,2.476,0,0,1-1.868,2.867,2.78,2.78,0,0,1-3.475-1.39,8.167,8.167,0,0,1,0-5.908A2.911,2.911,0,0,1,31.3,9.652c1.26.261,1.868,1.173,1.825,2.78h-1.3v-.608a8.038,8.038,0,0,0-1.086-1.043,2.085,2.085,0,0,0-1.477.825,6.734,6.734,0,0,0,0,4.953,1.564,1.564,0,0,0,1.3.739c.348,0,.782-.478,1.086-.869S31.733,16.038,31.863,15.56Z" transform="translate(90.909 31.75)" fill="#260f40"/>
    <path id="Path_130" data-name="Path 130" d="M16.669,8.216h1.477c0,.782,0,.782-1.564,1.173v7.385H15.235V9.563c-.521-.478-1.781,0-1.3-1.26h1.13c.391-1.086-.391-2.607,1-3.3a9.34,9.34,0,0,1,2.433-.521c-.261.608-.3,1.043-.478,1.173C16.408,6.348,16.408,6.348,16.669,8.216Z" transform="translate(46.238 14.983)" fill="#260f40"/>
    <path id="Path_131" data-name="Path 131" d="M38.4,10.294c.261.7,0,.956-.7,1.043-1.868,0-2.52-.348-2.52-2.216V3.952c-.478-.434-1.738,0-1.3-1.216H35.1c0-.869,0-2.129,1.477-2.042V2.735H38.31c0,1.651-1.173.7-1.781,1.26V9.3c0,.478.956.869,1.477,1.3Z" transform="translate(113.004 2.304)" fill="#260f40"/>
    <path id="Path_132" data-name="Path 132" d="M17.16,5.694c.7,0,1.434-.348,1.39.608L21.113,5.26V6.737c-2.3.261-2.607.652-2.65,3.041v4.344h-1.3Z" transform="translate(57.389 17.591)" fill="#260f40"/>
    <path id="Path_133" data-name="Path 133" d="M23.486,16.761H22.27V4.51h1.216Z" transform="translate(74.479 15.083)" fill="#260f40"/>
    <path id="Path_134" data-name="Path 134" d="M41.043,1V2.564c-2.346.348-2.65.739-2.65,3.128v4.344h-1.3V1.7h1.216v.652Z" transform="translate(124.043 3.344)" fill="#260f40"/>
    <path id="Path_135" data-name="Path 135" d="M25.553,18.376h-1.3V9.9h1.173v.739L27.986,9.47v1.564c-2.216,0-2.607.7-2.607,2.911Z" transform="translate(81.101 31.671)" fill="#260f40"/>
    <path id="Path_136" data-name="Path 136" d="M39.673,9.632h-1.3V1.16h1.3Z" transform="translate(128.323 3.879)" fill="#260f40"/>
    <path id="Path_137" data-name="Path 137" d="M32.623,9.632H31.45V1.16h1.173Z" transform="translate(105.18 3.879)" fill="#260f40"/>
    <path id="Path_138" data-name="Path 138" d="M28.56,1.15h1.26V9.839H28.56Z" transform="translate(95.515 3.846)" fill="#260f40"/>
    <path id="Path_139" data-name="Path 139" d="M22.62,14.009H21.36V5.32h1.26Z" transform="translate(71.436 17.792)" fill="#260f40"/>
    <path id="Path_140" data-name="Path 140" d="M17.651,4.62V6.271H16V4.62Z" transform="translate(53.51 15.451)" fill="#260f40"/>
    <path id="Path_141" data-name="Path 141" d="M15.36,4.61h1.434V6.3H15.36Z" transform="translate(51.369 15.418)" fill="#260f40"/>
    <path id="Path_142" data-name="Path 142" d="M22.784,4.51V5.857H21.35V4.51Z" transform="translate(71.402 15.083)" fill="#260f40"/>
    <path id="Path_143" data-name="Path 143" d="M38.36.3h1.39V1.69H38.36Z" transform="translate(128.29 1.003)" fill="#260f40"/>
    <path id="Path_144" data-name="Path 144" d="M31.41,1.657V.31h1.434V1.657Z" transform="translate(105.047 1.037)" fill="#260f40"/>
    <path id="Path_145" data-name="Path 145" d="M29.984.31V1.657H28.55V.31Z" transform="translate(95.482 1.037)" fill="#260f40"/>
    <path id="Path_146" data-name="Path 146" d="M4.92,9.83V8.266C9.264,7.744,12.175,4.443,9.264.75a3.953,3.953,0,0,1,1.694,4.344A6.56,6.56,0,0,1,4.92,9.83Z" transform="translate(16.454 2.508)" fill="#260f40"/>
    <path id="Path_147" data-name="Path 147" d="M3.68.69C1.464,5.034,2.855,7.337,8.024,8.51V9.987A6.473,6.473,0,0,1,2.2,6.381,4.344,4.344,0,0,1,3.68.69Z" transform="translate(5.66 2.308)" fill="#260f40"/>
    <path id="Path_148" data-name="Path 148" d="M5.713,9.042H8.45c0,.739,0,1.173-.912.912a10.817,10.817,0,0,0-2.172-.217l.217,3.345c-.478,0-.478,0-.956-2.65L3.063,12.6c-.7-.521-.7-.521,1.3-3.041L1.89,9.824V9A2.3,2.3,0,0,1,2.8,9C4.584,9.52,5.5,8.565,6.191,7.131a4.344,4.344,0,0,1,.521-1.3,1.912,1.912,0,0,1,.869-.348,2.607,2.607,0,0,1,0,.825C7.06,7.174,6.452,7.956,5.713,9.042Z" transform="translate(6.321 18.327)" fill="#260f40"/>
    <path id="Path_149" data-name="Path 149" d="M11.437,9.123v.912L9.048,9.687c.3,1.26,2.129,1.607,1.3,3.128L8.744,10.6c-.7.825,0,2.129-1.086,2.694l.261-3.475H5.008L4.66,8.992H7.484C6.876,8.08,6.311,7.342,5.833,6.56a4.344,4.344,0,0,1,0-1.13,6.647,6.647,0,0,1,.912.608,1.477,1.477,0,0,1,.391.652c.782,1.564,1.694,2.824,3.78,2.172A.556.556,0,0,0,11.437,9.123Z" transform="translate(15.585 18.16)" fill="#260f40"/>
    <path id="Path_150" data-name="Path 150" d="M6.4,3.085C5.965,1.695,5.27.913,3.836,1.217A2.328,2.328,0,0,1,3.315.739c-.087-.174,0-.608.261-.608A7.82,7.82,0,0,1,6.4.609C7.095,1.043,6.964,1.955,6.4,3.085Z" transform="translate(10.978 0.434)" fill="#260f40"/>
  </g>
</svg>
