<svg xmlns="http://www.w3.org/2000/svg" width="216.072" height="170.133" viewBox="0 0 216.072 170.133">
  <g id="Group_9678" data-name="Group 9678" transform="translate(-200.494 -9830.434)">
    <g id="Layer_2" data-name="Layer 2" transform="translate(222.5 9970.5)">
      <g id="Layer_1" data-name="Layer 1">
        <g id="Group_9672" data-name="Group 9672" opacity="0.4">
          <line id="Line_825" data-name="Line 825" x2="2.28" y2="7.19" transform="translate(3.95 1.5)" fill="#fff" stroke="#c182f9" stroke-linecap="round" stroke-linejoin="round" stroke-width="3"/>
          <line id="Line_826" data-name="Line 826" x1="7.19" y2="2.28" transform="translate(1.5 3.95)" fill="#fff" stroke="#c182f9" stroke-linecap="round" stroke-linejoin="round" stroke-width="3"/>
        </g>
      </g>
    </g>
    <g id="Layer_2-2" data-name="Layer 2" transform="matrix(0.799, 0.602, -0.602, 0.799, 342.592, 9891.46)">
      <g id="Layer_1-2" data-name="Layer 1">
        <g id="Group_9672-2" data-name="Group 9672" opacity="0.4">
          <line id="Line_825-2" data-name="Line 825" x2="2.28" y2="7.19" transform="translate(3.95 1.5)" fill="#fff" stroke="#c182f9" stroke-linecap="round" stroke-linejoin="round" stroke-width="3"/>
          <line id="Line_826-2" data-name="Line 826" x1="7.19" y2="2.28" transform="translate(1.5 3.95)" fill="#fff" stroke="#c182f9" stroke-linecap="round" stroke-linejoin="round" stroke-width="3"/>
        </g>
      </g>
    </g>
    <g id="Layer_2-3" data-name="Layer 2" transform="translate(200.293 9886.102) rotate(-16)">
      <g id="Layer_1-3" data-name="Layer 1">
        <g id="Group_9672-3" data-name="Group 9672" opacity="0.4">
          <line id="Line_825-3" data-name="Line 825" x2="2.28" y2="7.19" transform="translate(3.95 1.5)" fill="#fff" stroke="#c182f9" stroke-linecap="round" stroke-linejoin="round" stroke-width="3"/>
          <line id="Line_826-3" data-name="Line 826" x1="7.19" y2="2.28" transform="translate(1.5 3.95)" fill="#fff" stroke="#c182f9" stroke-linecap="round" stroke-linejoin="round" stroke-width="3"/>
        </g>
      </g>
    </g>
    <g id="Layer_2-4" data-name="Layer 2" transform="translate(268.947 9916.001)">
      <g id="Layer_1-4" data-name="Layer 1">
        <path id="Path_8708" data-name="Path 8708" d="M1,4.43a1.61,1.61,0,0,1-.85-.87,1.57,1.57,0,0,1,.89-2L4.48.11A1.59,1.59,0,0,1,6.54,1L7.93,4.48A1.58,1.58,0,0,1,5,5.66l-.8-2-2,.81A1.58,1.58,0,0,1,1,4.43Z" fill="#c182f9" opacity="0.39"/>
      </g>
    </g>
    <g id="Layer_2-5" data-name="Layer 2" transform="translate(343.947 9832.001)">
      <g id="Layer_1-5" data-name="Layer 1">
        <path id="Path_8708-2" data-name="Path 8708" d="M1,4.43a1.61,1.61,0,0,1-.85-.87,1.57,1.57,0,0,1,.89-2L4.48.11A1.59,1.59,0,0,1,6.54,1L7.93,4.48A1.58,1.58,0,0,1,5,5.66l-.8-2-2,.81A1.58,1.58,0,0,1,1,4.43Z" fill="#c182f9" opacity="0.39"/>
      </g>
    </g>
    <g id="Layer_2-6" data-name="Layer 2" transform="translate(327.768 9955.28) rotate(-39)">
      <g id="Layer_1-6" data-name="Layer 1">
        <path id="Path_8708-3" data-name="Path 8708" d="M1,4.43a1.61,1.61,0,0,1-.85-.87,1.57,1.57,0,0,1,.89-2L4.48.11A1.59,1.59,0,0,1,6.54,1L7.93,4.48A1.58,1.58,0,0,1,5,5.66l-.8-2-2,.81A1.58,1.58,0,0,1,1,4.43Z" fill="#c182f9" opacity="0.39"/>
      </g>
    </g>
    <g id="Layer_2-7" data-name="Layer 2" transform="translate(290.434 9995.434)">
      <g id="Layer_1-7" data-name="Layer 1">
        <g id="Group_9673" data-name="Group 9673" opacity="0.39">
          <path id="Path_8709" data-name="Path 8709" d="M2.566,5.133A2.566,2.566,0,1,0,0,2.566,2.566,2.566,0,0,0,2.566,5.133Z" fill="#c182f9"/>
        </g>
      </g>
    </g>
    <g id="Layer_2-8" data-name="Layer 2" transform="translate(263.434 9830.434)">
      <g id="Layer_1-8" data-name="Layer 1">
        <g id="Group_9673-2" data-name="Group 9673" opacity="0.39">
          <path id="Path_8709-2" data-name="Path 8709" d="M2.566,5.133A2.566,2.566,0,1,0,0,2.566,2.566,2.566,0,0,0,2.566,5.133Z" fill="#c182f9"/>
        </g>
      </g>
    </g>
    <g id="Layer_2-9" data-name="Layer 2" transform="translate(377.434 9995.434)">
      <g id="Layer_1-9" data-name="Layer 1">
        <g id="Group_9673-3" data-name="Group 9673" opacity="0.39">
          <path id="Path_8709-3" data-name="Path 8709" d="M2.566,5.133A2.566,2.566,0,1,0,0,2.566,2.566,2.566,0,0,0,2.566,5.133Z" fill="#c182f9"/>
        </g>
      </g>
    </g>
    <g id="Layer_2-10" data-name="Layer 2" transform="translate(411.434 9910.434)">
      <g id="Layer_1-10" data-name="Layer 1">
        <g id="Group_9673-4" data-name="Group 9673" opacity="0.39">
          <path id="Path_8709-4" data-name="Path 8709" d="M2.566,5.133A2.566,2.566,0,1,0,0,2.566,2.566,2.566,0,0,0,2.566,5.133Z" fill="#c182f9"/>
        </g>
      </g>
    </g>
  </g>
</svg>
