<?xml version="1.0" encoding="utf-8"?>
<!-- Generator: Adobe Illustrator 23.0.0, SVG Export Plug-In . SVG Version: 6.00 Build 0)  -->
<svg version="1.1" id="Layer_1" xmlns="http://www.w3.org/2000/svg" xmlns:xlink="http://www.w3.org/1999/xlink" x="0px" y="0px"
	 viewBox="0 0 177.8 184.2" style="enable-background:new 0 0 177.8 184.2;" xml:space="preserve">
<style type="text/css">
	.st0{fill:#F5F5F5;}
	.st1{fill:#0EDB34;}
	.st2{fill:#240E3E;}
	.st3{fill:#250F3F;}
</style>
<g>
	<g transform="translate(652.761 2971.586) rotate(97)">
		<g>
			<path id="Path_8671" class="st0" d="M-2851.4,947.2c0,0-42-59-7-96s74-13,80-3s8,35,40,42s39,41,26,67
				S-2796.4,1020.2-2851.4,947.2z"/>
		</g>
	</g>
	<path class="st1" d="M60.3,118.6l-0.2-0.1c-0.2-0.1-0.4-0.2-0.5-0.3c0.9-0.8,1.9-1.6,2.8-2.4c3.8-3,7.9-5.6,12.3-7.6
		c-1.9,1.1-3.7,2.4-5.3,3.8c-1.5,1.2-3,2.5-4.4,3.8c-0.6,0.6-1.3,1.1-1.9,1.7c-0.2,0.1-0.3,0.3-0.5,0.4l-0.2,0.2
		C61.9,118.7,61,118.9,60.3,118.6z"/>
	<path class="st1" d="M68.4,81.6c-1.6,5.7-4.7,11-8.9,15.2c-0.3,0.3-0.6,0.6-0.9,0.8c-0.1-1.8-0.2-3.6-0.4-5.5
		c-0.2-1.2-0.3-2.5-0.6-3.7c0-0.1,0-0.3-0.1-0.4c-0.3-1.5-0.7-3-1.2-4.5c0.8,5.1,1.1,10.2,1,15.4l-0.6,0.6c-0.2,0.2-0.5,0.4-0.8,0.5
		c-0.6,0.2-1.3,0-1.8-0.4l-0.2-0.1c-0.6-0.4-0.9-1.1-0.8-1.8c0.4-5.8,0.8-13.3-0.7-20.9c-0.3-1.7-0.8-3.3-1.3-4.9
		c1.2,7.9,1.3,16,0.3,24c-0.1,0.6-0.4,1.1-0.8,1.4c-0.5,0.3-1.1,0.5-1.6,0.3c-0.1,0-0.1,0-0.1,0c-0.3,0-0.5-0.1-0.7-0.3
		c-0.2-0.1-0.5-0.3-0.7-0.4c-5-3-9.4-7.1-12.8-11.8c-0.3-0.4-0.6-0.9-0.9-1.3c-0.2-0.6-0.3-1.3-0.5-1.9c-0.7-3.4-0.9-6.9-0.8-10.4
		c0.1-2,0.4-4,0.8-6c1.1-6.1,2.9-12.1,5.3-17.8c0.4-0.9,0.8-1.9,1.2-2.8l0.6-1.4c0.3-0.6,0.8-1,1.4-1.2c0.6-0.2,1.3,0,1.8,0.4
		c0.1,0.1,0.2,0.2,0.3,0.2c0,0,0.1,0.1,0.1,0.1c5,2.9,9.6,6.2,13.8,10.1c0.4,0.4,0.9,0.8,1.3,1.2c3.8,3.6,7,7.3,9.4,11.1
		C69.8,70.8,69.8,76.3,68.4,81.6z"/>
	<path class="st1" d="M139.7,107.2c-0.3,0.4-0.5,0.7-0.7,1.1c-0.5,0.8-1,1.5-1.6,2.2c-5.2,7.1-11.5,13.3-18.6,18.6
		c-0.1,0.1-0.2,0.2-0.3,0.3c-4.6,3.4-9.7,6.1-15.1,7.9c-1.8,0.1-3.5,0.1-5.3,0c-5.9-0.2-11.8-1-17.6-2.3c-3.3-0.8-6.4-1.8-9.5-3.1
		c-0.4,0.6-0.7,1.2-1,1.8c-0.6,1-1.2,2.1-1.8,3.2c-1.4-0.3-2.7-0.7-4-1.2c-1.3-0.4-2.7-0.9-4-1.5c-0.2-0.1-0.4-0.1-0.5-0.2
		c-0.4,0.6-0.7,1.2-1,1.8c-0.7,1.2-1.3,2.3-2,3.5c-0.5,0.9-1,1.7-1.4,2.6c-0.9,1.6-1.7,3.2-2.5,4.8c-0.1,0.2-0.2,0.5-0.4,0.7
		c-0.6,1.2-1.2,2.4-1.9,3.6c-0.5-0.6-1-1.2-1.3-2c-1.1-2.2-0.8-4.9,0.6-6.9c0.7-1,1.4-2.1,2.2-3.1c2.1-3.1,4.3-6.3,6.7-9.4
		c4.4-5.9,9.6-11.2,15.4-15.7c4.9-4,10.5-7.1,16.4-9.2c0.2,0,0.3-0.1,0.5-0.1c0.4,0,0.8-0.1,1.2-0.1c-0.2,0-0.4,0-0.7,0
		c-2.4-0.2-4.8-0.2-7.2,0c0,0-0.1,0-0.1,0c-5.5,0.4-10.9,1.7-15.9,3.8c-0.1,0-0.2,0.1-0.3,0.1c-1.1,0.5-2.3,1.1-3.3,1.7
		c-1.8,1-3.5,2.1-5.1,3.4c0-0.3,0.1-0.6,0.2-0.9c1.1-5.5,3.2-10.7,6.2-15.3c4.1-6.5,10.3-11.3,17.5-13.8c2.8-0.2,5.5-0.1,8.3,0.2
		c4,0.3,7.9,1,11.9,2c0,0,0,0,0,0c6.6,1.7,13.1,4.3,19.7,7.9c5.6,3,10.9,6.6,15.8,10.8c0.1,0.1,0.2,0.1,0.3,0.2l0.2,0.2
		C140.2,105.1,140.4,106.3,139.7,107.2z"/>
	<g id="Group_9541" transform="translate(39.379 72.986)">
		<path id="Path_8642" class="st2" d="M111.4,29.2l-0.2-0.2c-0.1-0.1-0.2-0.1-0.3-0.2c-4.9-4.1-10.2-7.7-15.8-10.8
			c-10.6-5.8-21-9-31.7-9.9C57.7,7.6,51.9,8,46.3,9.4c-0.9,0.2-1.7,0.5-2.5,0.8c-7.2,2.5-13.4,7.3-17.5,13.8
			c-3,4.7-5.1,9.9-6.2,15.3c-0.1,0.3-0.1,0.6-0.2,0.9c-0.1,0.6-0.2,1.3-0.3,1.9c0,0.4-0.1,0.8-0.2,1.2c-0.1,0.7,0.2,1.5,0.7,1.9
			c0.2,0.1,0.3,0.2,0.5,0.3l0.2,0.1c0.7,0.3,1.6,0.1,2.2-0.4l0.2-0.2c0.2-0.2,0.3-0.3,0.5-0.4c0.6-0.6,1.3-1.1,1.9-1.7
			c1.4-1.3,2.9-2.6,4.4-3.8c1.7-1.4,3.4-2.7,5.3-3.8c1.4-0.9,2.9-1.6,4.4-2.3c1.6-0.7,3.2-1.3,4.8-1.8c3.7-1.2,7.6-1.9,11.5-2.2
			c2.6-0.2,5.3-0.2,7.9,0c-0.6,0-1.2,0.1-1.8,0.2c-3.5,0.3-6.9,1-10.2,1.9c-0.2,0-0.3,0.1-0.5,0.2c-0.2,0-0.3,0.1-0.5,0.1
			c-5.9,2.1-11.5,5.2-16.4,9.2c-5.8,4.5-11,9.8-15.4,15.7c-2.3,3.1-4.5,6.3-6.7,9.4c-0.7,1-1.4,2.1-2.2,3.1c-1.5,2-1.7,4.7-0.6,6.9
			c0.3,0.8,0.8,1.4,1.3,2c1.2,1.3,2.9,2,4.7,2h0.1c2.6,0.1,5.1-1.3,6.4-3.6c0.7-1.3,1.4-2.7,2.1-4c0.9-1.8,1.9-3.7,2.9-5.4
			c0.5-1,1.1-2,1.6-3c0.6-1.1,1.2-2.1,1.8-3.2c0.4-0.6,0.7-1.2,1-1.8c3.1,1.3,6.3,2.3,9.5,3.1c5.8,1.3,11.7,2.1,17.6,2.3
			c1.8,0.1,3.5,0.1,5.3,0c2.7-0.2,5.4-0.5,8.1-1.2c6.7-1.8,12.9-4.8,18.4-8.9c7.2-5.3,13.6-11.6,18.9-18.8c0.6-0.8,1.1-1.5,1.6-2.2
			c0.2-0.4,0.5-0.7,0.7-1C112.4,31.1,112.2,29.9,111.4,29.2z M106.2,32.9c-5.1,6.9-11.2,12.9-18.1,18c-2.7,2-5.6,3.8-8.7,5.2
			c-2.7,1.3-5.5,2.3-8.3,3c-4,0.9-8.1,1.3-12.2,1c-5.7-0.2-11.3-0.9-16.8-2.2c-3.4-0.8-6.8-1.9-9.9-3.3c0,0,0,0-0.1,0
			c-1.3-0.6-2.8-0.1-3.5,1.2c-0.5,0.9-1.1,1.9-1.6,2.9c-0.8,1.3-1.5,2.7-2.3,4c-0.4,0.7-0.8,1.4-1.2,2.2c-1,1.8-1.9,3.7-2.9,5.5
			c-0.7,1.3-1.4,2.7-2.1,4c-0.5,1-1.6,1.6-2.7,1.5h0c-1,0-2-0.6-2.3-1.6c-0.1-0.2-0.2-0.4-0.2-0.6c-0.2-0.8,0-1.6,0.5-2.3l2.2-3.1
			c0.4-0.6,0.9-1.3,1.3-1.9c1.2-1.7,2.4-3.4,3.6-5.1c0.5-0.8,1.1-1.5,1.7-2.2c4.2-5.6,9.1-10.6,14.6-15c4.6-3.7,9.7-6.6,15.2-8.5
			c3.4-1,6.8-1.7,10.3-2c3.7-0.4,7.5-0.6,11.3-0.6c1.2,0,2.4,0,3.7,0.1h0.8c0.9,0,1.8-0.7,2-1.6l0-0.2c0.2-1-0.3-2-1.3-2.3
			c-0.4-0.2-0.8-0.3-1.2-0.5c-0.9-0.4-1.8-0.7-2.7-1c-6.3-2-12.9-2.8-19.4-2.2c-6,0.5-12,1.9-17.5,4.2c-3.4,1.5-6.6,3.5-9.5,5.8
			c-0.4,0.3-0.8,0.6-1.1,0.9c-1,0.8-2,1.6-2.9,2.5c0.1-0.5,0.3-1,0.4-1.6c1.1-3.8,2.7-7.3,4.8-10.6c4-6.4,10.3-11,17.6-12.9
			c5.1-1.3,10.5-1.7,15.7-1.1c0.3,0,0.5,0,0.8,0.1c0,0,0,0,0,0c10.3,1.1,20.2,4.3,29.2,9.4c5,2.7,9.7,5.9,14.1,9.5
			C107,31.8,106.6,32.3,106.2,32.9z"/>
	</g>
	<g id="Group_9542" transform="translate(18.05 22.655)">
		<path id="Path_8643" class="st2" d="M50.3,42.9c-0.3-1.2-0.7-2.4-1.2-3.5c-2.6-6.8-7-13.1-13.5-19.3C31,15.7,26,11.9,20.5,8.7
			c-0.1,0-0.1-0.1-0.1-0.1c-0.1-0.1-0.2-0.2-0.3-0.2C19.6,8,18.9,7.8,18.3,8c-0.6,0.2-1.1,0.6-1.4,1.2l-0.6,1.4
			c-0.4,1-0.8,1.9-1.2,2.8c-2.4,5.7-4.2,11.7-5.3,17.8c-1.1,5.4-1.1,11,0,16.4c1,4.9,3,9.5,5.8,13.6c0.3,0.4,0.6,0.9,0.9,1.3
			c3.5,4.8,7.8,8.8,12.8,11.8c0.2,0.1,0.5,0.3,0.7,0.4c0.2,0.1,0.5,0.2,0.7,0.3c0,0,0.1,0,0.1,0c0.5,0.1,1.1,0,1.6-0.3
			c0.5-0.3,0.8-0.8,0.8-1.4c1-8,0.9-16-0.3-24c0.5,1.6,0.9,3.3,1.3,4.9c1.5,7.6,1.2,15.2,0.7,20.9c0,0.7,0.3,1.4,0.8,1.8L36,77
			c0.5,0.4,1.2,0.5,1.8,0.4c0.3-0.1,0.6-0.3,0.8-0.5l0.6-0.6l0.3-0.2c0.4-0.3,0.7-0.7,1.1-1c0.3-0.3,0.6-0.6,0.9-0.8
			c4.2-4.2,7.3-9.5,8.9-15.2C51.8,53.7,51.7,48.1,50.3,42.9z M46.4,57.9c-1.2,4.3-3.3,8.3-6.3,11.7c-0.2,0.3-0.5,0.6-0.8,0.8
			c0.1-1.6,0.1-3.3,0.1-4.9c-0.1-4.1-0.5-8.1-1.2-12.1C36.7,46,33.7,39.1,29.5,33c-0.5-0.8-1.6-1.1-2.5-0.7
			c-0.9,0.4-1.4,1.4-1.2,2.4c3.5,13.1,4.7,24.3,3.8,35c-3.8-2.6-7.1-5.8-9.8-9.6c-2.5-3.4-4.3-7.2-5.4-11.2
			c-0.2-0.7-0.4-1.5-0.5-2.2c-1-4.9-0.9-9.9,0-14.8c1.1-5.8,2.8-11.5,5.1-16.9c0.3-0.6,0.5-1.3,0.8-1.9c4.7,2.9,9.1,6.2,13.1,10
			c2.7,2.5,4.9,5,6.8,7.5c2.5,3.3,4.4,6.7,5.7,10.3C47.5,46.2,47.9,52.2,46.4,57.9z"/>
	</g>
	<g id="Group_9544" transform="translate(56.408 27.779)">
		<g id="Group_9543">
			<path id="Path_8644" class="st3" d="M10.6,7.9c-0.9,0-1.6,0.7-1.6,1.6c0,0.9,0.7,1.6,1.6,1.6c0,0,0,0,0,0h0.1
				c0.9,0,1.6-0.7,1.6-1.6C12.3,8.7,11.5,7.9,10.6,7.9L10.6,7.9z"/>
		</g>
	</g>
	<g id="Group_9546" transform="translate(72.257 137.446)">
		<g id="Group_9545" transform="translate(0)">
			<path id="Path_8645" class="st3" d="M10.6,7.9c-0.9,0-1.6,0.7-1.6,1.6c0,0.9,0.7,1.6,1.6,1.6h0.1c0.9,0,1.6-0.7,1.6-1.6
				C12.3,8.7,11.5,7.9,10.6,7.9L10.6,7.9z"/>
		</g>
	</g>
	<g id="Group_9548" transform="translate(91.43 62.801)">
		<g id="Group_9547">
			<path id="Path_8646" class="st3" d="M10.6,7.9c-0.9,0-1.6,0.7-1.6,1.6s0.7,1.6,1.6,1.6h0.1c0.9,0,1.6-0.7,1.6-1.6
				S11.5,7.9,10.6,7.9L10.6,7.9z"/>
		</g>
	</g>
	<g id="Group_9550" transform="translate(27.521 114.439)">
		<g id="Group_9549" transform="translate(0)">
			<path id="Path_8647" class="st3" d="M10.6,7.9C9.7,7.9,9,8.7,9,9.6c0,0.9,0.7,1.6,1.6,1.6l0,0h0.1c0.9,0,1.6-0.7,1.6-1.6
				C12.3,8.7,11.5,7.9,10.6,7.9L10.6,7.9z"/>
		</g>
	</g>
	<g id="Group_9552" transform="translate(120.572 135.912)">
		<g id="Group_9551">
			<path id="Path_8648" class="st3" d="M10.6,7.9c-0.9,0-1.6,0.7-1.6,1.6c0,0.9,0.7,1.6,1.6,1.6h0.1c0.9,0,1.6-0.7,1.6-1.6
				C12.3,8.7,11.5,7.9,10.6,7.9L10.6,7.9z"/>
		</g>
	</g>
	<g id="Group_9554" transform="translate(109.069 28.546)">
		<g id="Group_9553" transform="translate(0 0)">
			<path id="Path_8649" class="st3" d="M10.6,7.9c-0.9,0-1.6,0.7-1.6,1.6c0,0.9,0.7,1.6,1.6,1.6c0,0,0,0,0,0h0.1
				c0.9,0,1.6-0.7,1.6-1.6C12.3,8.7,11.5,7.9,10.6,7.9C10.6,7.9,10.6,7.9,10.6,7.9L10.6,7.9z"/>
		</g>
	</g>
	<g id="Group_9556" transform="translate(122.106 54.876)">
		<g id="Group_9555" transform="translate(0 0)">
			<path id="Path_8650" class="st3" d="M10.6,7.9c-0.9,0-1.6,0.7-1.6,1.6s0.7,1.6,1.6,1.6l0,0h0.1c0.9,0,1.6-0.7,1.6-1.6
				S11.5,7.9,10.6,7.9L10.6,7.9z"/>
		</g>
	</g>
	<path class="st1" d="M98.1,57.7c0,1.5-0.1,3-0.4,4.4c-0.9,1.3-2,2.4-3.2,3.4c-2.3,2.2-4.9,4-7.9,5.1c-0.1,0-0.2,0.1-0.4,0.1
		l-0.2,0.1c-0.5,0.2-1.1,0.1-1.5-0.2c-0.4-0.3-0.7-0.8-0.8-1.3c-0.3-3-0.2-5.9,0.3-8.9c-0.9,2.9-1.5,5.9-1.8,8.9
		c-0.1,0.8-0.7,1.4-1.4,1.6l-0.1,0c-0.1-0.1-0.2-0.1-0.3-0.1c0,0-0.1,0-0.2,0c0.1-0.6,0.1-1.2,0.2-1.8c-0.2,0.6-0.4,1.2-0.5,1.8
		c-0.4-0.1-0.8-0.4-1.1-0.7c-0.1-0.2-0.2-0.3-0.3-0.5c-0.3-0.4-0.6-0.8-0.9-1.3c-1.6-2.8-2.4-5.9-2.4-9.1c0-0.9,0-1.8,0.1-2.7
		c1.8-2.6,4.1-4.8,6.6-6.7c0.9-0.6,1.8-1.2,2.7-1.7c3-1.8,6.1-3.2,9.4-4.2h0c0.1,0,0.1-0.1,0.2-0.1c0.5-0.2,1.1-0.2,1.6,0
		s0.9,0.7,1,1.3c0,0.3,0.1,0.5,0.2,0.8c0.1,0.6,0.2,1.1,0.3,1.7c0.3,1.5,0.5,2.9,0.6,4.4C98.2,53.8,98.2,55.7,98.1,57.7z"/>
	<g id="Group_9557" transform="translate(66.339 27.073)">
		<path id="Path_8651" class="st2" d="M34.7,11.9c-0.1-0.6-0.2-1.1-0.3-1.7c-0.1-0.3-0.1-0.5-0.2-0.8c-0.1-0.5-0.5-1-1-1.3
			s-1.1-0.3-1.6,0c-0.1,0-0.1,0.1-0.2,0.1h0c-3.3,1-6.5,2.5-9.4,4.2c-3.8,2.2-7.1,5.2-9.6,8.8c-1.9,2.8-3,5.5-3.3,8.2
			C9,30.4,8.9,31.2,9,32.1c0,3.2,0.8,6.3,2.4,9.1c0.3,0.4,0.6,0.8,0.9,1.3c0.1,0.2,0.2,0.3,0.3,0.5c0.3,0.4,0.7,0.6,1.1,0.7
			c0.1,0,0.2,0,0.3,0c0,0,0.1,0,0.2,0c0.1,0,0.2,0,0.3,0.1l0.1,0c0.8-0.2,1.3-0.8,1.4-1.6c0.3-3,0.9-6,1.8-8.9
			c-0.5,2.9-0.6,5.9-0.3,8.9c0,0.5,0.3,1,0.8,1.3c0.5,0.3,1,0.4,1.5,0.2l0.2-0.1c0.1,0,0.3-0.1,0.4-0.1c2.9-1.1,5.6-2.9,7.9-5.1
			c1.2-1,2.2-2.2,3.2-3.4c0.9-1.2,1.7-2.5,2.3-3.9c1.2-2.9,1.7-6,1.7-9.1C35.5,18.6,35.3,15.2,34.7,11.9z M31.8,21.8
			c0,1,0,2.1-0.2,3.1c-0.2,1.6-0.6,3.2-1.2,4.7c-1.1,2.3-2.6,4.4-4.6,6.1c-1.5,1.4-3.2,2.7-5,3.7c-0.1-7.3,2.5-14.1,5.3-16.8
			c0.6-0.6,0.7-1.6,0.3-2.3c-0.3-0.5-0.9-0.8-1.5-0.8c-0.3,0-0.5,0-0.7,0.1c-5.5,2.5-9.1,8.2-11,17c-0.4-1.5-0.7-3.1-0.7-4.7
			c0-3.1,1-6.2,2.9-8.7c0.1-0.1,0.2-0.3,0.3-0.4c2.1-3,4.9-5.5,8.2-7.3c2.3-1.4,4.7-2.5,7.2-3.4c0,0.1,0,0.2,0,0.3
			C31.7,15.5,32,18.6,31.8,21.8z"/>
	</g>
</g>
</svg>
