<svg xmlns="http://www.w3.org/2000/svg" width="177.762" height="184.206" viewBox="0 0 177.762 184.206">
  <g id="Group_9652" data-name="Group 9652" transform="translate(-475 -2953)">
    <g id="Group_9610" data-name="Group 9610" transform="translate(0 0.752)">
      <g id="Layer_2" data-name="Layer 2" transform="translate(652.761 2971.586) rotate(97)">
        <g id="Layer_1" data-name="Layer 1">
          <path id="Path_8671" data-name="Path 8671" d="M20.93,115.92s-42-59-7-96,74-13,80-3,8,35,40,42,39,41,26,67S75.93,188.92,20.93,115.92Z" fill="#f5f5f5"/>
        </g>
      </g>
      <g id="Leaf_2" transform="translate(483.95 2960.191)">
        <g id="Group_9541" data-name="Group 9541" transform="translate(39.379 72.986)">
          <path id="Path_8642" data-name="Path 8642" d="M108.237,291.365h-.077a6.357,6.357,0,0,1-6.007-3.937,6.77,6.77,0,0,1,.614-6.9c.716-1.023,1.432-2.071,2.147-3.119,2.147-3.119,4.346-6.34,6.672-9.407a85.317,85.317,0,0,1,15.389-15.7,55.986,55.986,0,0,1,16.412-9.2,52.2,52.2,0,0,1,11.2-2.224c.614-.077,1.227-.128,1.841-.179a47.578,47.578,0,0,0-7.874-.026,50.489,50.489,0,0,0-16.233,3.911,40.837,40.837,0,0,0-9.714,6.135c-1.483,1.2-2.965,2.505-4.371,3.783-.639.588-1.3,1.15-1.943,1.713-.153.128-.307.256-.46.409l-.23.2a2.071,2.071,0,0,1-2.147.383l-.179-.077a2.063,2.063,0,0,1-1.253-2.224c.077-.409.128-.792.179-1.2.128-.895.281-1.841.486-2.786a44.664,44.664,0,0,1,6.186-15.338,33.721,33.721,0,0,1,19.991-14.6,49.243,49.243,0,0,1,17.153-1.2c10.686.92,21.013,4.167,31.648,9.944a92.543,92.543,0,0,1,15.773,10.762,2.24,2.24,0,0,0,.256.2l.2.153a2.046,2.046,0,0,1,.383,2.786c-.256.358-.511.69-.741,1.048-.537.767-1.048,1.483-1.61,2.224a87.944,87.944,0,0,1-18.943,18.815,53.653,53.653,0,0,1-18.406,8.845,45.8,45.8,0,0,1-13.421,1.15,90.682,90.682,0,0,1-17.588-2.326,58.227,58.227,0,0,1-9.535-3.068c-.358.613-.69,1.2-1.048,1.815-1.15,1.994-2.326,4.065-3.425,6.11-.971,1.789-1.943,3.656-2.863,5.445-.69,1.329-1.38,2.684-2.1,4.039A6.9,6.9,0,0,1,108.237,291.365Zm58.106-46.986a102.111,102.111,0,0,0-11.3.562,48.7,48.7,0,0,0-10.328,2.02,51.75,51.75,0,0,0-15.21,8.538,80.453,80.453,0,0,0-14.648,14.955c-2.275,3.016-4.448,6.186-6.57,9.254l-2.147,3.144a2.741,2.741,0,0,0-.256,2.889,2.361,2.361,0,0,0,2.326,1.559h.051A2.693,2.693,0,0,0,111,285.818c.69-1.329,1.406-2.684,2.071-3.988.946-1.815,1.892-3.681,2.889-5.522,1.125-2.1,2.326-4.167,3.477-6.186.537-.946,1.1-1.917,1.636-2.863a2.591,2.591,0,0,1,3.528-1.15,50.738,50.738,0,0,0,9.944,3.323,88.751,88.751,0,0,0,16.821,2.224,42.219,42.219,0,0,0,12.245-1.023,49.67,49.67,0,0,0,17.025-8.206,84.079,84.079,0,0,0,18.073-17.971c.409-.537.792-1.074,1.176-1.636a87.74,87.74,0,0,0-14.111-9.484,75.648,75.648,0,0,0-30.037-9.459,44.148,44.148,0,0,0-15.722,1.074,29.789,29.789,0,0,0-17.639,12.858A39.738,39.738,0,0,0,117.184,250c.946-.844,1.917-1.662,2.889-2.454a44.558,44.558,0,0,1,10.686-6.723,55.9,55.9,0,0,1,17.537-4.218,51.049,51.049,0,0,1,19.428,2.224c.946.307,1.866.665,2.735,1.023.383.153.767.307,1.176.46a2.049,2.049,0,0,1,1.278,2.352l-.051.2a2.052,2.052,0,0,1-1.994,1.585h-.818C168.746,244.379,167.519,244.379,166.343,244.379Z" transform="translate(-101.485 -219.542)" fill="#240e3e"/>
        </g>
        <g id="Group_9542" data-name="Group 9542" transform="translate(18.05 22.655)">
          <path id="Path_8643" data-name="Path 8643" d="M45.058,91.688l-.179-.128a2.039,2.039,0,0,1-.818-1.789c.435-5.752.767-13.319-.716-20.936a43.36,43.36,0,0,0-1.278-4.908A89.046,89.046,0,0,1,42.4,87.9a2.088,2.088,0,0,1-.844,1.406,2,2,0,0,1-1.611.332,1.107,1.107,0,0,1-.128-.026,2.279,2.279,0,0,1-.741-.256c-.23-.128-.486-.281-.716-.409a44.151,44.151,0,0,1-12.833-11.81,38.905,38.905,0,0,1-6.672-14.9,41.85,41.85,0,0,1,0-16.361,85.13,85.13,0,0,1,5.317-17.767c.383-.946.792-1.866,1.227-2.838l.614-1.38a2.053,2.053,0,0,1,1.38-1.176,2.008,2.008,0,0,1,1.764.383,2.717,2.717,0,0,1,.281.23c.051.026.077.077.128.1a80.358,80.358,0,0,1,15.159,11.3c6.519,6.186,10.967,12.5,13.549,19.326A31.242,31.242,0,0,1,59.45,73.665a35.076,35.076,0,0,1-8.9,15.21c-.639.665-1.329,1.278-1.968,1.892l-.869.792a2.147,2.147,0,0,1-.844.486A2.119,2.119,0,0,1,45.058,91.688Zm-17.1-62.017a82.116,82.116,0,0,0-5.062,16.923,38.237,38.237,0,0,0-.026,14.776,34.843,34.843,0,0,0,5.982,13.344A39.82,39.82,0,0,0,38.693,84.3c.92-10.66-.307-21.857-3.783-34.971a2.059,2.059,0,0,1,1.15-2.4,2.015,2.015,0,0,1,2.531.741,57.025,57.025,0,0,1,8.794,20.349,73.833,73.833,0,0,1,1.1,17.051,29.859,29.859,0,0,0,7-12.5A26.82,26.82,0,0,0,54.44,55.49c-2.4-6.314-6.365-11.964-12.526-17.792a77.356,77.356,0,0,0-13.14-9.97C28.493,28.392,28.211,29.031,27.956,29.671Z" transform="translate(-18.05 -22.655)" fill="#240e3e"/>
        </g>
        <g id="Group_9544" data-name="Group 9544" transform="translate(56.408 27.779)">
          <g id="Group_9543" data-name="Group 9543">
            <path id="Path_8644" data-name="Path 8644" d="M169.736,42.7a1.636,1.636,0,1,0,0,3.272h.051a1.636,1.636,0,0,0,0-3.272Z" transform="translate(-168.1 -42.7)" fill="#250f3f"/>
          </g>
        </g>
        <g id="Group_9546" data-name="Group 9546" transform="translate(72.257 137.446)">
          <g id="Group_9545" data-name="Group 9545" transform="translate(0)">
            <path id="Path_8645" data-name="Path 8645" d="M231.736,471.7a1.636,1.636,0,0,0,0,3.272h.051a1.636,1.636,0,0,0,0-3.272Z" transform="translate(-230.1 -471.7)" fill="#250f3f"/>
          </g>
        </g>
        <g id="Group_9548" data-name="Group 9548" transform="translate(91.43 62.801)">
          <g id="Group_9547" data-name="Group 9547">
            <path id="Path_8646" data-name="Path 8646" d="M306.736,179.7a1.636,1.636,0,0,0,0,3.272h.051a1.636,1.636,0,0,0,0-3.272Z" transform="translate(-305.1 -179.7)" fill="#250f3f"/>
          </g>
        </g>
        <g id="Group_9550" data-name="Group 9550" transform="translate(27.521 114.439)">
          <g id="Group_9549" data-name="Group 9549" transform="translate(0)">
            <path id="Path_8647" data-name="Path 8647" d="M56.736,381.7a1.636,1.636,0,1,0,0,3.272h.051a1.636,1.636,0,1,0,0-3.272Z" transform="translate(-55.1 -381.7)" fill="#250f3f"/>
          </g>
        </g>
        <g id="Group_9552" data-name="Group 9552" transform="translate(120.572 135.912)">
          <g id="Group_9551" data-name="Group 9551">
            <path id="Path_8648" data-name="Path 8648" d="M420.736,465.7a1.636,1.636,0,0,0,0,3.272h.051a1.636,1.636,0,0,0,0-3.272Z" transform="translate(-419.1 -465.7)" fill="#250f3f"/>
          </g>
        </g>
        <g id="Group_9554" data-name="Group 9554" transform="translate(109.069 28.546)">
          <g id="Group_9553" data-name="Group 9553" transform="translate(0 0)">
            <path id="Path_8649" data-name="Path 8649" d="M375.736,45.7a1.636,1.636,0,1,0,0,3.272h.051a1.636,1.636,0,1,0,0-3.272Z" transform="translate(-374.1 -45.7)" fill="#250f3f"/>
          </g>
        </g>
        <g id="Group_9556" data-name="Group 9556" transform="translate(122.106 54.876)">
          <g id="Group_9555" data-name="Group 9555" transform="translate(0 0)">
            <path id="Path_8650" data-name="Path 8650" d="M426.736,148.7a1.636,1.636,0,1,0,0,3.272h.051a1.636,1.636,0,1,0,0-3.272Z" transform="translate(-425.1 -148.7)" fill="#250f3f"/>
          </g>
        </g>
        <g id="Group_9557" data-name="Group 9557" transform="translate(66.339 27.073)">
          <path id="Path_8651" data-name="Path 8651" d="M212.1,75.742a1.877,1.877,0,0,1-1.508-.767c-.128-.179-.23-.332-.358-.511-.281-.409-.562-.818-.844-1.253a17.854,17.854,0,0,1-2.429-9.1c-.153-3.451,1-7.107,3.477-10.864a29.109,29.109,0,0,1,9.612-8.819,44.329,44.329,0,0,1,9.407-4.218h.026a1.516,1.516,0,0,1,.2-.1,1.816,1.816,0,0,1,1.585.026,1.749,1.749,0,0,1,.946,1.253c.051.281.1.537.153.818.1.562.23,1.1.307,1.662a47.6,47.6,0,0,1,.741,10.123,24.647,24.647,0,0,1-1.713,9.126,21.911,21.911,0,0,1-5.445,7.311,22.959,22.959,0,0,1-7.874,5.113c-.1.026-.23.077-.358.1l-.23.077a1.906,1.906,0,0,1-1.534-.2,1.79,1.79,0,0,1-.792-1.329,34.881,34.881,0,0,1,.332-8.845,45.878,45.878,0,0,0-1.815,8.871,1.821,1.821,0,0,1-1.432,1.559l-.128.026A.511.511,0,0,0,212.1,75.742Zm10.839-24.234a1.756,1.756,0,0,1,1.483.792,1.794,1.794,0,0,1-.256,2.3c-2.812,2.659-5.343,9.433-5.266,16.77a25.53,25.53,0,0,0,4.985-3.707,18.567,18.567,0,0,0,4.55-6.11,21.32,21.32,0,0,0,1.406-7.8,43.651,43.651,0,0,0-.69-9.356c-.026-.1-.026-.2-.051-.332a40.316,40.316,0,0,0-7.209,3.4,24.948,24.948,0,0,0-8.462,7.695,15.044,15.044,0,0,0-2.889,8.743,18.975,18.975,0,0,0,.69,4.729c1.815-8.819,5.5-14.52,10.967-16.974A1.834,1.834,0,0,1,222.938,51.508Z" transform="translate(-206.947 -39.937)" fill="#240e3e"/>
        </g>
      </g>
    </g>
  </g>
</svg>
