<svg id="图层_1" xmlns="http://www.w3.org/2000/svg" width="137.863" height="43.714" viewBox="0 0 137.863 43.714">
  <path id="Path_4230" data-name="Path 4230" d="M21.857,0A21.857,21.857,0,1,0,43.714,21.857,21.84,21.84,0,0,0,21.857,0ZM13.04,24.539v.031a9.519,9.519,0,0,0,.247,1.881,2.387,2.387,0,0,0,1.819,1.819,14.26,14.26,0,0,0,3.823.432c3.638.031,7.368.031,10.944.031h3.083a2.118,2.118,0,0,1,1.973.894,2.469,2.469,0,0,1,.308,1.911A2.551,2.551,0,0,1,34.1,33.109a2.733,2.733,0,0,1-.524.247,11.8,11.8,0,0,1-3.3.462c-2.189.031-4.408.062-6.6.062s-4.408-.031-6.6-.062a20.72,20.72,0,0,1-4.131-.493c-3.36-.709-5.087-2.5-5.642-5.826-.092-.524-.154-1.048-.216-1.541-.031-.216-.062-.462-.092-.678V19.422l.062-.555c.031-.4.092-.771.123-1.141.432-3.792,2.22-5.734,5.95-6.566a25.1,25.1,0,0,1,2.9-.4l.925-.092H30.766a5.041,5.041,0,0,0,.678.062c.524.062,1.048.123,1.572.216,1.757.339,2.435,1.326,2.127,3.114A1.831,1.831,0,0,1,33.6,15.6a6.837,6.837,0,0,1-1.141.092c-4.717,0-9.526.031-14.3.031a11.694,11.694,0,0,0-2.065.185c-2.127.339-2.836,1.11-3.021,3.268,0,.185-.031.37-.031.524H33.233a2.116,2.116,0,0,1,1.141.308,2.294,2.294,0,0,1,.894,2.435c0,.092-.031.185-.031.308a1.742,1.742,0,0,1-1.541,1.634,5.142,5.142,0,0,1-.956.062H13.04Z" fill="#29023f"/>
  <g id="Group_5110" data-name="Group 5110" transform="translate(52.408 14.304)">
    <g id="Group_5109" data-name="Group 5109">
      <g id="Group_5104" data-name="Group 5104">
        <path id="Path_4231" data-name="Path 4231" d="M186.491,47.2c.493.062,1.017.092,1.511.185.986.185,1.326.678,1.141,1.7a.789.789,0,0,1-.709.709,5.5,5.5,0,0,1-.709.062c-3.268,0-6.5.031-9.772.031a11.015,11.015,0,0,0-1.449.123,2.375,2.375,0,0,0-2.343,2.559c-.062.771-.062.771.709.771h13.349a1.275,1.275,0,0,1,.586.154c.586.37.432.986.4,1.511a.8.8,0,0,1-.74.771,3.54,3.54,0,0,1-.586.031H174.561c-.493,0-.493,0-.432.493a9.7,9.7,0,0,0,.154,1.326,1.949,1.949,0,0,0,1.511,1.511,10.045,10.045,0,0,0,2.713.308c3.175.031,6.351,0,9.526,0a1.091,1.091,0,0,1,1.017.432,1.351,1.351,0,0,1-.432,1.85,1.1,1.1,0,0,1-.277.123,7.078,7.078,0,0,1-2.127.277c-2.99.062-5.95.062-8.94,0a16.253,16.253,0,0,1-2.744-.308,3.98,3.98,0,0,1-3.545-3.638c-.092-.493-.123-.986-.185-1.48V52.811c.031-.37.092-.771.123-1.141a4.2,4.2,0,0,1,3.73-4.131,17.579,17.579,0,0,1,2.559-.308h9.279Z" transform="translate(-170.553 -46.953)" fill="#29023f"/>
        <path id="Path_4232" data-name="Path 4232" d="M181.191,61.906c-1.511,0-2.99,0-4.47-.031a14.529,14.529,0,0,1-2.805-.339,4.208,4.208,0,0,1-3.73-3.853c-.062-.339-.092-.678-.123-1.048-.031-.154-.031-.308-.062-.462V52.257l.031-.4c.031-.247.062-.524.092-.771a4.451,4.451,0,0,1,3.946-4.347,14.465,14.465,0,0,1,1.973-.277c.216-.031.432-.031.617-.062h9.372c.154.031.308.031.462.062a6.992,6.992,0,0,1,1.079.154,1.485,1.485,0,0,1,1.356,1.973,1.049,1.049,0,0,1-.925.925,5.987,5.987,0,0,1-.74.062c-3.237,0-6.5.031-9.772.031a11.007,11.007,0,0,0-1.418.123c-1.511.247-2.035.8-2.127,2.312a3.639,3.639,0,0,0-.031.493h13.811a1.432,1.432,0,0,1,.709.185,1.457,1.457,0,0,1,.555,1.541.6.6,0,0,1-.031.216A1.078,1.078,0,0,1,188,55.494a2.285,2.285,0,0,1-.647.031H173.792v.185a9.171,9.171,0,0,0,.154,1.326,1.72,1.72,0,0,0,1.326,1.326,10.168,10.168,0,0,0,2.651.308c2.5.031,4.963,0,7.46,0h2.065a1.309,1.309,0,0,1,1.233.555,1.573,1.573,0,0,1-.524,2.189,1.14,1.14,0,0,1-.339.154,8.135,8.135,0,0,1-2.189.308C184.181,61.876,182.67,61.906,181.191,61.906Zm4.747-15.013h-9.279c-.185.031-.4.031-.617.062-.617.062-1.264.123-1.881.247a3.944,3.944,0,0,0-3.545,3.915c-.031.247-.062.524-.092.771l-.031.37v3.884c.031.123.031.277.062.432.031.339.062.678.123,1.017a3.754,3.754,0,0,0,3.36,3.453,15.893,15.893,0,0,0,2.682.308c2.959.062,5.981.062,8.94,0a6.871,6.871,0,0,0,2.035-.277c.062-.031.154-.062.216-.092a1.088,1.088,0,0,0,.339-1.48c-.154-.247-.432-.308-.8-.308h-9.526a11.246,11.246,0,0,1-2.775-.308,2.226,2.226,0,0,1-1.665-1.7,10.979,10.979,0,0,1-.185-1.356c-.031-.308-.031-.462.092-.617s.308-.154.617-.154h13.318a2.821,2.821,0,0,0,.524-.031c.432-.092.524-.308.524-.524a.524.524,0,0,1,.031-.216c.031-.524.062-.832-.308-1.048a.708.708,0,0,0-.432-.123H174.316c-.432,0-.678,0-.863-.185s-.154-.432-.123-.863a2.586,2.586,0,0,1,2.559-2.775,8.1,8.1,0,0,1,1.511-.123c3.268,0,6.5,0,9.772-.031a2.529,2.529,0,0,0,.678-.062.557.557,0,0,0,.493-.493c.154-.863-.092-1.233-.956-1.418-.339-.062-.678-.092-1.017-.123A1.036,1.036,0,0,0,185.938,46.893Z" transform="translate(-170 -46.4)" fill="#29023f"/>
      </g>
      <g id="Group_5105" data-name="Group 5105" transform="translate(20.901 0.085)">
        <path id="Path_4233" data-name="Path 4233" d="M257.567,54.873v5.919a1.453,1.453,0,0,1-1.449,1.665,18.54,18.54,0,0,1-2.929.031,1.874,1.874,0,0,1-1.326-.74c-2.929-3.391-5.857-6.751-8.786-10.142a3.969,3.969,0,0,0-.493-.524c-.123-.123-.247-.247-.4-.185-.185.062-.185.247-.185.4v9.865c0,1.017-.308,1.356-1.356,1.356h-.894a.956.956,0,0,1-1.017-.956,3.731,3.731,0,0,1-.031-.586V49.232a1.4,1.4,0,0,1,1.295-1.449,15.617,15.617,0,0,1,3.175-.031,1.976,1.976,0,0,1,1.326.771c3.021,3.514,6.042,7,9.094,10.512a.72.72,0,0,0,.216.216.292.292,0,0,0,.339.092.339.339,0,0,0,.185-.308V48.985c0-.956.339-1.295,1.295-1.295h.832a1,1,0,0,1,1.141,1.141C257.567,50.835,257.567,52.839,257.567,54.873Z" transform="translate(-238.423 -47.374)" fill="#29023f"/>
        <path id="Path_4234" data-name="Path 4234" d="M254.139,62.066c-.493,0-.987-.031-1.48-.031h-.123a2.053,2.053,0,0,1-1.511-.832c-2.929-3.391-5.857-6.751-8.786-10.142-.154-.185-.308-.37-.462-.524-.092-.092-.123-.123-.154-.092s-.031.123-.031.154v9.865c0,1.171-.432,1.6-1.6,1.6h-.894a1.218,1.218,0,0,1-1.264-1.2,4.132,4.132,0,0,1-.031-.617V48.471a1.638,1.638,0,0,1,1.511-1.7,18.215,18.215,0,0,1,3.175-.062,2.2,2.2,0,0,1,1.541.863c3.021,3.514,6.042,7,9.094,10.512l.185.185c.031.031.062.062.092.062V48.255c0-1.079.462-1.541,1.541-1.541h.832A1.239,1.239,0,0,1,257.16,48.1V60.093a1.679,1.679,0,0,1-1.7,1.911A9.109,9.109,0,0,1,254.139,62.066ZM241.653,49.92a.7.7,0,0,1,.493.277c.154.185.339.37.493.555,2.929,3.391,5.857,6.751,8.786,10.142a1.526,1.526,0,0,0,1.141.647h.123a16.641,16.641,0,0,0,2.775-.031c.894-.092,1.233-.493,1.233-1.418V48.1c0-.617-.247-.863-.894-.894H255c-.832,0-1.048.216-1.048,1.017V58.243a.689.689,0,0,1-.308.555.549.549,0,0,1-.617-.123l-.247-.247c-3.021-3.484-6.073-7-9.094-10.482a1.685,1.685,0,0,0-1.141-.709,15,15,0,0,0-3.114.031,1.131,1.131,0,0,0-1.079,1.233V60.247a3.349,3.349,0,0,0,.031.555.72.72,0,0,0,.771.74h.863c.894,0,1.079-.216,1.079-1.079V50.6c0-.154,0-.524.339-.647A.6.6,0,0,1,241.653,49.92Z" transform="translate(-237.8 -46.675)" fill="#29023f"/>
      </g>
      <g id="Group_5106" data-name="Group 5106" transform="translate(66.095 0.119)">
        <path id="Path_4235" data-name="Path 4235" d="M385.2,55.2V49.439c0-1.233.432-1.757,1.665-1.819a25.349,25.349,0,0,1,2.651,0,1.848,1.848,0,0,1,1.387.74l8.878,10.266c.154.154.277.339.432.493.092.092.216.216.4.123.154-.062.154-.216.154-.339V48.946c0-.986.339-1.326,1.295-1.326h.832a1,1,0,0,1,1.141,1.141V60.753a1.42,1.42,0,0,1-1.387,1.6,19.369,19.369,0,0,1-2.99.031,1.927,1.927,0,0,1-1.356-.771c-3.021-3.484-6.042-7-9.063-10.482-.031-.062-.092-.092-.123-.154-.123-.123-.247-.247-.432-.185s-.185.277-.185.432V61.246a1.02,1.02,0,0,1-1.171,1.171h-.987a.984.984,0,0,1-1.079-1.11C385.231,59.273,385.2,57.238,385.2,55.2Z" transform="translate(-384.953 -47.338)" fill="#29023f"/>
        <path id="Path_4236" data-name="Path 4236" d="M400.677,62.142c-.493,0-.987-.031-1.48-.031h-.123a2.154,2.154,0,0,1-1.541-.863c-3.021-3.484-6.042-7-9.063-10.482l-.031-.062-.092-.092c-.123-.123-.154-.123-.154-.123-.031.031-.031.123-.031.185V60.693a1.257,1.257,0,0,1-1.418,1.418h-1.017a1.225,1.225,0,0,1-1.326-1.356V48.886c0-1.387.555-2,1.911-2.065a25.928,25.928,0,0,1,2.682,0,2.078,2.078,0,0,1,1.572.8l8.878,10.266c.154.154.277.308.432.462l.092.092V48.362c0-1.141.432-1.572,1.572-1.572h.832a1.252,1.252,0,0,1,1.387,1.387V60.2a1.7,1.7,0,0,1-1.6,1.881C401.633,62.111,401.17,62.142,400.677,62.142ZM388.192,50a.613.613,0,0,1,.493.277l.123.123.031.062c3.021,3.484,6.042,7,9.063,10.482a1.739,1.739,0,0,0,1.171.678h.123a17.427,17.427,0,0,0,2.836-.031,1.17,1.17,0,0,0,1.171-1.356V48.207c0-.617-.247-.894-.894-.894h-.771c-.832,0-1.048.216-1.048,1.079V58.35a.6.6,0,0,1-.308.586.586.586,0,0,1-.678-.185,6.179,6.179,0,0,1-.432-.493L390.2,47.992a1.747,1.747,0,0,0-1.2-.647,25.321,25.321,0,0,0-2.651,0c-1.048.062-1.418.462-1.418,1.572V60.785c0,.586.247.832.832.863h.986c.647,0,.925-.247.925-.925V50.7c0-.185,0-.555.339-.678A.391.391,0,0,1,388.192,50Z" transform="translate(-384.4 -46.785)" fill="#29023f"/>
      </g>
      <g id="Group_5107" data-name="Group 5107" transform="translate(41.797 0.092)">
        <path id="Path_4237" data-name="Path 4237" d="M317.67,52.841v-4.1c0-.771.339-1.141,1.11-1.141h1.11a.963.963,0,0,1,1.017.894,2.821,2.821,0,0,1,.031.524V55.8a20.055,20.055,0,0,1-.185,2.713c-.339,2.189-1.418,3.268-3.7,3.73a15.162,15.162,0,0,1-2.651.277c-1.942.031-3.854.092-5.8-.062a5.436,5.436,0,0,1-1.572-.277c-.617-.247-.832-.74-.709-1.541.092-.524.462-.8,1.11-.8,2,0,3.977,0,5.981-.031a10.685,10.685,0,0,0,1.973-.185,2.376,2.376,0,0,0,2.22-2.651c.031-.709.062-1.387.062-2.1Z" transform="translate(-306.073 -47.323)" fill="#29023f"/>
        <path id="Path_4238" data-name="Path 4238" d="M310.921,62.176c-.925,0-1.88-.031-2.805-.092a4.95,4.95,0,0,1-1.634-.308,1.487,1.487,0,0,1-.863-1.819c.062-.37.308-.986,1.356-1.017h5.981a9.8,9.8,0,0,0,1.911-.185,2.123,2.123,0,0,0,2-2.4c.031-.678.062-1.387.062-2.065v-6.2a1.226,1.226,0,0,1,1.387-1.387h1.141a1.22,1.22,0,0,1,1.264,1.11,3.351,3.351,0,0,1,.031.555v6.782a20.17,20.17,0,0,1-.185,2.744c-.37,2.281-1.541,3.453-3.915,3.946a15.835,15.835,0,0,1-2.682.277h-1.079C312.215,62.145,311.568,62.176,310.921,62.176Zm2-2.713h-5.981c-.771,0-.832.432-.863.586-.154.863.216,1.11.555,1.264a4.669,4.669,0,0,0,1.48.277c1.572.092,3.144.092,4.686.062h1.079a14.728,14.728,0,0,0,2.59-.247,3.829,3.829,0,0,0,3.514-3.514,19.605,19.605,0,0,0,.185-2.682V48.426a2.331,2.331,0,0,0-.031-.462.689.689,0,0,0-.771-.678h-1.11c-.617,0-.863.247-.863.894v6.166c0,.709-.031,1.387-.062,2.1a2.563,2.563,0,0,1-2.4,2.867A14.252,14.252,0,0,1,312.924,59.463Z" transform="translate(-305.582 -46.7)" fill="#29023f"/>
      </g>
      <g id="Group_5108" data-name="Group 5108" transform="translate(59.59 0.092)">
        <path id="Path_4239" data-name="Path 4239" d="M367.4,55.03v6.135c0,.956-.308,1.264-1.264,1.264h-.956a1.019,1.019,0,0,1-1.079-1.079V48.926c0-1.017.308-1.326,1.326-1.326h.863a1.012,1.012,0,0,1,1.141,1.141C367.4,50.837,367.4,52.933,367.4,55.03Z" transform="translate(-363.853 -47.323)" fill="#29023f"/>
        <path id="Path_4240" data-name="Path 4240" d="M364.934,62.083h-.308a1.262,1.262,0,0,1-1.326-1.326V48.3c0-1.171.432-1.6,1.572-1.6h.863a1.266,1.266,0,0,1,1.387,1.387V60.511c0,1.079-.432,1.511-1.541,1.511h-.308A.723.723,0,0,1,364.934,62.083Zm.771-14.859h-.863c-.863,0-1.079.216-1.079,1.079V60.7a.762.762,0,0,0,.832.832h.925c.8,0,1.017-.216,1.017-1.017V48.118C366.568,47.5,366.321,47.255,365.7,47.224Z" transform="translate(-363.3 -46.7)" fill="#29023f"/>
      </g>
    </g>
  </g>
</svg>
