<svg xmlns="http://www.w3.org/2000/svg" width="19.345" height="18.538" viewBox="0 0 19.345 18.538">
  <path id="github" d="M9.672,10.7a9.484,9.484,0,0,0-3.06,18.521c.484.091.661-.2.661-.457,0-.227-.008-.824-.011-1.617C4.572,27.721,4,25.874,4,25.874a2.531,2.531,0,0,0-1.077-1.39c-.877-.589.068-.578.068-.578a2.018,2.018,0,0,1,1.481.979,2.083,2.083,0,0,0,2.819.79,2.008,2.008,0,0,1,.612-1.27c-2.15-.238-4.405-1.054-4.405-4.7a3.632,3.632,0,0,1,.994-2.55,3.332,3.332,0,0,1,.083-2.516s.809-.253,2.66.975a9.264,9.264,0,0,1,4.836,0c1.836-1.228,2.649-.975,2.649-.975a3.428,3.428,0,0,1,.1,2.516,3.645,3.645,0,0,1,.99,2.55c0,3.65-2.259,4.455-4.413,4.689a2.253,2.253,0,0,1,.654,1.757c0,1.273-.011,2.293-.011,2.6,0,.249.17.548.665.45a9.486,9.486,0,0,0,6.638-9A9.588,9.588,0,0,0,9.672,10.7Z" transform="translate(0 -10.7)" fill="#29023f"/>
</svg>
