<?xml version="1.0" encoding="utf-8"?>
<!-- Generator: Adobe Illustrator 23.0.0, SVG Export Plug-In . SVG Version: 6.00 Build 0)  -->
<svg version="1.1" id="Layer_1" xmlns="http://www.w3.org/2000/svg" xmlns:xlink="http://www.w3.org/1999/xlink" x="0px" y="0px"
	 viewBox="0 0 110 110" style="enable-background:new 0 0 110 110;" xml:space="preserve">
<style type="text/css">
	.st0{fill:#29023F;}
</style>
<g>
	<g>
		<g>
			<path class="st0" d="M107.8,52.9h-9.4v-4.2c0-1-0.7-1.8-1.6-2l-6.3-1.6l-3.3-8l3.3-5.6c0.5-0.8,0.4-1.9-0.3-2.6L81.3,20
				c-0.7-0.7-1.7-0.8-2.6-0.3L73.1,23l-8-3.3l-1.6-6.3c-0.2-0.9-1.1-1.6-2-1.6h-4.2V2.3c0-1.2-0.9-2.1-2.1-2.1
				c-1.2,0-2.1,0.9-2.1,2.1v9.4h-4.2c-1,0-1.8,0.7-2,1.6l-1.6,6.3l-8,3.3l-5.6-3.3c-0.8-0.5-1.9-0.4-2.6,0.3l-8.8,8.8
				c-0.7,0.7-0.8,1.7-0.3,2.6l3.3,5.6l-3.3,8l-6.3,1.6c-0.9,0.2-1.6,1.1-1.6,2v4.2H2.4c-1.2,0-2.1,0.9-2.1,2.1
				c0,1.2,0.9,2.1,2.1,2.1h9.4v4.2c0,1,0.7,1.8,1.6,2l6.3,1.6l3.3,8l-3.3,5.6c-0.5,0.8-0.4,1.9,0.3,2.6l8.8,8.8
				c0.7,0.7,1.7,0.8,2.6,0.3l5.6-3.3l8,3.3l1.6,6.3c0.2,0.9,1.1,1.6,2,1.6H53v9.4c0,1.2,0.9,2.1,2.1,2.1s2.1-0.9,2.1-2.1v-9.4h4.2
				c1,0,1.8-0.7,2-1.6l1.6-6.3l8-3.3l5.6,3.3c0.8,0.5,1.9,0.4,2.6-0.3l8.8-8.8c0.7-0.7,0.8-1.7,0.3-2.6L87.1,73l3.3-8l6.3-1.6
				c0.9-0.2,1.6-1.1,1.6-2v-4.2h9.4c1.2,0,2.1-0.9,2.1-2.1C109.9,53.8,108.9,52.9,107.8,52.9z M94.1,59.6L88.3,61
				c-0.6,0.2-1.2,0.6-1.4,1.2l-4.2,10c-0.3,0.6-0.2,1.3,0.1,1.9l3,5.1l-6.5,6.5l-5.1-3c-0.6-0.3-1.3-0.4-1.9-0.1l-9.9,4.2
				c-0.6,0.3-1.1,0.8-1.2,1.4L59.8,94h-9.2l-1.4-5.8c-0.2-0.6-0.6-1.2-1.2-1.4l-10.1-4.2c-0.6-0.3-1.3-0.2-1.9,0.1l-5.1,3l-6.5-6.5
				l3-5.1c0.3-0.6,0.4-1.3,0.1-1.9l-4.2-9.9c-0.3-0.6-0.8-1.1-1.4-1.2L16,59.7v-9.2l5.8-1.4c0.6-0.2,1.2-0.6,1.4-1.2l4.2-9.9
				c0.3-0.6,0.2-1.3-0.1-1.9l-3-5.1l6.5-6.5l5.1,3c0.6,0.3,1.3,0.4,1.9,0.1l9.9-4.2c0.6-0.3,1.1-0.8,1.2-1.4l1.4-5.8h9.2l1.4,5.8
				c0.2,0.6,0.6,1.2,1.2,1.4l9.9,4.2c0.6,0.3,1.3,0.2,1.9-0.1l5.1-3l6.5,6.5l-3,5.1c-0.3,0.6-0.4,1.3-0.1,1.9l4.2,9.9
				c0.3,0.6,0.8,1.1,1.4,1.2l5.8,1.4L94.1,59.6L94.1,59.6z"/>
		</g>
	</g>
	<g>
		<g>
			<path class="st0" d="M64.5,29.2c-1.1-0.4-2.3,0.2-2.7,1.3s0.2,2.3,1.3,2.7c9,3.3,15.1,12.1,15.1,21.7c0,12.8-10.4,23.1-23.1,23.1
				S32,67.8,32,55c0-9.1,5.4-17.5,13.8-21.1c1.1-0.5,1.5-1.7,1.1-2.8c-0.5-1.1-1.7-1.5-2.8-1.1C34.1,34.3,27.7,44.1,27.7,55
				c0,15.1,12.3,27.4,27.4,27.4S82.5,70.1,82.5,55C82.5,43.5,75.3,33.2,64.5,29.2z"/>
		</g>
	</g>
	<g>
		<g>
			<path class="st0" d="M55.2,27.6h-0.1c-1.2,0-2.1,0.9-2.1,2.1s0.9,2.1,2.1,2.1h0.1l0,0c1.2,0,2.1-0.9,2.1-2.1
				C57.3,28.6,56.3,27.6,55.2,27.6z"/>
		</g>
	</g>
	<g>
		<g>
			<path class="st0" d="M65.1,56.9c-0.8,0-1.4,0.6-1.4,1.4v8.2c0,0.8,0.6,1.4,1.4,1.4s1.4-0.6,1.4-1.4v-8.2
				C66.5,57.5,65.9,56.9,65.1,56.9z"/>
		</g>
	</g>
	<g>
		<g>
			<path class="st0" d="M58.2,56.9h-2.9c-0.8,0-1.4,0.6-1.4,1.4v2.7V63v3.5c0,0.8,0.6,1.4,1.4,1.4c0.8,0,1.4-0.6,1.4-1.4v-2h1.5
				c1.9,0,3.6-1.6,3.6-3.6v-0.4C61.8,58.6,60.3,56.9,58.2,56.9z M59.1,60.9c0,0.4-0.3,0.7-0.7,0.7h-1.5v-0.5v-1.4h1.5
				c0.4,0,0.7,0.3,0.7,0.7V60.9z"/>
		</g>
	</g>
	<g>
		<g>
			<path class="st0" d="M52.5,66.2l-3.6-8.4c-0.2-0.5-0.7-0.8-1.3-0.8s-1.1,0.3-1.3,0.8l-3.6,8.4c-0.3,0.7,0,1.5,0.7,1.8
				s1.5,0,1.8-0.7l2.3-5.4l2.3,5.4c0.2,0.5,0.7,0.8,1.3,0.8c0.2,0,0.4,0,0.5-0.1C52.5,67.7,52.8,66.9,52.5,66.2z"/>
		</g>
	</g>
	<g>
		<g>
			<path class="st0" d="M102.6,0.2c-4.1,0-7.3,3.2-7.3,7.3c0,1.2,0.3,2.4,0.8,3.5l-8.2,8.2c-0.8,0.8-0.8,2.2,0,3
				c0.4,0.4,1,0.6,1.5,0.6s1.1-0.2,1.5-0.6l8.2-8.2c1,0.5,2.1,0.8,3.5,0.8c4.1,0,7.3-3.2,7.3-7.3S106.7,0.2,102.6,0.2z M102.6,10.5
				c-1.6,0-3-1.3-3-3c0-1.6,1.3-3,3-3c1.6,0,3,1.3,3,3S104.2,10.5,102.6,10.5z"/>
		</g>
	</g>
	<g>
		<g>
			<path class="st0" d="M22.1,87.9c-0.8-0.8-2.2-0.8-3,0l-8.2,8.2c-1-0.5-2.1-0.8-3.5-0.8c-4.1,0-7.3,3.2-7.3,7.3s3.2,7.3,7.3,7.3
				s7.3-3.2,7.3-7.3c0-1.2-0.3-2.4-0.8-3.5l8.2-8.2C23,90.1,23,88.7,22.1,87.9z M7.5,105.5c-1.6,0-3-1.3-3-3c0-1.6,1.3-3,3-3
				c1.6,0,3,1.3,3,3S9.2,105.5,7.5,105.5z"/>
		</g>
	</g>
	<g>
		<g>
			<path class="st0" d="M90.9,87.9c-0.4-0.4-0.9-0.6-1.5-0.6s-1.1,0.2-1.5,0.6c-0.4,0.4-0.6,0.9-0.6,1.5s0.2,1.1,0.6,1.5
				c0.4,0.4,0.9,0.6,1.5,0.6s1.1-0.2,1.5-0.6c0.4-0.4,0.6-0.9,0.6-1.5C91.5,88.9,91.3,88.3,90.9,87.9z"/>
		</g>
	</g>
	<g>
		<g>
			<path class="st0" d="M102.5,95.3c-1.2,0-2.4,0.3-3.5,0.8l-3.6-3.7c-0.8-0.8-2.2-0.8-3,0c-0.8,0.8-0.8,2.2,0,3l3.7,3.7
				c-0.5,1-0.8,2.1-0.8,3.5c0,4.1,3.2,7.3,7.3,7.3s7.3-3.2,7.3-7.3C109.8,98.5,106.5,95.3,102.5,95.3z M102.5,105.5
				c-1.6,0-3-1.3-3-3c0-1.6,1.3-3,3-3c1.6,0,3,1.3,3,3S104.1,105.5,102.5,105.5z"/>
		</g>
	</g>
	<g>
		<g>
			<path class="st0" d="M22.1,19.1l-8.2-8.2c0.5-1,0.8-2.1,0.8-3.5c0-4.1-3.2-7.3-7.3-7.3S0.3,3.4,0.3,7.5s3.2,7.3,7.3,7.3
				c1.2,0,2.4-0.3,3.5-0.8l8.2,8.2c0.4,0.4,1,0.6,1.5,0.6s1.1-0.2,1.5-0.6C23,21.3,23,19.9,22.1,19.1z M7.5,10.5c-1.6,0-3-1.3-3-3
				c0-1.6,1.3-3,3-3c1.6,0,3,1.3,3,3S9.2,10.5,7.5,10.5z"/>
		</g>
	</g>
	<g>
		<path class="st0" d="M50.7,46.1h2c0.2,0,0.4,0.1,0.6,0.3c0.5,0.7,0.7,1.4,0.6,2.1c0,0.9-0.5,1.8-1.2,2.3c-0.6,0.5-1.4,0.7-2.2,0.7
			c-1.3,0-2.4-0.5-3.2-1.4c-0.8-0.9-1.4-2.1-1.4-3.6c0-1.4,0.5-2.5,1.4-3.6c0.9-0.9,2-1.4,3.5-1.4c0.3,0,0.7,0.1,1.1,0.2
			c0.2,0.1,0.4,0.3,0.4,0.5v1.9c0,0.2-0.2,0.4-0.4,0.3c-0.3-0.1-0.5-0.1-0.8-0.1c-0.7,0-1.2,0.2-1.6,0.6c-0.4,0.4-0.6,0.9-0.6,1.6
			c0,0.7,0.2,1.2,0.6,1.6c0.4,0.4,0.9,0.6,1.6,0.6c0.4,0,0.6-0.1,0.6-0.4c0-0.2-0.1-0.3-0.4-0.3h-0.6l0,0v-1.8
			C50.4,46.2,50.6,46.1,50.7,46.1z"/>
		<path class="st0" d="M50.5,51.8c-1.3,0-2.4-0.5-3.3-1.5c-0.9-1-1.4-2.2-1.4-3.7c0-1.4,0.5-2.6,1.4-3.6c0.9-0.9,2.1-1.4,3.6-1.4
			c0.4,0,0.7,0.1,1.2,0.2c0.3,0.1,0.5,0.3,0.5,0.6v1.9c0,0.1-0.1,0.3-0.2,0.3c-0.1,0.1-0.3,0.1-0.4,0.1c-0.3-0.1-0.5-0.1-0.7-0.1
			c-0.6,0-1.1,0.2-1.5,0.6c-0.4,0.4-0.6,0.9-0.6,1.5c0,0.6,0.2,1.1,0.5,1.5c0.4,0.4,0.9,0.6,1.5,0.6c0.5,0,0.5-0.2,0.5-0.3
			c0-0.1,0-0.2-0.3-0.2h-0.6c-0.1,0-0.1-0.1-0.1-0.1v-1.8c0-0.2,0.2-0.4,0.4-0.4h2c0.3,0,0.5,0.1,0.7,0.3c0.5,0.7,0.7,1.4,0.7,2.2
			c0,0.9-0.5,1.8-1.3,2.4C52.2,51.4,51.3,51.8,50.5,51.8z M50.6,41.8c-1.3,0-2.4,0.5-3.3,1.4c-0.9,0.9-1.3,2-1.3,3.5
			s0.4,2.5,1.3,3.6c0.9,0.9,1.9,1.4,3.2,1.4c0.8,0,1.6-0.2,2.2-0.7c0.7-0.6,1.2-1.4,1.2-2.3c0-0.7-0.2-1.4-0.6-2
			c-0.1-0.2-0.3-0.3-0.5-0.3h-2c-0.1,0-0.2,0.1-0.2,0.2v1.7h0.6c0.5,0,0.5,0.2,0.5,0.4c0,0.2-0.1,0.5-0.7,0.5
			c-0.7,0-1.2-0.2-1.6-0.6s-0.6-1-0.6-1.7c0-0.7,0.2-1.2,0.7-1.7c0.4-0.4,1-0.6,1.7-0.6c0.3,0,0.5,0,0.8,0.1c0.1,0,0.1,0,0.2,0
			c0.1,0,0.1-0.1,0.1-0.2v-1.9c0-0.2-0.1-0.4-0.3-0.4C51.3,41.8,51,41.8,50.6,41.8z"/>
	</g>
	<g>
		<path class="st0" d="M60.1,41.7c1.3,0,2.5,0.5,3.5,1.4c0.9,1,1.4,2.1,1.4,3.6s-0.5,2.5-1.4,3.6c-1,1-2.1,1.4-3.6,1.4
			s-2.5-0.5-3.6-1.4c-1-0.9-1.4-2.2-1.4-3.6c0-1.4,0.5-2.5,1.5-3.6S58.7,41.7,60.1,41.7z M60.1,44.4c-0.6,0-1.1,0.2-1.5,0.6
			c-0.4,0.4-0.6,0.9-0.6,1.5s0.2,1.1,0.6,1.5s0.9,0.6,1.5,0.6s1.1-0.2,1.5-0.6c0.4-0.4,0.6-0.9,0.6-1.5s-0.2-1.1-0.6-1.5
			C61.1,44.6,60.6,44.4,60.1,44.4z"/>
		<path class="st0" d="M60.1,51.8c-1.4,0-2.6-0.5-3.7-1.5c-1-1-1.5-2.2-1.5-3.7c0-1.4,0.5-2.6,1.5-3.7c1-1,2.2-1.5,3.7-1.5
			c1.4,0,2.5,0.5,3.6,1.5c1,1,1.5,2.2,1.5,3.6c0,1.4-0.5,2.6-1.5,3.7C62.6,51.2,61.4,51.8,60.1,51.8z M60.1,41.8
			c-1.4,0-2.5,0.5-3.6,1.4c-0.9,0.9-1.4,2.1-1.4,3.5c0,1.3,0.5,2.5,1.4,3.5c0.9,0.9,2.1,1.4,3.5,1.4c1.3,0,2.5-0.5,3.5-1.4
			s1.4-2.1,1.4-3.5c0-1.3-0.5-2.5-1.4-3.5C62.6,42.2,61.4,41.8,60.1,41.8z M60.1,48.9c-0.6,0-1.1-0.2-1.5-0.7
			c-0.4-0.4-0.6-1-0.6-1.6s0.2-1.2,0.6-1.6c0.4-0.4,0.9-0.7,1.5-0.7s1.1,0.2,1.5,0.7c0.4,0.4,0.6,1,0.6,1.6s-0.2,1.2-0.6,1.6
			C61.2,48.7,60.7,48.9,60.1,48.9z M60.1,44.5c-0.5,0-1,0.2-1.4,0.6c-0.4,0.4-0.6,0.9-0.6,1.5s0.2,1.1,0.6,1.5
			c0.4,0.4,0.8,0.6,1.4,0.6c0.6,0,1-0.2,1.4-0.6c0.4-0.4,0.6-0.9,0.6-1.5s-0.2-1.1-0.6-1.5C61.1,44.8,60.6,44.5,60.1,44.5z"/>
	</g>
</g>
</svg>
