<?xml version="1.0" encoding="utf-8"?>
<!-- Generator: Adobe Illustrator 23.0.0, SVG Export Plug-In . SVG Version: 6.00 Build 0)  -->
<svg version="1.1" id="Layer_1" xmlns="http://www.w3.org/2000/svg" xmlns:xlink="http://www.w3.org/1999/xlink" x="0px" y="0px"
	 viewBox="0 0 815 490" style="enable-background:new 0 0 815 490;" xml:space="preserve">
<style type="text/css">
	.st0{fill:#A52861;}
	.st1{fill:#FF4B93;}
	.st2{fill:#1F1521;}
	.st3{fill:#FFC0DA;}
	.st4{fill:#721C4B;}
	.st5{fill:#E3E6FC;}
	.st6{fill:url(#SVGID_1_);}
	.st7{fill:#FFD008;}
	.st8{fill:#FFF9DE;}
	.st9{fill:url(#SVGID_2_);}
	.st10{fill:url(#SVGID_3_);}
	.st11{fill:url(#SVGID_4_);}
	.st12{fill:url(#SVGID_5_);}
	.st13{fill:url(#SVGID_6_);} 
	.st14{fill:url(#SVGID_7_);}
	.st15{fill:#E0E2FF;}
	.st16{fill:#FFFFFF;}
	.st17{fill:#01E9FF;}
	.st18{opacity:0.28;fill:url(#SVGID_8_);enable-background:new    ;}
	.st19{fill:url(#SVGID_9_);}
	.st20{fill:#A0A5D8;}
	.st21{fill:url(#SVGID_10_);}
	.st22{fill:url(#SVGID_11_);}
	.st23{clip-path:url(#SVGID_13_);fill:#A0A5D8;}
	.st24{clip-path:url(#SVGID_15_);fill:#A0A5D8;}
	.st25{clip-path:url(#SVGID_17_);fill:#A0A5D8;}
	.st26{fill:#5773FF;}
	.st27{fill:#7B82AF;}
	.st28{fill:url(#SVGID_18_);}
	.st29{fill:#FFD2E6;}
	.st30{fill:#FFC9AB;}
	.st31{fill:#E9FFFF;}
	.st32{fill:url(#SVGID_19_);}
	.st33{opacity:0.7;}
	.st34{fill:url(#SVGID_20_);}
	.st35{fill:#9CA0B5;}
	.st36{fill:#F3F5FF;}
	.st37{opacity:0.76;fill:url(#SVGID_21_);enable-background:new    ;}
	.st38{opacity:0.73;}
	.st39{fill:url(#SVGID_22_);}
	.st40{fill:url(#SVGID_23_);}
	.st41{fill:url(#SVGID_24_);}
	.st42{fill:url(#SVGID_25_);}
	.st43{fill:url(#SVGID_26_);}
	.st44{fill:url(#SVGID_27_);}
	.st45{fill:url(#SVGID_28_);}
	.st46{fill:url(#SVGID_29_);}
	.st47{fill:url(#SVGID_30_);}
	.st48{fill:#F2F2F2;}
	.st49{fill:#CFD9FF;}
	.st50{opacity:0.28;fill:url(#SVGID_31_);enable-background:new    ;}
	.st51{fill:url(#SVGID_32_);}
	.st52{clip-path:url(#SVGID_34_);fill:#5773FF;}
	.st53{clip-path:url(#SVGID_36_);fill:#5773FF;}
	.st54{clip-path:url(#SVGID_38_);fill:#5874FF;}
	.st55{clip-path:url(#SVGID_40_);fill:#5975FF;}
	.st56{clip-path:url(#SVGID_42_);fill:#5A76FF;}
	.st57{clip-path:url(#SVGID_44_);fill:#5B77FF;}
	.st58{clip-path:url(#SVGID_46_);fill:#5C78FF;}
	.st59{clip-path:url(#SVGID_48_);fill:#5C79FF;}
	.st60{clip-path:url(#SVGID_50_);fill:#5D7AFF;}
	.st61{clip-path:url(#SVGID_52_);fill:#5E7BFF;}
	.st62{clip-path:url(#SVGID_54_);fill:#5F7CFF;}
	.st63{clip-path:url(#SVGID_56_);fill:#607DFF;}
	.st64{clip-path:url(#SVGID_58_);fill:#617EFF;}
	.st65{clip-path:url(#SVGID_60_);fill:#627FFF;}
	.st66{clip-path:url(#SVGID_62_);fill:#6380FF;}
	.st67{clip-path:url(#SVGID_64_);fill:#6481FF;}
	.st68{clip-path:url(#SVGID_66_);fill:#6582FF;}
	.st69{clip-path:url(#SVGID_68_);fill:#6584FF;}
	.st70{clip-path:url(#SVGID_70_);fill:#6685FF;}
	.st71{clip-path:url(#SVGID_72_);fill:#6786FF;}
	.st72{clip-path:url(#SVGID_74_);fill:#6887FF;}
	.st73{clip-path:url(#SVGID_76_);fill:#6988FF;}
	.st74{clip-path:url(#SVGID_78_);fill:#6A89FF;}
	.st75{clip-path:url(#SVGID_80_);fill:#6B8AFF;}
	.st76{clip-path:url(#SVGID_82_);fill:#6C8BFF;}
	.st77{clip-path:url(#SVGID_84_);fill:#6D8CFF;}
	.st78{clip-path:url(#SVGID_86_);fill:#6E8DFF;}
	.st79{clip-path:url(#SVGID_88_);fill:#6E8EFF;}
	.st80{clip-path:url(#SVGID_90_);fill:#6F8FFF;}
	.st81{clip-path:url(#SVGID_92_);fill:#7090FF;}
	.st82{clip-path:url(#SVGID_94_);fill:#7191FF;}
	.st83{clip-path:url(#SVGID_96_);fill:#7292FF;}
	.st84{clip-path:url(#SVGID_98_);fill:#7393FF;}
	.st85{clip-path:url(#SVGID_100_);fill:#7393FF;}
	.st86{fill:#C3C6DD;}
	.st87{fill:url(#SVGID_101_);}
	.st88{fill:url(#SVGID_102_);}
	.st89{fill:url(#SVGID_103_);}
	.st90{fill:#C1DEFF;}
	.st91{clip-path:url(#SVGID_105_);fill:#5773FF;}
	.st92{clip-path:url(#SVGID_107_);fill:#5773FF;}
	.st93{clip-path:url(#SVGID_109_);fill:#5874FF;}
	.st94{clip-path:url(#SVGID_111_);fill:#5975FF;}
	.st95{clip-path:url(#SVGID_113_);fill:#5A76FF;}
	.st96{clip-path:url(#SVGID_115_);fill:#5B77FF;}
	.st97{clip-path:url(#SVGID_117_);fill:#5C78FF;}
	.st98{clip-path:url(#SVGID_119_);fill:#5C79FF;}
	.st99{clip-path:url(#SVGID_121_);fill:#5D7AFF;}
	.st100{clip-path:url(#SVGID_123_);fill:#5E7BFF;}
	.st101{clip-path:url(#SVGID_125_);fill:#5F7CFF;}
	.st102{clip-path:url(#SVGID_127_);fill:#607DFF;}
	.st103{clip-path:url(#SVGID_129_);fill:#617EFF;}
	.st104{clip-path:url(#SVGID_131_);fill:#627FFF;}
	.st105{clip-path:url(#SVGID_133_);fill:#6380FF;}
	.st106{clip-path:url(#SVGID_135_);fill:#6481FF;}
	.st107{clip-path:url(#SVGID_137_);fill:#6582FF;}
	.st108{clip-path:url(#SVGID_139_);fill:#6584FF;}
	.st109{clip-path:url(#SVGID_141_);fill:#6685FF;}
	.st110{clip-path:url(#SVGID_143_);fill:#6786FF;}
	.st111{clip-path:url(#SVGID_145_);fill:#6887FF;}
	.st112{clip-path:url(#SVGID_147_);fill:#6988FF;}
	.st113{clip-path:url(#SVGID_149_);fill:#6A89FF;}
	.st114{clip-path:url(#SVGID_151_);fill:#6B8AFF;}
	.st115{clip-path:url(#SVGID_153_);fill:#6C8BFF;}
	.st116{clip-path:url(#SVGID_155_);fill:#6D8CFF;}
	.st117{clip-path:url(#SVGID_157_);fill:#6E8DFF;}
	.st118{clip-path:url(#SVGID_159_);fill:#6E8EFF;}
	.st119{clip-path:url(#SVGID_161_);fill:#6F8FFF;}
	.st120{clip-path:url(#SVGID_163_);fill:#7090FF;}
	.st121{clip-path:url(#SVGID_165_);fill:#7191FF;}
	.st122{clip-path:url(#SVGID_167_);fill:#7292FF;}
	.st123{clip-path:url(#SVGID_169_);fill:#7393FF;}
	.st124{clip-path:url(#SVGID_171_);fill:#7393FF;}
	.st125{fill:url(#SVGID_172_);}
	.st126{fill:url(#SVGID_173_);}
	.st127{fill:url(#SVGID_174_);}
	.st128{fill:url(#SVGID_175_);}
	.st129{fill:#FBE568;}
	.st130{fill:#EC9A22;}
	.st131{fill:#9E8105;}
	.st132{fill:url(#SVGID_176_);}
	.st133{fill:url(#SVGID_177_);}
	.st134{opacity:0.28;fill:url(#SVGID_178_);enable-background:new    ;}
	.st135{fill:url(#SVGID_179_);}
	.st136{fill:url(#SVGID_180_);}
	.st137{fill:url(#SVGID_181_);}
	.st138{fill:url(#SVGID_182_);}
	.st139{fill:#FFB6D4;}
	.st140{fill:#DDACC4;}
	.st141{opacity:0.76;fill:url(#SVGID_183_);enable-background:new    ;}
	.st142{opacity:0.76;fill:url(#SVGID_184_);enable-background:new    ;}
	.st143{opacity:0.39;enable-background:new    ;}
	.st144{opacity:0.76;fill:url(#SVGID_185_);enable-background:new    ;}
	.st145{opacity:0.76;fill:url(#SVGID_186_);enable-background:new    ;}
	.st146{opacity:0.76;fill:url(#SVGID_187_);enable-background:new    ;}
	.st147{opacity:0.76;fill:url(#SVGID_188_);enable-background:new    ;}
	.st148{fill:url(#SVGID_189_);}
	.st149{fill:url(#SVGID_190_);}
	.st150{fill:url(#SVGID_191_);}
	.st151{fill:url(#SVGID_192_);}
	.st152{fill:url(#SVGID_193_);}
	.st153{clip-path:url(#SVGID_195_);fill:#5773FF;}
	.st154{clip-path:url(#SVGID_197_);fill:#5773FF;}
	.st155{clip-path:url(#SVGID_199_);fill:#5874FF;}
	.st156{clip-path:url(#SVGID_201_);fill:#5975FF;}
	.st157{clip-path:url(#SVGID_203_);fill:#5A76FF;}
	.st158{clip-path:url(#SVGID_205_);fill:#5B77FF;}
	.st159{clip-path:url(#SVGID_207_);fill:#5C78FF;}
	.st160{clip-path:url(#SVGID_209_);fill:#5C79FF;}
	.st161{clip-path:url(#SVGID_211_);fill:#5D7AFF;}
	.st162{clip-path:url(#SVGID_213_);fill:#5E7BFF;}
	.st163{clip-path:url(#SVGID_215_);fill:#5F7CFF;}
	.st164{clip-path:url(#SVGID_217_);fill:#607DFF;}
	.st165{clip-path:url(#SVGID_219_);fill:#617EFF;}
	.st166{clip-path:url(#SVGID_221_);fill:#627FFF;}
	.st167{clip-path:url(#SVGID_223_);fill:#6380FF;}
	.st168{clip-path:url(#SVGID_225_);fill:#6481FF;}
	.st169{clip-path:url(#SVGID_227_);fill:#6582FF;}
	.st170{clip-path:url(#SVGID_229_);fill:#6584FF;}
	.st171{clip-path:url(#SVGID_231_);fill:#6685FF;}
	.st172{clip-path:url(#SVGID_233_);fill:#6786FF;}
	.st173{clip-path:url(#SVGID_235_);fill:#6887FF;}
	.st174{clip-path:url(#SVGID_237_);fill:#6988FF;}
	.st175{clip-path:url(#SVGID_239_);fill:#6A89FF;}
	.st176{clip-path:url(#SVGID_241_);fill:#6B8AFF;}
	.st177{clip-path:url(#SVGID_243_);fill:#6C8BFF;}
	.st178{clip-path:url(#SVGID_245_);fill:#6D8CFF;}
	.st179{clip-path:url(#SVGID_247_);fill:#6E8DFF;}
	.st180{clip-path:url(#SVGID_249_);fill:#6E8EFF;}
	.st181{clip-path:url(#SVGID_251_);fill:#6F8FFF;}
	.st182{clip-path:url(#SVGID_253_);fill:#7090FF;}
	.st183{clip-path:url(#SVGID_255_);fill:#7191FF;}
	.st184{clip-path:url(#SVGID_257_);fill:#7292FF;}
	.st185{clip-path:url(#SVGID_259_);fill:#7393FF;}
	.st186{clip-path:url(#SVGID_261_);fill:#7393FF;}
	.st187{clip-path:url(#SVGID_263_);fill:#5773FF;}
	.st188{clip-path:url(#SVGID_265_);fill:#5874FF;}
	.st189{clip-path:url(#SVGID_267_);fill:#5975FF;}
	.st190{clip-path:url(#SVGID_269_);fill:#5A76FF;}
	.st191{clip-path:url(#SVGID_271_);fill:#5B77FF;}
	.st192{clip-path:url(#SVGID_273_);fill:#5C78FF;}
	.st193{clip-path:url(#SVGID_275_);fill:#5C79FF;}
	.st194{clip-path:url(#SVGID_277_);fill:#5D7AFF;}
	.st195{clip-path:url(#SVGID_279_);fill:#5E7BFF;}
	.st196{clip-path:url(#SVGID_281_);fill:#5F7CFF;}
	.st197{clip-path:url(#SVGID_283_);fill:#607DFF;}
	.st198{clip-path:url(#SVGID_285_);fill:#617EFF;}
	.st199{clip-path:url(#SVGID_287_);fill:#627FFF;}
	.st200{clip-path:url(#SVGID_289_);fill:#6380FF;}
	.st201{clip-path:url(#SVGID_291_);fill:#6481FF;}
	.st202{clip-path:url(#SVGID_293_);fill:#6582FF;}
	.st203{clip-path:url(#SVGID_295_);fill:#6584FF;}
	.st204{clip-path:url(#SVGID_297_);fill:#6685FF;}
	.st205{clip-path:url(#SVGID_299_);fill:#6786FF;}
	.st206{clip-path:url(#SVGID_301_);fill:#6887FF;}
	.st207{clip-path:url(#SVGID_303_);fill:#6988FF;}
	.st208{clip-path:url(#SVGID_305_);fill:#6A89FF;}
	.st209{clip-path:url(#SVGID_307_);fill:#6B8AFF;}
	.st210{clip-path:url(#SVGID_309_);fill:#6C8BFF;}
	.st211{clip-path:url(#SVGID_311_);fill:#6D8CFF;}
	.st212{clip-path:url(#SVGID_313_);fill:#6E8DFF;}
	.st213{clip-path:url(#SVGID_315_);fill:#6E8EFF;}
	.st214{clip-path:url(#SVGID_317_);fill:#6F8FFF;}
	.st215{clip-path:url(#SVGID_319_);fill:#7090FF;}
	.st216{clip-path:url(#SVGID_321_);fill:#7191FF;}
	.st217{clip-path:url(#SVGID_323_);fill:#7292FF;}
	.st218{clip-path:url(#SVGID_325_);fill:#7393FF;}
	.st219{clip-path:url(#SVGID_327_);fill:#7393FF;}
	.st220{clip-path:url(#SVGID_329_);fill:#5773FF;}
	.st221{clip-path:url(#SVGID_331_);fill:#5773FF;}
	.st222{clip-path:url(#SVGID_333_);fill:#5874FF;}
	.st223{clip-path:url(#SVGID_335_);fill:#5975FF;}
	.st224{clip-path:url(#SVGID_337_);fill:#5A76FF;}
	.st225{clip-path:url(#SVGID_339_);fill:#5B77FF;}
	.st226{clip-path:url(#SVGID_341_);fill:#5C78FF;}
	.st227{clip-path:url(#SVGID_343_);fill:#5C79FF;}
	.st228{clip-path:url(#SVGID_345_);fill:#5D7AFF;}
	.st229{clip-path:url(#SVGID_347_);fill:#5E7BFF;}
	.st230{clip-path:url(#SVGID_349_);fill:#5F7CFF;}
	.st231{clip-path:url(#SVGID_351_);fill:#607DFF;}
	.st232{clip-path:url(#SVGID_353_);fill:#617EFF;}
	.st233{clip-path:url(#SVGID_355_);fill:#627FFF;}
	.st234{clip-path:url(#SVGID_357_);fill:#6380FF;}
	.st235{clip-path:url(#SVGID_359_);fill:#6481FF;}
	.st236{clip-path:url(#SVGID_361_);fill:#6582FF;}
	.st237{clip-path:url(#SVGID_363_);fill:#6584FF;}
	.st238{clip-path:url(#SVGID_365_);fill:#6685FF;}
	.st239{clip-path:url(#SVGID_367_);fill:#6786FF;}
	.st240{clip-path:url(#SVGID_369_);fill:#6887FF;}
	.st241{clip-path:url(#SVGID_371_);fill:#6988FF;}
	.st242{clip-path:url(#SVGID_373_);fill:#6A89FF;}
	.st243{clip-path:url(#SVGID_375_);fill:#6B8AFF;}
	.st244{clip-path:url(#SVGID_377_);fill:#6C8BFF;}
	.st245{clip-path:url(#SVGID_379_);fill:#6D8CFF;}
	.st246{clip-path:url(#SVGID_381_);fill:#6E8DFF;}
	.st247{clip-path:url(#SVGID_383_);fill:#6E8EFF;}
	.st248{clip-path:url(#SVGID_385_);fill:#6F8FFF;}
	.st249{clip-path:url(#SVGID_387_);fill:#7090FF;}
	.st250{clip-path:url(#SVGID_389_);fill:#7191FF;}
	.st251{clip-path:url(#SVGID_391_);fill:#7292FF;}
	.st252{clip-path:url(#SVGID_393_);fill:#7393FF;}
	.st253{clip-path:url(#SVGID_395_);fill:#7393FF;}
	.st254{fill:url(#SVGID_396_);}
	.st255{fill:url(#SVGID_397_);}
	.st256{opacity:0.76;fill:url(#SVGID_398_);enable-background:new    ;}
	.st257{opacity:0.76;fill:url(#SVGID_399_);enable-background:new    ;}
	.st258{fill:url(#SVGID_400_);}
	.st259{opacity:0.76;fill:url(#SVGID_401_);enable-background:new    ;}
	.st260{opacity:0.76;fill:url(#SVGID_402_);enable-background:new    ;}
	.st261{opacity:0.76;fill:url(#SVGID_403_);enable-background:new    ;}
	.st262{opacity:0.76;fill:url(#SVGID_404_);enable-background:new    ;}
	.st263{enable-background:new    ;}
	.st264{clip-path:url(#SVGID_406_);enable-background:new    ;}
	.st265{clip-path:url(#SVGID_408_);enable-background:new    ;}
	.st266{clip-path:url(#SVGID_410_);enable-background:new    ;}
	.st267{clip-path:url(#SVGID_412_);enable-background:new    ;}
	.st268{clip-path:url(#SVGID_414_);enable-background:new    ;}
	.st269{clip-path:url(#SVGID_416_);enable-background:new    ;}
	.st270{clip-path:url(#SVGID_418_);enable-background:new    ;}
	.st271{clip-path:url(#SVGID_420_);enable-background:new    ;}
	.st272{clip-path:url(#SVGID_422_);enable-background:new    ;}
	.st273{clip-path:url(#SVGID_424_);enable-background:new    ;}
	.st274{clip-path:url(#SVGID_426_);enable-background:new    ;}
	.st275{clip-path:url(#SVGID_428_);enable-background:new    ;}
	.st276{clip-path:url(#SVGID_430_);enable-background:new    ;}
	.st277{clip-path:url(#SVGID_432_);enable-background:new    ;}
	.st278{clip-path:url(#SVGID_434_);enable-background:new    ;}
	.st279{clip-path:url(#SVGID_436_);enable-background:new    ;}
	.st280{clip-path:url(#SVGID_438_);enable-background:new    ;}
	.st281{clip-path:url(#SVGID_440_);enable-background:new    ;}
	.st282{clip-path:url(#SVGID_442_);enable-background:new    ;}
	.st283{clip-path:url(#SVGID_444_);enable-background:new    ;}
	.st284{clip-path:url(#SVGID_446_);enable-background:new    ;}
	.st285{clip-path:url(#SVGID_448_);enable-background:new    ;}
	.st286{clip-path:url(#SVGID_450_);enable-background:new    ;}
	.st287{clip-path:url(#SVGID_452_);enable-background:new    ;}
	.st288{clip-path:url(#SVGID_454_);enable-background:new    ;}
	.st289{clip-path:url(#SVGID_456_);enable-background:new    ;}
	.st290{clip-path:url(#SVGID_458_);enable-background:new    ;}
	.st291{clip-path:url(#SVGID_460_);enable-background:new    ;}
	.st292{clip-path:url(#SVGID_462_);enable-background:new    ;}
	.st293{clip-path:url(#SVGID_464_);enable-background:new    ;}
	.st294{clip-path:url(#SVGID_466_);enable-background:new    ;}
	.st295{clip-path:url(#SVGID_468_);enable-background:new    ;}
	.st296{clip-path:url(#SVGID_470_);enable-background:new    ;}
	.st297{clip-path:url(#SVGID_472_);enable-background:new    ;}
	.st298{clip-path:url(#SVGID_474_);enable-background:new    ;}
	.st299{clip-path:url(#SVGID_476_);enable-background:new    ;}
	.st300{clip-path:url(#SVGID_478_);enable-background:new    ;}
	.st301{clip-path:url(#SVGID_480_);enable-background:new    ;}
	.st302{clip-path:url(#SVGID_482_);enable-background:new    ;}
	.st303{clip-path:url(#SVGID_484_);enable-background:new    ;}
	.st304{clip-path:url(#SVGID_486_);enable-background:new    ;}
	.st305{clip-path:url(#SVGID_488_);enable-background:new    ;}
	.st306{clip-path:url(#SVGID_490_);enable-background:new    ;}
	.st307{clip-path:url(#SVGID_492_);enable-background:new    ;}
	.st308{clip-path:url(#SVGID_494_);enable-background:new    ;}
	.st309{clip-path:url(#SVGID_496_);enable-background:new    ;}
	.st310{clip-path:url(#SVGID_498_);enable-background:new    ;}
	.st311{clip-path:url(#SVGID_500_);enable-background:new    ;}
	.st312{clip-path:url(#SVGID_502_);enable-background:new    ;}
	.st313{clip-path:url(#SVGID_504_);enable-background:new    ;}
	.st314{clip-path:url(#SVGID_506_);enable-background:new    ;}
	.st315{clip-path:url(#SVGID_508_);enable-background:new    ;}
	.st316{clip-path:url(#SVGID_510_);enable-background:new    ;}
	.st317{fill:#150F17;}
	.st318{fill:#100B11;}
	.st319{clip-path:url(#SVGID_512_);enable-background:new    ;}
	.st320{fill:#140D15;}
	.st321{fill:#130D14;}
	.st322{fill:#120C13;}
	.st323{fill:#110C12;}
	.st324{fill:#110B12;}
	.st325{clip-path:url(#SVGID_514_);enable-background:new    ;}
	.st326{fill:#9B9DB1;}
	.st327{clip-path:url(#SVGID_516_);enable-background:new    ;}
	.st328{fill:#868899;}
	.st329{clip-path:url(#SVGID_518_);enable-background:new    ;}
	.st330{fill:#8F91A3;}
	.st331{fill:#8B8C9E;}
	.st332{fill:#828394;}
	.st333{clip-path:url(#SVGID_520_);enable-background:new    ;}
	.st334{clip-path:url(#SVGID_522_);enable-background:new    ;}
	.st335{clip-path:url(#SVGID_524_);enable-background:new    ;}
	.st336{fill:#747685;}
	.st337{fill:#797A8A;}
	.st338{fill:#7D7F8F;}
	.st339{clip-path:url(#SVGID_526_);enable-background:new    ;}
	.st340{fill:#160F17;}
	.st341{clip-path:url(#SVGID_528_);enable-background:new    ;}
	.st342{clip-path:url(#SVGID_530_);enable-background:new    ;}
	.st343{clip-path:url(#SVGID_532_);enable-background:new    ;}
	.st344{clip-path:url(#SVGID_534_);enable-background:new    ;}
	.st345{clip-path:url(#SVGID_536_);enable-background:new    ;}
	.st346{clip-path:url(#SVGID_538_);enable-background:new    ;}
	.st347{clip-path:url(#SVGID_540_);enable-background:new    ;}
	.st348{fill:#1C131E;}
	.st349{clip-path:url(#SVGID_542_);enable-background:new    ;}
	.st350{clip-path:url(#SVGID_544_);enable-background:new    ;}
	.st351{clip-path:url(#SVGID_546_);enable-background:new    ;}
	.st352{clip-path:url(#SVGID_548_);enable-background:new    ;}
	.st353{clip-path:url(#SVGID_550_);enable-background:new    ;}
	.st354{clip-path:url(#SVGID_552_);enable-background:new    ;}
	.st355{clip-path:url(#SVGID_554_);enable-background:new    ;}
	.st356{clip-path:url(#SVGID_556_);enable-background:new    ;}
	.st357{clip-path:url(#SVGID_558_);enable-background:new    ;}
	.st358{fill:#707180;}
	.st359{clip-path:url(#SVGID_560_);enable-background:new    ;}
	.st360{clip-path:url(#SVGID_562_);enable-background:new    ;}
	.st361{clip-path:url(#SVGID_564_);enable-background:new    ;}
	.st362{clip-path:url(#SVGID_566_);enable-background:new    ;}
	.st363{clip-path:url(#SVGID_568_);enable-background:new    ;}
	.st364{clip-path:url(#SVGID_570_);enable-background:new    ;}
	.st365{clip-path:url(#SVGID_572_);enable-background:new    ;}
	.st366{clip-path:url(#SVGID_574_);enable-background:new    ;}
	.st367{clip-path:url(#SVGID_576_);enable-background:new    ;}
	.st368{fill:#717281;}
	.st369{clip-path:url(#SVGID_578_);enable-background:new    ;}
	.st370{clip-path:url(#SVGID_580_);enable-background:new    ;}
	.st371{clip-path:url(#SVGID_582_);enable-background:new    ;}
	.st372{clip-path:url(#SVGID_584_);enable-background:new    ;}
	.st373{clip-path:url(#SVGID_586_);enable-background:new    ;}
	.st374{clip-path:url(#SVGID_588_);enable-background:new    ;}
	.st375{clip-path:url(#SVGID_590_);enable-background:new    ;}
	.st376{clip-path:url(#SVGID_592_);enable-background:new    ;}
	.st377{clip-path:url(#SVGID_594_);enable-background:new    ;}
	.st378{clip-path:url(#SVGID_596_);enable-background:new    ;}
	.st379{clip-path:url(#SVGID_598_);enable-background:new    ;}
	.st380{clip-path:url(#SVGID_600_);enable-background:new    ;}
	.st381{clip-path:url(#SVGID_602_);enable-background:new    ;}
	.st382{clip-path:url(#SVGID_604_);enable-background:new    ;}
	.st383{clip-path:url(#SVGID_606_);enable-background:new    ;}
	.st384{clip-path:url(#SVGID_608_);enable-background:new    ;}
	.st385{clip-path:url(#SVGID_610_);enable-background:new    ;}
	.st386{clip-path:url(#SVGID_612_);enable-background:new    ;}
	.st387{clip-path:url(#SVGID_614_);enable-background:new    ;}
	.st388{fill:#CCCEE8;}
	.st389{clip-path:url(#SVGID_616_);enable-background:new    ;}
	
</style>
<g>
	<g>
	<g>
		<polygon class="st0" points="482.5,31.7 483.4,40.4 486.1,65 498.2,76.4 498.7,76.9 498.6,77.2 490.1,104.4 487.7,112.3 
			506.5,90.1 		"/>
	</g>
	<g>
		<path class="st1" d="M498.6,77.2l-8.4,27.1l6.9-8.1c4-4.7,5-10.7,2.7-16.2L498.6,77.2z"/>
	</g>
	<g>
		<path class="st1" d="M484.2,47.6l1.9,17.5l12.1,11.4l-12-29.2C485.8,46.2,484.1,46.5,484.2,47.6z"/>
	</g>
	<g>
		<polygon class="st0" points="488.4,111 490.1,104.4 505.5,91.3 488,111.9 		"/>
	</g>
	<g>
		<path class="st2" d="M487.5,112.7c-0.2-0.1-0.3-0.3-0.3-0.5L498.1,77l-12.4-11.6c-0.1-0.1-0.1-0.2-0.1-0.3l-3.7-33.4
			c0-0.2,0.2-0.5,0.5-0.5c0.2,0,0.4,0.1,0.5,0.3l24,58.4c0.1,0.1,0,0.3-0.1,0.4L488,112.5c-0.1,0.1-0.2,0.2-0.4,0.2H487.5z
			 M483.4,35.2l3.3,29.6l12.4,11.7c0.1,0.1,0.2,0.3,0.1,0.4L488.9,110l17-20.1L483.4,35.2z"/>
	</g>
	<g>
		<polygon class="st3" points="446.1,90 474,128.3 476.1,125.6 484.8,114.7 490.1,78.9 478.9,62.9 477.8,20.5 477.4,19.5 
			476.2,16.4 		"/>
	</g>
	<g>
		<path class="st1" d="M454.6,75.4c-3.4,8.4-2.2,17.7,3.3,25.3l3.6,4.9l14.7,20.1l8.7-11l3.2-21.8c1.4-9.1-0.9-18.2-6.3-26l-2.8-4
			l-1-42.4l0,0c-0.1-0.2-0.3-0.3-0.6-0.2c-0.1,0-0.2,0.1-0.3,0.2L454.6,75.4z"/>
	</g>
	<g>
		<polygon class="st4" points="447.3,91.3 473.4,127.5 473.4,126.1 472.4,122.2 470.1,114.1 457.1,101.1 		"/>
	</g>
	<g>
		<polygon class="st0" points="457.1,101.1 472.4,122.2 470.1,114.1 		"/>
	</g>
	<g>
		<polygon class="st4" points="470.9,114.6 473.9,127.9 484.6,115.3 485.4,110.4 485.9,107.4 472.6,113.7 		"/>
	</g>
	<g>
		<path class="st0" d="M471.1,114.6l0.8,5.4c0.4,1.6,4.5,0.9,5.6-0.4l7.9-9.3l0.5-5.3L471.1,114.6z"/>
	</g>
	<g>
		<path class="st2" d="M474,128.7c-0.2,0-0.3-0.1-0.4-0.2l-27.9-38.2l0,0c-0.1-0.1-0.1-0.2-0.1-0.3l0,0c0,0,0,0,0-0.1l0,0l0,0
			l30.1-73.6c0.1-0.2,0.3-0.3,0.5-0.3l0,0c0.2,0,0.4,0.1,0.5,0.3l1.7,4v0.1l1,42.3l11.2,16c0.1,0.1,0.1,0.2,0.1,0.3l-5.3,35.7
			c0,0.1,0,0.1-0.1,0.2l-10.8,13.6C474.3,128.6,474.1,128.7,474,128.7L474,128.7z M489.6,79l-11.1-15.9c0-0.1-0.1-0.1-0.1-0.2
			l-1-42.3l-1.1-2.8L446.8,90l24.5,24.7c0.2,0.2,0.2,0.5-0.1,0.6c-0.2,0.2-0.5,0.1-0.7,0L450.3,95l23.7,32.5l10.3-13L489.6,79z"/>
	</g>
	<g>
		<path class="st2" d="M474,128.7c-0.2,0-0.5-0.1-0.5-0.4l-3.2-13.3v-0.1l5.4-98.1c0-0.2,0.2-0.4,0.5-0.4s0.5,0.2,0.5,0.5l-5.4,98
			l3.2,13.3c0.1,0.2-0.1,0.5-0.4,0.5C474,128.7,474,128.7,474,128.7z"/>
	</g>
	<g>
		<path class="st2" d="M471.1,115.1c-0.2,0-0.3-0.1-0.4-0.2c-0.2-0.2-0.1-0.5,0.1-0.6l15.1-9.9c0.2-0.1,0.5-0.1,0.7,0.1
			s0.1,0.5-0.1,0.6l-15.1,9.9C471.3,115.1,471.2,115.1,471.1,115.1z"/>
	</g>
	<g>
		<path class="st2" d="M491,102.1c-0.1,0-0.3-0.1-0.4-0.2c-0.2-0.2-0.2-0.5,0.1-0.6l15.5-11.5c0.2-0.2,0.5-0.1,0.7,0
			c0.2,0.2,0.2,0.5-0.1,0.6l-15.5,11.5C491.2,102,491.1,102.1,491,102.1z"/>
	</g>
	<g>
		<path class="st2" d="M448,86.7c0,0-1.3,3.3,3.8,8.5l-4-3.3l-1.8-2.2L448,86.7z"/>
	</g>
	<g>
		<path class="st2" d="M471.5,119.9c0,0,1.2,4.1-2.1,1.2l4.4,6.9C473.7,127.9,472.2,119.8,471.5,119.9z"/>
	</g>
	<g>
		<path class="st2" d="M473,122.2c0,0,0.4,3.8,3.2,2.4l-1.2,2.3l-0.4,0.8l-1.6-1l-1.1-3.3L473,122.2z"/>
	</g>
	<g>
		<path class="st2" d="M490.1,106.1c0,0,0.7,1.7,2.7-0.7l-3.1,4.6l-1.3,1.2v-2.1L490.1,106.1z"/>
	</g>
	<g>
		<path class="st2" d="M485.2,39.6c0,0-1.2-1.5-1.3,0.5l-0.8-1.7l-0.3-4.4l1.6,2.5L485.2,39.6z"/>
	</g>
	<g>
		<path class="st2" d="M476.3,22.5c0,0,0.4-2.1,1.1,0.8l0.3-3.1l-1.3-2.7l-0.6,1L476.3,22.5z"/>
	</g>
	<g>
		<path class="st2" d="M474.2,22.8c0,0,0.8-1.9,1,1.4l0.5-3.5l-0.3-2l-1,1.7L474.2,22.8z"/>
	</g>
	<g>
		<path class="st2" d="M471.5,110.4c0,0-0.8,3.9,2.4,2.3l-2.5,1.6l-0.5-0.3l0.4-4.1L471.5,110.4z"/>
	</g>
	<g>
		<path class="st2" d="M470.5,110.4c0,0-0.3,3.4-2.4,1.2l1.6,2l1.2,0.8v-2.5L470.5,110.4z"/>
	</g>
</g>
</g>
</svg>