<?xml version="1.0" encoding="utf-8"?>
<!-- Generator: Adobe Illustrator 23.0.0, SVG Export Plug-In . SVG Version: 6.00 Build 0)  -->
<svg version="1.1" id="Layer_1" xmlns="http://www.w3.org/2000/svg" xmlns:xlink="http://www.w3.org/1999/xlink" x="0px" y="0px"
	 viewBox="0 0 158.4 149.7" style="enable-background:new 0 0 158.4 149.7;" xml:space="preserve">
<style type="text/css">
	.st0{fill:#F5F5F5;}
	.st1{fill:#29023F;}
	.st2{fill:#FCD200;}
</style>
<g>
	<g transform="translate(513 2476)">
		<g>
			<path id="Path_8669" class="st0" d="M-473.8-2341c-15.3-7.7-31.7-21.7-37-38c-3.5-11.5-2.8-23.9,2-35c14-31,35-7,57-20
				s26-42,51-42s33.3,16.1,43,42C-345.8-2402-363.8-2285.6-473.8-2341z"/>
		</g>
	</g>
	<g id="Group_9534" transform="translate(146.383 2)">
		<circle id="Ellipse_1094" class="st1" cx="-74.4" cy="7.5" r="1.9"/>
	</g>
	<g id="Group_9536" transform="translate(153.876 133.967)">
		<circle id="Ellipse_1096" class="st1" cx="-74.4" cy="7.5" r="1.9"/>
	</g>
	<g id="Group_9537" transform="translate(178.808 27.732)">
		<circle id="Ellipse_1097" class="st1" cx="-74.4" cy="7.5" r="1.9"/>
	</g>
	<g id="Group_9538" transform="translate(176.941 91.996)">
		<circle id="Ellipse_1098" class="st1" cx="-74.4" cy="7.5" r="1.9"/>
	</g>
	<g id="Group_9539" transform="translate(123.77 102.768)">
		<circle id="Ellipse_1099" class="st1" cx="-74.4" cy="7.5" r="1.9"/>
	</g>
	<g id="Group_9539_1_" transform="translate(123.77 102.768)">
		<circle id="Ellipse_1099_1_" class="st1" cx="-79.9" cy="-48.4" r="1.9"/>
	</g>
	<path class="st2" d="M102.9,53.6l-27.4,58.3l-6.4,13.6l9.7-51.1l-25,5.8c-0.6,0.1-1.3,0-1.7-0.5c-0.4-0.4-0.6-1.1-0.5-1.7
		l10.3-49.3h21.8l-11.5,32L102.9,53.6z"/>
	<g id="Group_9540" transform="translate(127.741 13.226)">
		<path class="st1" d="M-14.6,33.4L-57,123.1c-0.3,0.7-1,1.1-1.7,1.1c-0.2,0-0.4,0-0.6-0.1c-0.9-0.3-1.4-1.2-1.3-2.1l1.9-9.7
			l9.7-51.1l-25,5.8c-0.6,0.1-1.3,0-1.7-0.5c-0.4-0.4-0.6-1.1-0.5-1.7l10.3-49.3l1.8-8.4c0.2-0.9,1-1.5,1.8-1.5h27.1
			c0.6,0,1.2,0.3,1.5,0.8c0.3,0.5,0.4,1.2,0.2,1.7l-11.4,29.7l11.2-2.8c1-0.2,2,0.4,2.3,1.4c0.2,1-0.4,2-1.3,2.2l-14.7,3.7
			c-0.7,0.2-1.4-0.1-1.8-0.6c-0.5-0.5-0.6-1.3-0.4-1.9l11.7-30.5h-22.9l-1.3,6.1L-72,62.6l25-5.8c1-0.2,2,0.4,2.2,1.4
			c0,0.3,0.1,0.5,0,0.8l-7.5,39.6l-1.8,9.7l34.5-73l-5.1,1.3c-1,0.2-2-0.4-2.3-1.4c-0.2-1,0.4-2,1.3-2.2l9-2.2c1-0.2,2,0.4,2.3,1.4
			C-14.3,32.6-14.4,33.1-14.6,33.4z"/>
	</g>
</g>
</svg>
