<svg id="linkedin-logo" xmlns="http://www.w3.org/2000/svg" width="18.372" height="18.373" viewBox="0 0 18.372 18.373">
  <path id="LinkedIn__x28_alt_x29_" d="M17.018,0H1.359A1.337,1.337,0,0,0,0,1.316V17.056a1.338,1.338,0,0,0,1.357,1.317H17.018a1.337,1.337,0,0,0,1.357-1.317V1.316A1.337,1.337,0,0,0,17.018,0ZM5.572,15.379H2.8v-8.3H5.572ZM4.184,5.951H4.166A1.438,1.438,0,1,1,4.2,3.085a1.438,1.438,0,1,1-.018,2.866Zm11.394,9.428H12.8V10.941c0-1.115-.4-1.876-1.406-1.876a1.516,1.516,0,0,0-1.424,1.009,1.854,1.854,0,0,0-.093.672v4.633H7.107s.036-7.517,0-8.3H9.882V8.26a2.756,2.756,0,0,1,2.5-1.371c1.827,0,3.2,1.185,3.2,3.734ZM9.864,8.286l.018-.026v.026Z" transform="translate(-0.002 0)" fill="#29023f"/>
</svg>
