<svg xmlns="http://www.w3.org/2000/svg" width="32.998" height="54.911" viewBox="0 0 32.998 54.911">
  <g id="_3_CMYK" data-name="3_CMYK" transform="translate(-807.049 -284.599)">
    <g id="Group_5216" data-name="Group 5216" transform="translate(822.528 284.599)">
      <path id="Path_4294" data-name="Path 4294" d="M945.964,340.529l15.374-13.517L945.964,285.92l4.747,24.76-6.59,7.98Z" transform="translate(-943.971 -285.769)" fill="#29023f"/>
      <path id="Path_4295" data-name="Path 4295" d="M944.808,339.51a.136.136,0,0,1-.056-.011.152.152,0,0,1-.094-.128l-1.842-21.87a.15.15,0,0,1,.034-.108l6.545-7.925-4.734-24.689a.15.15,0,0,1,.107-.173.151.151,0,0,1,.182.092l15.374,41.093a.15.15,0,0,1-.042.167l-15.375,13.516A.15.15,0,0,1,944.808,339.51Zm-1.687-21.971,1.812,21.509L960,325.8l-14.71-39.322,4.411,23a.152.152,0,0,1-.032.124Z" transform="translate(-942.815 -284.599)" fill="#29023f"/>
    </g>
    <path id="Path_4296" data-name="Path 4296" d="M823.744,285.92,808.37,327.013l15.374,13.517-6.436-21.445,8.938-7.941Z" transform="translate(-1.171 -1.171)" fill="#29023f"/>
    <path id="Path_4297" data-name="Path 4297" d="M822.573,339.509a.148.148,0,0,1-.1-.038L807.1,325.956a.152.152,0,0,1-.042-.166L822.432,284.7a.151.151,0,0,1,.292.038l2.5,25.222a.151.151,0,0,1-.05.128l-8.866,7.877,6.408,21.353a.151.151,0,0,1-.063.17A.139.139,0,0,1,822.573,339.509Zm-15.2-13.712,14.9,13.1-6.283-20.94a.15.15,0,0,1,.044-.156l8.881-7.891-2.43-24.5Z" transform="translate(0)" fill="#29023f"/>
  </g>
</svg>
