<?xml version="1.0" encoding="utf-8"?>
<!-- Generator: Adobe Illustrator 23.0.0, SVG Export Plug-In . SVG Version: 6.00 Build 0)  -->
<svg version="1.1" id="Layer_1" xmlns="http://www.w3.org/2000/svg" xmlns:xlink="http://www.w3.org/1999/xlink" x="0px" y="0px"
	 viewBox="0 0 166.1 158.7" style="enable-background:new 0 0 166.1 158.7;" xml:space="preserve">
<style type="text/css">
	.st0{fill:#F5F5F5;}
	.st1{fill:#FFD008;}
	.st2{fill:#FA759E;}
	.st3{fill:#29023F;}
</style>
<g>
	<g transform="translate(1147.997 2464.001)">
		<g>
			<path id="Path_8671" class="st0" d="M-1127.1-2348.1c0,0-42-59-7-96s74-13,80-3s8,35,40,42s39,41,26,67
				S-1072.1-2275.1-1127.1-2348.1z"/>
		</g>
	</g>
	<polygon class="st1" points="77.8,66.4 88.1,66.8 91.2,72.1 88.3,77 91.5,82.6 88.4,87 77.8,87.3 	"/>
	<path class="st1" d="M111.9,135.3l-3,3c-0.6-0.4-0.9-1-0.9-1.8c0-1.2,1-2.1,2.1-2.1C110.9,134.3,111.5,134.7,111.9,135.3z"/>
	<path class="st2" d="M119.9,112l-33.1,34.3l-2.6-2.7l-27.1-28.2c-1.6-1.7-0.4-4.6,1.9-4.6h7.7c1.5,0,2.7-1.2,2.7-2.7L69.7,62
		c0-7.5,6.1-13.6,13.7-13.6h25.9l0,0v55.3c0,0.2,0.1,0.3,0.3,0.3h8.5c0.2,0,0.4,0,0.6,0v7.9L119.9,112L119.9,112z"/>
	<g id="Low_p" transform="translate(1093.4 2481.3)">
		<g id="Group_9525" transform="translate(130.788 44.313)">
			<path id="Path_8638" class="st3" d="M-1131.9-2445.1c-0.4-1.4-1.2-2.6-2.3-3.4c2-1.5,2.9-4,2.5-6.4c-0.5-2.5-2.3-4.4-4.7-5.1
				v-2.5c0-0.8-0.6-1.4-1.4-1.4s-1.4,0.6-1.4,1.4v2.3h-2.2v-2.3c0-0.8-0.6-1.4-1.4-1.4s-1.4,0.6-1.4,1.4v2.3h-2.5
				c-0.8,0-1.4,0.6-1.4,1.4v20.9c0,0.8,0.6,1.4,1.4,1.4h2.5v2.1c0,0.8,0.6,1.4,1.4,1.4s1.4-0.6,1.4-1.4v-2.1h2.2v2.1
				c0,0.8,0.6,1.4,1.4,1.4s1.4-0.6,1.4-1.4v-2.4C-1132.9-2438-1130.9-2441.6-1131.9-2445.1z M-1134.4-2443.3c0,2.1-1.7,3.9-3.9,3.9
				h-7v-7.7h7C-1136.1-2447.2-1134.4-2445.5-1134.4-2443.3L-1134.4-2443.3z M-1138.1-2449.9h-7.1v-7.7h7c2.1,0,3.9,1.7,3.9,3.8
				C-1134.3-2451.7-1136-2450-1138.1-2449.9z"/>
		</g>
		<g id="Group_9526" transform="translate(97.986 23.114)">
			<path class="st3" d="M-1069.3-2396.3c0,1-0.4,2-1.1,2.8l-1.1,1.1l-33.1,34.3l-0.8,0.9c-0.8,0.8-1.8,1.2-2.9,1.3l0,0
				c-1.1,0-2.1-0.4-2.9-1.2l-35.7-36.3c-1.6-1.6-1.5-4.1,0-5.7c0.8-0.7,1.8-1.2,2.8-1.2h9.3c0.2,0,0.3-0.1,0.3-0.3v-27.4
				c0-1,0.8-1.9,1.8-1.9s1.9,0.8,1.9,1.8v27.5c0,2.2-1.8,4-4,4h-9.3c-0.1,0-0.2,0.1-0.3,0.2c-0.1,0.1,0,0.2,0,0.3l35.7,36.3
				c0.1,0,0.1,0.1,0.2,0.1s0.2,0,0.2-0.1l1-1l34-35.3c0.1-0.1,0.1-0.2,0.1-0.3s-0.1-0.2-0.3-0.2h-8.5c-2.2,0-4-1.8-4-4v-54.8
				c0-0.2,0-0.3,0-0.5c-0.3-2.4-2.3-4.3-4.7-4.3h-35.2c-2.6,0-4.8,2.1-4.8,4.8v16.5c0,1-0.9,1.9-1.9,1.8c-1,0-1.8-0.8-1.8-1.8v-16.5
				c0-4.7,3.8-8.5,8.5-8.5h35.2c4.5,0,8.2,3.6,8.5,8c0,0.2,0,0.3,0,0.5v54.8c0,0.2,0.1,0.3,0.3,0.3h8.5c0.2,0,0.4,0,0.6,0.1
				C-1070.7-2400-1069.3-2398.3-1069.3-2396.3z"/>
		</g>
		<g id="Group_9527" transform="translate(130.574 96.266)">
			<path id="Path_8640" class="st3" d="M-1141.2-2464c-3.8,0-6.8,3-6.8,6.8s3.1,6.8,6.8,6.8c1.9,0,3.6-0.8,4.8-2s2-2.9,2-4.8
				C-1134.4-2461-1137.4-2464-1141.2-2464z M-1141.2-2453.6c-2,0-3.6-1.6-3.6-3.6s1.6-3.6,3.6-3.6l0,0c2,0,3.6,1.6,3.6,3.6
				S-1139.2-2453.6-1141.2-2453.6z"/>
		</g>
		<g id="Group_9528" transform="translate(94.6 15.914)">
			<circle id="Ellipse_1088" class="st3" cx="-1145.9" cy="-2461.9" r="2.1"/>
		</g>
		<g id="Group_9529" transform="translate(96.715 66.716)">
			<circle id="Ellipse_1089" class="st3" cx="-1145.9" cy="-2461.9" r="2.1"/>
		</g>
		<g id="Group_9530" transform="translate(136.81 1.3)">
			<circle id="Ellipse_1090" class="st3" cx="-1145.9" cy="-2461.9" r="2.1"/>
		</g>
		<g id="Group_9531" transform="translate(103.138 133.418)">
			<circle id="Ellipse_1091" class="st3" cx="-1145.9" cy="-2461.9" r="2.1"/>
		</g>
		<g id="Group_9532" transform="translate(176.879 60.48)">
			<circle id="Ellipse_1092" class="st3" cx="-1145.9" cy="-2461.9" r="2.1"/>
		</g>
		<g id="Group_9533" transform="translate(162.613 117.037)">
			<path class="st3" d="M-1143.7-2461.9c0,1.2-1,2.1-2.2,2.1c-0.4,0-0.9-0.1-1.2-0.4c-0.6-0.4-0.9-1-0.9-1.8c0-1.2,1-2.1,2.1-2.1
				c0.7,0,1.4,0.4,1.8,0.9C-1143.9-2462.7-1143.7-2462.3-1143.7-2461.9z"/>
		</g>
	</g>
</g>
</svg>
