<svg xmlns="http://www.w3.org/2000/svg" width="166.103" height="158.702" viewBox="0 0 166.103 158.702">
  <g id="Group_9650" data-name="Group 9650" transform="translate(-1148 -2464)">
    <g id="Layer_2" data-name="Layer 2" transform="translate(1147.997 2464.001)">
      <g id="Layer_1" data-name="Layer 1">
        <path id="Path_8671" data-name="Path 8671" d="M20.93,115.92s-42-59-7-96,74-13,80-3,8,35,40,42,39,41,26,67S75.93,188.92,20.93,115.92Z" fill="#f5f5f5"/>
      </g>
    </g>
    <g id="Low_p" transform="translate(1093.4 2481.3)">
      <g id="Group_9525" data-name="Group 9525" transform="translate(130.788 44.313)">
        <path id="Path_8638" data-name="Path 8638" d="M231.165,189.275h2.516v2.088a1.365,1.365,0,0,0,2.73,0v-2.088h2.222v2.088a1.365,1.365,0,0,0,2.73,0v-2.355a6.591,6.591,0,0,0,2.195-11.563,6.526,6.526,0,0,0,2.462-6.451,6.627,6.627,0,0,0-4.657-5.112v-2.516a1.365,1.365,0,0,0-2.73,0v2.248h-2.222v-2.248a1.365,1.365,0,0,0-2.73,0v2.248h-2.516a1.371,1.371,0,0,0-1.365,1.365V187.91A1.371,1.371,0,0,0,231.165,189.275ZM243.4,182.69a3.884,3.884,0,0,1-3.881,3.881H232.53v-7.735h7.013A3.838,3.838,0,0,1,243.4,182.69ZM232.53,168.344h7.013a3.868,3.868,0,1,1,0,7.735H232.53Z" transform="translate(-229.8 -162)" fill="#29023f"/>
      </g>
      <g id="Group_9526" data-name="Group 9526" transform="translate(97.986 23.114)">
        <path id="Path_8639" data-name="Path 8639" d="M146.986,190.8a4.049,4.049,0,0,1-2.891-1.2l-35.679-36.268a4.04,4.04,0,0,1,2.864-6.879h9.288a.3.3,0,0,0,.294-.294V118.747a1.874,1.874,0,1,1,3.747,0v27.408a4.055,4.055,0,0,1-4.042,4.042H111.28a.265.265,0,0,0-.268.187.27.27,0,0,0,.054.321l35.679,36.268a.27.27,0,0,0,.214.08.427.427,0,0,0,.214-.08l34.983-36.268a.27.27,0,0,0,.054-.321.265.265,0,0,0-.268-.187H173.4a4.055,4.055,0,0,1-4.042-4.042V91.312a4.775,4.775,0,0,0-4.764-4.764H129.374a4.775,4.775,0,0,0-4.764,4.764V107.8a1.874,1.874,0,0,1-3.747,0V91.312a8.533,8.533,0,0,1,8.512-8.512H164.6a8.533,8.533,0,0,1,8.512,8.512v54.817a.3.3,0,0,0,.294.294h8.538a4.049,4.049,0,0,1,2.917,6.852L149.9,189.543a4.115,4.115,0,0,1-2.918,1.258Z" transform="translate(-107.252 -82.8)" fill="#29023f"/>
      </g>
      <g id="Group_9527" data-name="Group 9527" transform="translate(130.574 96.266)">
        <path id="Path_8640" data-name="Path 8640" d="M235.8,369.7a6.8,6.8,0,1,1,6.8-6.8A6.808,6.808,0,0,1,235.8,369.7Zm0-10.385a3.587,3.587,0,1,0,3.587,3.587A3.587,3.587,0,0,0,235.8,359.312Z" transform="translate(-229 -356.1)" fill="#29023f"/>
      </g>
      <g id="Group_9528" data-name="Group 9528" transform="translate(94.6 15.914)">
        <circle id="Ellipse_1088" data-name="Ellipse 1088" cx="2.141" cy="2.141" r="2.141" transform="translate(0)" fill="#29023f"/>
      </g>
      <g id="Group_9529" data-name="Group 9529" transform="translate(96.715 66.716)">
        <circle id="Ellipse_1089" data-name="Ellipse 1089" cx="2.141" cy="2.141" r="2.141" fill="#29023f"/>
      </g>
      <g id="Group_9530" data-name="Group 9530" transform="translate(136.81 1.3)">
        <circle id="Ellipse_1090" data-name="Ellipse 1090" cx="2.141" cy="2.141" r="2.141" transform="translate(0)" fill="#29023f"/>
      </g>
      <g id="Group_9531" data-name="Group 9531" transform="translate(103.138 133.418)">
        <circle id="Ellipse_1091" data-name="Ellipse 1091" cx="2.141" cy="2.141" r="2.141" transform="translate(0)" fill="#29023f"/>
      </g>
      <g id="Group_9532" data-name="Group 9532" transform="translate(176.879 60.48)">
        <circle id="Ellipse_1092" data-name="Ellipse 1092" cx="2.141" cy="2.141" r="2.141" fill="#29023f"/>
      </g>
      <g id="Group_9533" data-name="Group 9533" transform="translate(162.613 117.037)">
        <circle id="Ellipse_1093" data-name="Ellipse 1093" cx="2.141" cy="2.141" r="2.141" transform="translate(0)" fill="#29023f"/>
      </g>
    </g>
  </g>
</svg>
