<svg xmlns="http://www.w3.org/2000/svg" width="23.147" height="18.324" viewBox="0 0 23.147 18.324">
  <path id="medium" d="M21.3,4.654l1.847-1.767V2.5h-6.4l-4.56,11.35L7,2.5H.292v.387l2.157,2.6a.905.905,0,0,1,.292.755V16.446a1.164,1.164,0,0,1-.312,1.013L0,20.4v.382H6.891V20.4l-2.43-2.941a1.2,1.2,0,0,1-.335-1.013V7.617l6.049,13.173h.7l5.2-13.173V18.111c0,.277,0,.334-.181.515l-1.871,1.81v.388H23.1v-.387l-1.8-1.766a.536.536,0,0,1-.206-.515V5.169a.534.534,0,0,1,.205-.515Z" transform="translate(0 -2.5)" fill="#260f40"/>
</svg>
