<?xml version="1.0" encoding="utf-8"?>
<!-- Generator: Adobe Illustrator 23.0.0, SVG Export Plug-In . SVG Version: 6.00 Build 0)  -->
<svg version="1.1" id="Layer_1" xmlns="http://www.w3.org/2000/svg" xmlns:xlink="http://www.w3.org/1999/xlink" x="0px" y="0px"
	 viewBox="0 0 176 176" style="enable-background:new 0 0 176 176;" xml:space="preserve">
<style type="text/css">
	.st0{fill:#FFFFFF;stroke:#29023F;stroke-width:5;stroke-linecap:round;stroke-linejoin:round;stroke-miterlimit:10;}
	.st1{fill:#FFFFFF;stroke:#29023F;stroke-width:3;stroke-linecap:round;stroke-linejoin:round;stroke-miterlimit:10;}
	.st2{fill:#29023F;}
</style>
<polygon class="st0" points="45.6,50.8 21.9,50.8 10,71.3 21.9,91.8 45.6,91.8 57.4,71.3 "/>
<polygon class="st0" points="81.1,30.3 57.4,30.3 45.6,50.8 57.4,71.3 81.1,71.3 92.9,50.8 "/>
<polygon class="st0" points="116.6,50.8 92.9,50.8 81.1,71.3 92.9,91.8 116.6,91.8 128.4,71.3 "/>
<polygon class="st0" points="116.6,9.7 92.9,9.7 81.1,30.3 92.9,50.8 116.6,50.8 128.4,30.3 "/>
<polygon class="st0" points="112.4,120 88.7,120 76.9,140.5 88.7,161 112.4,161 124.3,140.5 "/>
<polygon class="st0" points="147.9,99.5 124.3,99.5 112.4,120 124.3,140.5 147.9,140.5 159.8,120 "/>
<g>
	<line class="st1" x1="95.2" y1="77.1" x2="98.6" y2="83.1"/>
	<circle class="st2" cx="91" cy="71.5" r="1.9"/>
</g>
<g>
	<line class="st1" x1="60.6" y1="57" x2="64.1" y2="63"/>
	<circle class="st2" cx="56.5" cy="51.4" r="1.9"/>
</g>
<g>
	<line class="st1" x1="95.3" y1="37.1" x2="98.8" y2="43.1"/>
	<circle class="st2" cx="91.1" cy="31.5" r="1.9"/>
</g>
<g>
	<line class="st1" x1="24.4" y1="77.9" x2="27.8" y2="83.9"/>
	<circle class="st2" cx="20.2" cy="72.3" r="1.9"/>
</g>
<g>
	<line class="st1" x1="92.3" y1="147" x2="95.8" y2="153"/>
	<circle class="st2" cx="88.1" cy="141.4" r="1.9"/>
</g>
<g>
	<line class="st1" x1="128" y1="125.9" x2="131.4" y2="131.9"/>
	<circle class="st2" cx="123.8" cy="120.3" r="1.9"/>
</g>
</svg>
