<?xml version="1.0" encoding="utf-8"?>
<!-- Generator: Adobe Illustrator 23.0.0, SVG Export Plug-In . SVG Version: 6.00 Build 0)  -->
<svg version="1.1" id="Layer_1" xmlns="http://www.w3.org/2000/svg" xmlns:xlink="http://www.w3.org/1999/xlink" x="0px" y="0px"
	 viewBox="0 0 110 110" style="enable-background:new 0 0 110 110;" xml:space="preserve">
<style type="text/css">
	.st0{fill:#29023F;}
</style>
<g>
	<path class="st0" d="M83,30.2c-0.7-0.7-1.9-0.7-2.6,0c-0.7,0.7-0.7,1.9,0,2.6c0,0,0,0,0.1,0.1c0.7,0.7,1.9,0.6,2.6-0.1
		c0.7-0.7,0.7-1.8,0.1-2.5C83.1,30.3,83,30.3,83,30.2z"/>
	<path class="st0" d="M104.1,19.6c-7.3-7.3-19.1-7.3-26.4,0L63.1,34.3c-5.3,5.3-6.9,13.2-4.2,20l-4.8,4.8c-6.9-2.7-14.8-1.1-20,4.2
		L19.4,77.9c-7.3,7.3-7.3,19.1,0,26.4c7.3,7.3,19.1,7.3,26.4,0l14.6-14.6c5.3-5.3,6.9-13.2,4.2-20l4.8-4.8c6.9,2.7,14.8,1.1,20-4.2
		l14.6-14.6C111.4,38.8,111.4,26.9,104.1,19.6z M57.8,87.1l-14.6,14.6c-5.8,5.8-15.3,5.8-21.1,0c-5.8-5.8-5.8-15.3,0-21.1L36.7,66
		c3.8-3.8,9.4-5.2,14.4-3.9l-5.2,5.2c-2,0.3-3.8,1.2-5.3,2.6L26,84.5c-3.6,3.6-3.6,9.6,0,13.2c3.6,3.6,9.6,3.6,13.2,0l14.6-14.6
		c1.4-1.4,2.4-3.3,2.6-5.3l5.2-5.2C63,77.7,61.6,83.3,57.8,87.1z M43.3,80.5c1.5,1.5,3.6,2.3,5.8,2.2L36.6,95.1
		c-2.2,2.2-5.7,2.2-7.9,0c-2.2-2.2-2.2-5.7,0-7.9l12.4-12.4C41,77,41.8,79,43.3,80.5z M53.4,75.7l-2.2,2.2c-1.5,1.5-3.8,1.5-5.3,0
		c-1.5-1.5-1.5-3.8,0-5.3l26.4-26.4c1.5-1.5,3.8-1.5,5.3,0c1.5,1.5,1.5,3.8,0,5.3L53.4,75.7z M86.9,58c-3.8,3.8-9.4,5.2-14.4,3.9
		l5.2-5.2c2-0.3,3.8-1.2,5.3-2.6c0,0,0,0,0,0l14.6-14.6c3.6-3.6,3.6-9.6,0-13.2c-3-3-7.7-3.6-11.4-1.4c-0.9,0.5-1.2,1.7-0.7,2.6
		c0.5,0.9,1.7,1.2,2.6,0.7c2.2-1.3,5-0.9,6.8,0.9c2.2,2.2,2.2,5.7,0,7.9L82.4,49.3c0.1-2.2-0.7-4.3-2.2-5.8
		c-1.4-1.4-3.3-2.2-5.3-2.2c-0.2,0-0.3,0-0.5,0l3.2-3.2c0.7-0.7,0.7-1.9,0-2.6c-0.7-0.7-1.9-0.7-2.6,0l-5.4,5.4
		c-1.4,1.4-2.4,3.3-2.6,5.3l-5.2,5.2c-1.4-5.1,0.1-10.6,3.9-14.4l14.6-14.6c5.8-5.8,15.3-5.8,21.1,0c5.8,5.8,5.8,15.3,0,21.1
		L86.9,58z"/>
	<path class="st0" d="M44.6,44.8c0.7-0.7,0.7-1.9,0-2.6l-7.9-7.9c-0.7-0.7-1.9-0.7-2.6,0c-0.7,0.7-0.7,1.9,0,2.6l7.9,7.9
		C42.7,45.6,43.9,45.6,44.6,44.8z"/>
	<path class="st0" d="M23.9,52.8c0,1,0.8,1.9,1.9,1.9H37c1,0,1.9-0.8,1.9-1.9c0-1-0.8-1.9-1.9-1.9H25.8C24.8,51,23.9,51.8,23.9,52.8
		z"/>
	<path class="st0" d="M54.5,37.2V26c0-1-0.8-1.9-1.9-1.9c-1,0-1.9,0.8-1.9,1.9v11.2c0,1,0.8,1.9,1.9,1.9
		C53.7,39.1,54.5,38.3,54.5,37.2z"/>
	<path class="st0" d="M78.9,79.2c-0.7,0.7-0.7,1.9,0,2.6l7.9,7.9c0.7,0.7,1.9,0.7,2.6,0c0.7-0.7,0.7-1.9,0-2.6l-7.9-7.9
		C80.9,78.4,79.7,78.4,78.9,79.2z"/>
	<path class="st0" d="M69.2,86.8V98c0,1,0.8,1.9,1.9,1.9c1,0,1.9-0.8,1.9-1.9V86.8c0-1-0.8-1.9-1.9-1.9
		C70.1,84.9,69.2,85.7,69.2,86.8z"/>
	<path class="st0" d="M99.6,71.3c0-1-0.8-1.9-1.9-1.9H86.6c-1,0-1.9,0.8-1.9,1.9s0.8,1.9,1.9,1.9h11.2
		C98.8,73.2,99.6,72.4,99.6,71.3z"/>
</g>
<g>
	<g>
		<path class="st0" d="M32.4,9.6L17.5,1c-0.3-0.2-0.8-0.2-1.1,0L1.5,9.6c-0.3,0.2-0.6,0.6-0.6,1v17.2c0,0.4,0.2,0.8,0.6,1l14.9,8.6
			c0.2,0.1,0.4,0.2,0.6,0.2c0.2,0,0.4-0.1,0.6-0.2l14.9-8.6c0.3-0.2,0.6-0.6,0.6-1V10.6C33,10.2,32.7,9.8,32.4,9.6z M16.9,3.3
			l12.6,7.3l-12.6,7.3L4.3,10.6L16.9,3.3z M18.1,34.4v-5.1c0-0.6-0.5-1.1-1.1-1.1c-0.6,0-1.1,0.5-1.1,1.1v5.1L3.2,27.1V12.5
			l13.2,7.6c0.2,0.1,0.4,0.2,0.6,0.2c0.2,0,0.4-0.1,0.6-0.2l13.2-7.6v14.6L18.1,34.4z"/>
		<path class="st0" d="M16.9,38.1c-0.3,0-0.6-0.1-0.8-0.2L1.2,29.2c-0.5-0.3-0.8-0.9-0.8-1.5V10.6c0-0.6,0.3-1.2,0.8-1.5l14.9-8.6
			c0.5-0.3,1.2-0.3,1.7,0l14.9,8.6c0.5,0.3,0.8,0.9,0.8,1.5v17.2c0,0.6-0.3,1.2-0.8,1.5l-14.9,8.6C17.5,38,17.2,38.1,16.9,38.1z
			 M16.9,1.4c-0.1,0-0.2,0-0.3,0.1L1.7,10.1c-0.2,0.1-0.3,0.3-0.3,0.5v17.2c0,0.2,0.1,0.4,0.3,0.5l14.9,8.6c0.2,0.1,0.4,0.1,0.6,0
			l14.9-8.6c0.2-0.1,0.3-0.3,0.3-0.5V10.6c0-0.2-0.1-0.4-0.3-0.5L17.2,1.5C17.1,1.4,17,1.4,16.9,1.4z M16.4,35.4L2.6,27.4V11.6
			l14,8.1c0.2,0.1,0.4,0.1,0.6,0l14-8.1v15.9l-13.8,7.9v-6.1c0-0.3-0.3-0.6-0.6-0.6c-0.3,0-0.6,0.3-0.6,0.6V35.4z M16.9,27.6
			c0.9,0,1.7,0.8,1.7,1.7v4.1l11.5-6.7V13.5l-12.4,7.1c-0.5,0.3-1.2,0.3-1.7,0L3.7,13.5v13.3l11.5,6.7v-4.1
			C15.2,28.4,16,27.6,16.9,27.6z M16.9,18.5L3.2,10.6l13.8-7.9l13.8,7.9L16.9,18.5z M5.4,10.6l11.5,6.7l11.5-6.7L16.9,3.9L5.4,10.6z
			"/>
	</g>
	<g>
		<path class="st0" d="M16.9,23.1c-0.3,0-0.6,0.1-0.8,0.3c-0.2,0.2-0.3,0.5-0.3,0.8c0,0.3,0.1,0.6,0.3,0.8c0.2,0.2,0.5,0.3,0.8,0.3
			c0.3,0,0.6-0.1,0.8-0.3c0.2-0.2,0.3-0.5,0.3-0.8c0-0.3-0.1-0.6-0.3-0.8C17.5,23.2,17.2,23.1,16.9,23.1z"/>
		<path class="st0" d="M16.9,25.9c-0.4,0-0.9-0.2-1.2-0.5c-0.3-0.3-0.5-0.7-0.5-1.2c0-0.4,0.2-0.9,0.5-1.2c0.6-0.6,1.8-0.6,2.4,0
			c0.3,0.3,0.5,0.7,0.5,1.2c0,0.4-0.2,0.9-0.5,1.2C17.8,25.8,17.4,25.9,16.9,25.9z M16.9,23.7c-0.2,0-0.3,0.1-0.4,0.2
			c-0.1,0.1-0.2,0.3-0.2,0.4c0,0.1,0.1,0.3,0.2,0.4c0.2,0.2,0.6,0.2,0.8,0c0.1-0.1,0.2-0.3,0.2-0.4c0-0.1-0.1-0.3-0.2-0.4
			C17.2,23.7,17.1,23.7,16.9,23.7z"/>
	</g>
</g>
</svg>
