<svg xmlns="http://www.w3.org/2000/svg" width="603.411" height="607.046" viewBox="0 0 603.411 607.046">
  <g id="Layer_2" data-name="Layer 2" transform="translate(0.513 -1.5)" opacity="0.04">
    <g id="Layer_1" data-name="Layer 1" transform="translate(7 7)">
      <path id="Path_8614" data-name="Path 8614" d="M296.341,240.991V183.483L246.535,154.72,196.73,183.483v57.509l49.805,28.754Z" transform="translate(-39.237 -32.099)" fill="none" stroke="#29023f" stroke-linecap="round" stroke-linejoin="round" stroke-width="11"/>
      <line id="Line_787" data-name="Line 787" x1="49.805" y1="28.763" transform="translate(157.493 151.375)" fill="none" stroke="#29023f" stroke-linecap="round" stroke-linejoin="round" stroke-width="11"/>
      <path id="Path_8615" data-name="Path 8615" d="M306.535,189.37,256.73,218.124v17" transform="translate(-49.432 -37.986)" fill="none" stroke="#29023f" stroke-linecap="round" stroke-linejoin="round" stroke-width="11"/>
      <path id="Path_8616" data-name="Path 8616" d="M256.73,269.38v73.8" transform="translate(-49.432 -51.581)" fill="none" stroke="#29023f" stroke-linecap="round" stroke-linejoin="round" stroke-width="11"/>
      <path id="Path_8617" data-name="Path 8617" d="M296.341,672.753V615.244L246.535,586.49,196.73,615.244v57.509l49.805,28.754Z" transform="translate(-39.237 -105.461)" fill="none" stroke="#29023f" stroke-linecap="round" stroke-linejoin="round" stroke-width="11"/>
      <line id="Line_788" data-name="Line 788" x1="49.805" y1="28.754" transform="translate(157.493 509.783)" fill="none" stroke="#29023f" stroke-linecap="round" stroke-linejoin="round" stroke-width="11"/>
      <path id="Path_8618" data-name="Path 8618" d="M306.535,621.13,256.73,649.884v17" transform="translate(-49.432 -111.347)" fill="none" stroke="#29023f" stroke-linecap="round" stroke-linejoin="round" stroke-width="11"/>
      <line id="Line_789" data-name="Line 789" y2="19.017" transform="translate(207.298 576.199)" fill="none" stroke="#29023f" stroke-linecap="round" stroke-linejoin="round" stroke-width="11"/>
      <path id="Path_8619" data-name="Path 8619" d="M476.371,347.711V290.194L426.565,261.44,376.76,290.194v57.517l49.805,28.754Z" transform="translate(-69.826 -50.232)" fill="none" stroke="#29023f" stroke-linecap="round" stroke-linejoin="round" stroke-width="11"/>
      <line id="Line_790" data-name="Line 790" x1="49.805" y1="28.754" transform="translate(306.934 239.962)" fill="none" stroke="#29023f" stroke-linecap="round" stroke-linejoin="round" stroke-width="11"/>
      <line id="Line_791" data-name="Line 791" y1="25.152" x2="43.563" transform="translate(263.371 297.479)" fill="none" stroke="#29023f" stroke-linecap="round" stroke-linejoin="round" stroke-width="11"/>
      <line id="Line_792" data-name="Line 792" y1="25.152" x2="43.571" transform="translate(99.627 382.721)" fill="none" stroke="#29023f" stroke-linecap="round" stroke-linejoin="round" stroke-width="11"/>
      <line id="Line_793" data-name="Line 793" x2="44.41" y2="23.633" transform="translate(265.43 392.068)" fill="none" stroke="#29023f" stroke-linecap="round" stroke-linejoin="round" stroke-width="11"/>
      <line id="Line_794" data-name="Line 794" x2="45.763" y2="24.355" transform="translate(104.334 297.479)" fill="none" stroke="#29023f" stroke-linecap="round" stroke-linejoin="round" stroke-width="11"/>
      <line id="Line_795" data-name="Line 795" x2="69.155" y2="36.806" transform="translate(419.619 72.168)" fill="none" stroke="#29023f" stroke-linecap="round" stroke-linejoin="round" stroke-width="11"/>
      <path id="Path_8620" data-name="Path 8620" d="M486.565,296.08,436.76,324.843v17" transform="translate(-80.02 -56.118)" fill="none" stroke="#29023f" stroke-linecap="round" stroke-linejoin="round" stroke-width="11"/>
      <line id="Line_796" data-name="Line 796" y2="19.009" transform="translate(356.739 306.386)" fill="none" stroke="#29023f" stroke-linecap="round" stroke-linejoin="round" stroke-width="11"/>
      <path id="Path_8621" data-name="Path 8621" d="M112.3,347.711V290.194L62.5,261.44,12.69,290.194v57.517L62.5,376.466Z" transform="translate(-7.967 -50.232)" fill="none" stroke="#29023f" stroke-linecap="round" stroke-linejoin="round" stroke-width="11"/>
      <line id="Line_797" data-name="Line 797" x1="49.805" y1="28.754" transform="translate(4.723 239.962)" fill="none" stroke="#29023f" stroke-linecap="round" stroke-linejoin="round" stroke-width="11"/>
      <path id="Path_8622" data-name="Path 8622" d="M122.5,296.08,72.69,324.843v17" transform="translate(-18.161 -56.118)" fill="none" stroke="#29023f" stroke-linecap="round" stroke-linejoin="round" stroke-width="11"/>
      <line id="Line_798" data-name="Line 798" y2="19.009" transform="translate(54.529 306.386)" fill="none" stroke="#29023f" stroke-linecap="round" stroke-linejoin="round" stroke-width="11"/>
      <path id="Path_8623" data-name="Path 8623" d="M519.691,93.263V35.754L469.885,7,420.08,35.754V93.263l49.805,28.754Z" transform="translate(-77.186 -7)" fill="none" stroke="#29023f" stroke-linecap="round" stroke-linejoin="round" stroke-width="11"/>
      <line id="Line_799" data-name="Line 799" x1="49.805" y1="28.754" transform="translate(342.894 28.754)" fill="none" stroke="#29023f" stroke-linecap="round" stroke-linejoin="round" stroke-width="11"/>
      <path id="Path_8624" data-name="Path 8624" d="M529.885,41.64,480.08,70.394v17" transform="translate(-87.381 -12.886)" fill="none" stroke="#29023f" stroke-linecap="round" stroke-linejoin="round" stroke-width="11"/>
      <line id="Line_800" data-name="Line 800" y2="19.009" transform="translate(392.699 95.178)" fill="none" stroke="#29023f" stroke-linecap="round" stroke-linejoin="round" stroke-width="11"/>
      <path id="Path_8625" data-name="Path 8625" d="M695.431,171.711V114.194L645.625,85.44,595.82,114.194v57.517l49.805,28.754Z" transform="translate(-107.046 -20.328)" fill="none" stroke="#29023f" stroke-linecap="round" stroke-linejoin="round" stroke-width="11"/>
      <line id="Line_801" data-name="Line 801" x1="49.805" y1="28.754" transform="translate(488.774 93.867)" fill="none" stroke="#29023f" stroke-linecap="round" stroke-linejoin="round" stroke-width="11"/>
      <path id="Path_8626" data-name="Path 8626" d="M705.625,120.08,655.82,148.834v17.009" transform="translate(-117.241 -26.213)" fill="none" stroke="#29023f" stroke-linecap="round" stroke-linejoin="round" stroke-width="11"/>
      <path id="Path_8627" data-name="Path 8627" d="M655.82,200.1v79.672" transform="translate(-117.241 -39.81)" fill="none" stroke="#29023f" stroke-linecap="round" stroke-linejoin="round" stroke-width="11"/>
      <path id="Path_8628" data-name="Path 8628" d="M695.431,382.351V324.843L645.625,296.08,595.82,324.843v57.509l49.805,28.754Z" transform="translate(-107.046 -56.118)" fill="none" stroke="#29023f" stroke-linecap="round" stroke-linejoin="round" stroke-width="11"/>
      <line id="Line_802" data-name="Line 802" x1="49.805" y1="28.754" transform="translate(488.774 268.725)" fill="none" stroke="#29023f" stroke-linecap="round" stroke-linejoin="round" stroke-width="11"/>
      <path id="Path_8629" data-name="Path 8629" d="M705.625,330.73,655.82,359.484v17" transform="translate(-117.241 -62.005)" fill="none" stroke="#29023f" stroke-linecap="round" stroke-linejoin="round" stroke-width="11"/>
      <line id="Line_803" data-name="Line 803" y2="19.009" transform="translate(538.579 335.141)" fill="none" stroke="#29023f" stroke-linecap="round" stroke-linejoin="round" stroke-width="11"/>
      <path id="Path_8630" data-name="Path 8630" d="M106.611,549.983V492.474L56.805,463.72,7,492.474v57.509l49.805,28.763Z" transform="translate(-7 -84.601)" fill="none" stroke="#29023f" stroke-linecap="round" stroke-linejoin="round" stroke-width="11"/>
      <line id="Line_804" data-name="Line 804" x1="49.805" y1="28.754" transform="translate(0 407.873)" fill="none" stroke="#29023f" stroke-linecap="round" stroke-linejoin="round" stroke-width="11"/>
      <path id="Path_8631" data-name="Path 8631" d="M116.805,498.36,67,527.114v17.009" transform="translate(-17.195 -90.487)" fill="none" stroke="#29023f" stroke-linecap="round" stroke-linejoin="round" stroke-width="11"/>
      <line id="Line_805" data-name="Line 805" y2="19.009" transform="translate(49.805 474.297)" fill="none" stroke="#29023f" stroke-linecap="round" stroke-linejoin="round" stroke-width="11"/>
      <path id="Path_8632" data-name="Path 8632" d="M479.861,559.393V501.884L430.055,473.13,380.25,501.884v57.509l49.805,28.754Z" transform="translate(-70.419 -86.2)" fill="none" stroke="#29023f" stroke-linecap="round" stroke-linejoin="round" stroke-width="11"/>
      <line id="Line_806" data-name="Line 806" x1="49.805" y1="28.754" transform="translate(309.831 415.684)" fill="none" stroke="#29023f" stroke-linecap="round" stroke-linejoin="round" stroke-width="11"/>
      <path id="Path_8633" data-name="Path 8633" d="M490.055,507.77,440.25,536.524v17" transform="translate(-80.614 -92.086)" fill="none" stroke="#29023f" stroke-linecap="round" stroke-linejoin="round" stroke-width="11"/>
      <line id="Line_807" data-name="Line 807" y2="19.009" transform="translate(359.637 482.1)" fill="none" stroke="#29023f" stroke-linecap="round" stroke-linejoin="round" stroke-width="11"/>
      <circle id="Ellipse_1085" data-name="Ellipse 1085" cx="67.652" cy="67.652" r="67.652" transform="translate(138.816 291.594)" stroke-width="11" stroke="#29023f" stroke-linecap="round" stroke-linejoin="round" fill="none"/>
      <path id="Path_8634" data-name="Path 8634" d="M198.54,381.72a67.661,67.661,0,0,0,94.946,0" transform="translate(-39.545 -70.669)" fill="none" stroke="#29023f" stroke-linecap="round" stroke-linejoin="round" stroke-width="11"/>
      <path id="Path_8635" data-name="Path 8635" d="M293.486,493.939a67.661,67.661,0,0,0-94.946,0" transform="translate(-39.545 -86.431)" fill="none" stroke="#29023f" stroke-linecap="round" stroke-linejoin="round" stroke-width="11"/>
      <ellipse id="Ellipse_1086" data-name="Ellipse 1086" cx="37.147" cy="67.652" rx="37.147" ry="67.652" transform="translate(169.322 291.594)" fill="none" stroke="#29023f" stroke-linecap="round" stroke-linejoin="round" stroke-width="11"/>
      <line id="Line_808" data-name="Line 808" y1="189.435" transform="translate(207.298 291.594)" fill="none" stroke="#29023f" stroke-linecap="round" stroke-linejoin="round" stroke-width="11"/>
      <line id="Line_809" data-name="Line 809" x2="135.305" transform="translate(138.816 359.246)" fill="none" stroke="#29023f" stroke-linecap="round" stroke-linejoin="round" stroke-width="11"/>
      <line id="Line_810" data-name="Line 810" y1="4.258" x2="2.582" transform="translate(234.102 293.221)" fill="none" stroke="#29023f" stroke-linecap="round" stroke-linejoin="round" stroke-width="11"/>
      <line id="Line_811" data-name="Line 811" y1="183.433" x2="111.24" transform="translate(248.255 90.696)" stroke-dasharray="11.95 26.89" stroke="#29023f" stroke-linecap="round" stroke-linejoin="round" stroke-width="11" fill="none"/>
      <line id="Line_812" data-name="Line 812" y1="4.258" x2="2.59" transform="translate(365.281 76.9)" fill="none" stroke="#29023f" stroke-linecap="round" stroke-linejoin="round" stroke-width="11"/>
    </g>
  </g>
</svg>
