<svg xmlns="http://www.w3.org/2000/svg" width="175.853" height="158.115" viewBox="0 0 175.853 158.115">
  <g id="Group_9651" data-name="Group 9651" transform="translate(-1148 -2979)">
    <g id="Layer_2" data-name="Layer 2" transform="translate(1148.003 2979.002)">
      <g id="Layer_1" data-name="Layer 1">
        <path id="Path_8668" data-name="Path 8668" d="M20.42,136.64A56.21,56.21,0,0,1,3.85,116.17c-5.13-11-7.64-26.1,9-35.88,29-17,31-7,42-40s26-46,48-38,17,26,36,27,37-4,37,19-20,31-26,64-60,52-84,44C45.11,149.37,35.58,148.44,20.42,136.64Z" fill="#f5f5f5"/>
      </g>
    </g>
    <g id="Scalable_2" transform="translate(1134.8 2994.7)">
      <g id="Group_9564" data-name="Group 9564" transform="translate(136.856 8.553)">
        <circle id="Ellipse_1102" data-name="Ellipse 1102" cx="2.145" cy="2.145" r="2.145" transform="translate(0 0)" fill="#29023f"/>
      </g>
      <g id="Group_9565" data-name="Group 9565" transform="translate(59.519 3.3)">
        <circle id="Ellipse_1103" data-name="Ellipse 1103" cx="2.145" cy="2.145" r="2.145" fill="#29023f"/>
      </g>
      <g id="Group_9566" data-name="Group 9566" transform="translate(48.49 124.971)">
        <circle id="Ellipse_1104" data-name="Ellipse 1104" cx="2.145" cy="2.145" r="2.145" transform="translate(0)" fill="#29023f"/>
      </g>
      <g id="Group_9567" data-name="Group 9567" transform="translate(103.248 137.76)">
        <circle id="Ellipse_1105" data-name="Ellipse 1105" cx="2.145" cy="2.145" r="2.145" fill="#29023f"/>
      </g>
      <g id="Group_9568" data-name="Group 9568" transform="translate(44.2 66.556)">
        <circle id="Ellipse_1106" data-name="Ellipse 1106" cx="2.145" cy="2.145" r="2.145" transform="translate(0)" fill="#29023f"/>
      </g>
      <g id="Group_9569" data-name="Group 9569" transform="translate(153.165 60.45)">
        <circle id="Ellipse_1107" data-name="Ellipse 1107" cx="2.145" cy="2.145" r="2.145" fill="#29023f"/>
      </g>
      <g id="Group_9570" data-name="Group 9570" transform="translate(59.766 16.996)">
        <path id="Path_8652" data-name="Path 8652" d="M182.455,163H106.741a5.951,5.951,0,0,1-5.941-5.941V59.041a5.951,5.951,0,0,1,5.941-5.941h61.5a5.86,5.86,0,0,1,3.905,1.485l14.246,12.486a5.929,5.929,0,0,1,2.035,4.483v85.533A5.987,5.987,0,0,1,182.455,163ZM106.741,56.95a2.089,2.089,0,0,0-2.09,2.09v98.019a2.089,2.089,0,0,0,2.09,2.09h75.742a2.089,2.089,0,0,0,2.09-2.09V71.527a2.012,2.012,0,0,0-.715-1.568L169.584,57.473a2.14,2.14,0,0,0-1.375-.523Z" transform="translate(-100.8 -53.1)" fill="#29023f"/>
      </g>
      <g id="Group_9571" data-name="Group 9571" transform="translate(126.542 17.213)">
        <path id="Path_8653" data-name="Path 8653" d="M362.274,72.429H345.525A1.913,1.913,0,0,1,343.6,70.5V55.818a1.924,1.924,0,0,1,3.19-1.458l16.749,14.686a1.873,1.873,0,0,1,.523,2.118A1.893,1.893,0,0,1,362.274,72.429Zm-14.824-3.85h9.708l-9.708-8.526Z" transform="translate(-343.6 -53.89)" fill="#29023f"/>
      </g>
      <g id="Group_9587" data-name="Group 9587" transform="translate(72.308 35.34)">
        <g id="Group_9573" data-name="Group 9573" transform="translate(15.016 15.566)">
          <g id="Group_9572" data-name="Group 9572">
            <path id="Path_8654" data-name="Path 8654" d="M206.831,216.5a1.212,1.212,0,0,1-.99-.5A24.592,24.592,0,0,1,201,201.262a24.862,24.862,0,0,1,39.824-19.857,1.238,1.238,0,0,1-1.485,1.98,22.379,22.379,0,0,0-31.49,31.133,1.237,1.237,0,0,1-.275,1.733A1.331,1.331,0,0,1,206.831,216.5Z" transform="translate(-201 -176.4)" fill="#29023f"/>
          </g>
        </g>
        <g id="Group_9575" data-name="Group 9575" transform="translate(50.577 18.069)">
          <g id="Group_9574" data-name="Group 9574">
            <path id="Path_8655" data-name="Path 8655" d="M336.021,196.941a1.324,1.324,0,0,1-.88-.358l-4.483-4.483a1.272,1.272,0,0,1-.358-.88,1.325,1.325,0,0,1,.358-.88l4.483-4.483a1.272,1.272,0,0,1,.88-.358h0a1.325,1.325,0,0,1,.88.358l4.483,4.483a1.229,1.229,0,0,1,0,1.76l-4.483,4.483A1.162,1.162,0,0,1,336.021,196.941Zm-2.723-5.721,2.723,2.723,2.723-2.723-2.723-2.723Z" transform="translate(-330.3 -185.5)" fill="#29023f"/>
          </g>
        </g>
        <g id="Group_9577" data-name="Group 9577" transform="translate(17.217 51.21)">
          <g id="Group_9576" data-name="Group 9576">
            <path id="Path_8656" data-name="Path 8656" d="M214.721,317.441a1.325,1.325,0,0,1-.88-.358l-4.483-4.483a1.272,1.272,0,0,1-.358-.88,1.325,1.325,0,0,1,.358-.88l4.483-4.483a1.272,1.272,0,0,1,.88-.358,1.324,1.324,0,0,1,.88.358l4.483,4.483a1.229,1.229,0,0,1,0,1.76l-4.483,4.483A1.272,1.272,0,0,1,214.721,317.441ZM212,311.721l2.723,2.723,2.723-2.723L214.721,309Z" transform="translate(-209 -306)" fill="#29023f"/>
          </g>
        </g>
        <g id="Group_9579" data-name="Group 9579" transform="translate(6.037 6.037)">
          <g id="Group_9578" data-name="Group 9578">
            <path id="Path_8657" data-name="Path 8657" d="M169.6,175.619a1.2,1.2,0,0,1-.88-.358,1.229,1.229,0,0,1,0-1.76l31.38-31.38a1.245,1.245,0,0,1,1.76,1.76l-31.38,31.38A1.325,1.325,0,0,1,169.6,175.619Z" transform="translate(-168.35 -141.75)" fill="#29023f"/>
          </g>
        </g>
        <g id="Group_9581" data-name="Group 9581" transform="translate(36.111)">
          <g id="Group_9580" data-name="Group 9580">
            <path id="Path_8658" data-name="Path 8658" d="M282.293,128.986a4.593,4.593,0,1,1,4.593-4.593A4.6,4.6,0,0,1,282.293,128.986Zm0-6.711a2.118,2.118,0,1,0,2.118,2.118A2.136,2.136,0,0,0,282.293,122.275Z" transform="translate(-277.7 -119.8)" fill="#29023f"/>
          </g>
        </g>
        <g id="Group_9583" data-name="Group 9583" transform="translate(0 36.111)">
          <g id="Group_9582" data-name="Group 9582">
            <path id="Path_8659" data-name="Path 8659" d="M150.993,260.286a4.593,4.593,0,1,1,4.593-4.593A4.6,4.6,0,0,1,150.993,260.286Zm0-6.711a2.118,2.118,0,1,0,2.118,2.118A2.136,2.136,0,0,0,150.993,253.575Z" transform="translate(-146.4 -251.1)" fill="#29023f"/>
          </g>
        </g>
        <g id="Group_9584" data-name="Group 9584" transform="translate(18.702 19.692)">
          <path id="Path_8660" data-name="Path 8660" d="M222.678,195.745l-4.043,3.8-4.235-4.318,4.153-3.823Z" transform="translate(-214.4 -191.4)" fill="#fff"/>
        </g>
        <g id="Group_9586" data-name="Group 9586" transform="translate(17.217 17.794)">
          <g id="Group_9585" data-name="Group 9585">
            <path id="Path_8661" data-name="Path 8661" d="M214.721,195.941a1.325,1.325,0,0,1-.88-.358l-4.483-4.483a1.272,1.272,0,0,1-.358-.88,1.325,1.325,0,0,1,.358-.88l4.483-4.483a1.272,1.272,0,0,1,.88-.358h0a1.325,1.325,0,0,1,.88.358l4.483,4.483a1.229,1.229,0,0,1,0,1.76l-4.483,4.483A1.162,1.162,0,0,1,214.721,195.941ZM212,190.221l2.723,2.723,2.723-2.723-2.723-2.723Z" transform="translate(-209 -184.5)" fill="#29023f"/>
          </g>
        </g>
      </g>
      <g id="Group_9588" data-name="Group 9588" transform="translate(94.659 91.112)">
        <path id="Path_8662" data-name="Path 8662" d="M239.263,347.677l3.025-8.278,8.718-1.183L232.8,327.6Z" transform="translate(-231.39 -326.221)" fill="#fff"/>
        <path id="Path_8663" data-name="Path 8663" d="M235.545,345.417h0a1.387,1.387,0,0,1-1.32-.963l-6.491-20.077a1.369,1.369,0,0,1,2.008-1.6L247.949,333.4a1.409,1.409,0,0,1,.66,1.458,1.373,1.373,0,0,1-1.155,1.1l-7.893,1.073-2.723,7.481A1.364,1.364,0,0,1,235.545,345.417Zm-4.07-18.454,4.153,12.844,1.65-4.51a1.351,1.351,0,0,1,1.1-.88l4.758-.66Z" transform="translate(-227.672 -322.586)" fill="#29023f"/>
      </g>
    </g>
  </g>
</svg>
