<?xml version="1.0" encoding="utf-8"?>
<!-- Generator: Adobe Illustrator 23.0.0, SVG Export Plug-In . SVG Version: 6.00 Build 0)  -->
<svg version="1.1" id="Layer_1" xmlns="http://www.w3.org/2000/svg" xmlns:xlink="http://www.w3.org/1999/xlink" x="0px" y="0px"
	 viewBox="0 0 175.9 158.1" style="enable-background:new 0 0 175.9 158.1;" xml:space="preserve">
<style type="text/css">
	.st0{fill:#F5F5F5;}
	.st1{fill:#29023F;}
	.st2{fill:url(#SVGID_1_);}
</style>
<g>
	<g transform="translate(1148.003 2979.002)">
		<g>
			<path id="Path_8668" class="st0" d="M-1127.6-2842.4c-7.1-5.4-12.7-12.4-16.6-20.5c-5.1-11-7.6-26.1,9-35.9c29-17,31-7,42-40
				s26-46,48-38s17,26,36,27s37-4,37,19s-20,31-26,64s-60,52-84,44C-1102.9-2829.6-1112.4-2830.6-1127.6-2842.4z"/>
		</g>
	</g>
	<g id="Group_9564" transform="translate(136.856 8.553)">
		<circle id="Ellipse_1102" class="st1" cx="-11.1" cy="17.8" r="2.1"/>
	</g>
	<g id="Group_9565" transform="translate(59.519 3.3)">
		<circle id="Ellipse_1103" class="st1" cx="-11.1" cy="17.8" r="2.1"/>
	</g>
	<g id="Group_9566" transform="translate(48.49 124.971)">
		<circle id="Ellipse_1104" class="st1" cx="-11.1" cy="17.8" r="2.1"/>
	</g>
	<g id="Group_9567" transform="translate(103.248 137.76)">
		<circle id="Ellipse_1105" class="st1" cx="-11.1" cy="17.8" r="2.1"/>
	</g>
	<g id="Group_9568" transform="translate(44.2 66.556)">
		<circle id="Ellipse_1106" class="st1" cx="-11.1" cy="17.8" r="2.1"/>
	</g>
	<g id="Group_9569" transform="translate(153.165 60.45)">
		<circle id="Ellipse_1107" class="st1" cx="-11.1" cy="17.8" r="2.1"/>
	</g>
	<linearGradient id="SVGID_1_" gradientUnits="userSpaceOnUse" x1="58" y1="93.25" x2="134.2" y2="93.25">
		<stop  offset="0" style="stop-color:#5773FF"/>
		<stop  offset="1" style="stop-color:#7393FF"/>
	</linearGradient>
	<path class="st2" d="M134.2,52.2v84.5c0,3.3-2.7,5.9-6,5.9H58V55.3c0-6.3,5.1-11.4,11.4-11.4h43.2
		C120.5,43.9,128.2,46.9,134.2,52.2L134.2,52.2z"/>
	<g id="Group_9570" transform="translate(59.766 16.996)">
		<path id="Path_8652" class="st1" d="M72.4,29.7L58.1,17.2c-1.1-1-2.5-1.5-3.9-1.5H-7.3c-3.3,0-5.9,2.7-5.9,5.9v98
			c0,3.3,2.7,5.9,5.9,6h75.7c3.3,0,5.9-2.6,6-5.9V34.2C74.4,32.4,73.7,30.8,72.4,29.7z M70.6,119.7L70.6,119.7
			c0,1.2-0.9,2.1-2.1,2.1H-7.3c-1.2,0-2.1-0.9-2.1-2.1v-98c0-1.2,0.9-2.1,2.1-2.1h61.5c0.5,0,1,0.2,1.4,0.5l7.8,6.9l6.4,5.6
			c0.5,0.4,0.7,1,0.7,1.6L70.6,119.7L70.6,119.7z"/>
	</g>
	<g id="Group_9571" transform="translate(126.542 17.213)">
		<path id="Path_8653" class="st1" d="M5.5,34.2h-16.7c-1.1,0-1.9-0.8-1.9-1.9l0,0V17.6c0-1.1,0.9-1.9,1.9-1.9
			c0.5,0,0.9,0.2,1.3,0.5L6.7,30.9c0.6,0.5,0.8,1.4,0.5,2.1C7,33.7,6.3,34.2,5.5,34.2z M-9.3,30.4h9.7l-9.7-8.5V30.4z"/>
	</g>
	<g id="Group_9573" transform="translate(15.016 15.566)">
		<g id="Group_9572">
			<path id="Path_8654" class="st1" d="M64.9,91.1c-0.4,0-0.8-0.2-1-0.5c-3.2-4.3-4.9-9.4-4.8-14.7C59.1,62.2,70.2,51,84,51
				c5.4,0,10.7,1.8,15,5c0.5,0.4,0.6,1.2,0.2,1.7s-1.1,0.6-1.7,0.2c-9.9-7.4-23.9-5.5-31.3,4.4C60.3,70.2,60.2,81,66,89
				c0.4,0.6,0.3,1.3-0.3,1.7l0,0C65.5,91,65.2,91.1,64.9,91.1z"/>
		</g>
	</g>
	<g id="Group_9584_1_" transform="translate(18.702 19.692)">
		<path id="Path_8660_1_" class="st0" d="M67.5,88.4l-4,3.8l-4.2-4.3l4.2-3.8L67.5,88.4z"/>
	</g>
	<g id="Group_9584_2_" transform="translate(18.702 19.692)">
		<path id="Path_8660_2_" class="st0" d="M100.8,55.3l-4,3.8l-4.2-4.3l4.2-3.8L100.8,55.3z"/>
	</g>
	<g id="Group_9575" transform="translate(50.577 18.069)">
		<g id="Group_9574">
			<path id="Path_8655" class="st1" d="M64.8,62.4c-0.3,0-0.6-0.1-0.9-0.4l-4.5-4.5c-0.2-0.2-0.4-0.6-0.4-0.9s0.1-0.6,0.4-0.9
				l4.5-4.5c0.2-0.2,0.6-0.4,0.9-0.4l0,0c0.3,0,0.6,0.1,0.9,0.4l4.5,4.5c0.5,0.5,0.5,1.3,0,1.7l0,0l-4.5,4.5
				C65.5,62.3,65.2,62.5,64.8,62.4z M62.1,56.7l2.7,2.7l2.7-2.7L64.8,54L62.1,56.7z"/>
		</g>
	</g>
	<g id="Group_9577" transform="translate(17.217 51.21)">
		<g id="Group_9576">
			<path id="Path_8656" class="st1" d="M64.8,62.4c-0.3,0-0.6-0.1-0.9-0.4l-4.5-4.5c-0.2-0.2-0.4-0.6-0.4-0.9s0.1-0.6,0.4-0.9
				l4.5-4.5c0.2-0.2,0.6-0.4,0.9-0.4s0.6,0.1,0.9,0.4l4.5,4.5c0.5,0.5,0.5,1.3,0,1.7l0,0l-4.5,4.5C65.5,62.3,65.1,62.4,64.8,62.4z
				 M62.1,56.7l2.7,2.7l2.7-2.7L64.8,54L62.1,56.7z"/>
		</g>
	</g>
	<g id="Group_9579" transform="translate(6.037 6.037)">
		<g id="Group_9578">
			<path id="Path_8657" class="st1" d="M60.4,84.9c-0.3,0-0.6-0.1-0.9-0.4c-0.5-0.5-0.5-1.3,0-1.7l0,0l31.4-31.4
				c0.5-0.5,1.3-0.5,1.8,0s0.5,1.2,0,1.7L61.3,84.5C61,84.7,60.7,84.9,60.4,84.9z"/>
		</g>
	</g>
	<g id="Group_9581" transform="translate(36.111)">
		<g id="Group_9580">
			<path id="Path_8658" class="st1" d="M63.7,60.2c-2.5,0-4.6-2.1-4.6-4.6s2.1-4.6,4.6-4.6s4.6,2.1,4.6,4.6l0,0
				C68.3,58.1,66.2,60.2,63.7,60.2z M63.7,53.5c-1.2,0-2.1,0.9-2.1,2.1c0,1.2,0.9,2.1,2.1,2.1c1.2,0,2.1-0.9,2.1-2.1
				C65.8,54.4,64.9,53.5,63.7,53.5z"/>
		</g>
	</g>
	<g id="Group_9583" transform="translate(0 36.111)">
		<g id="Group_9582">
			<path id="Path_8659" class="st1" d="M63.7,60.2c-2.5,0-4.6-2.1-4.6-4.6s2.1-4.6,4.6-4.6s4.6,2.1,4.6,4.6S66.2,60.2,63.7,60.2z
				 M63.7,53.5c-1.2,0-2.1,0.9-2.1,2.1s0.9,2.1,2.1,2.1c1.2,0,2.1-0.9,2.1-2.1l0,0C65.8,54.4,64.9,53.5,63.7,53.5L63.7,53.5z"/>
		</g>
	</g>
	<g id="Group_9584" transform="translate(18.702 19.692)">
		<path id="Path_8660" class="st0" d="M67.4,55.3l-4,3.8l-4.2-4.3l4.2-3.8L67.4,55.3z"/>
	</g>
	<polygon class="st0" points="83.2,109 100.8,118.6 92.8,120.1 89,128.1 	"/>
	<g id="Group_9586" transform="translate(17.217 17.794)">
		<g id="Group_9585">
			<path id="Path_8661" class="st1" d="M64.8,62.4c-0.3,0-0.6-0.1-0.9-0.4l-4.5-4.5c-0.2-0.2-0.4-0.6-0.4-0.9s0.1-0.6,0.4-0.9
				l4.5-4.5c0.2-0.2,0.6-0.4,0.9-0.4l0,0c0.3,0,0.6,0.1,0.9,0.4l4.5,4.5c0.5,0.5,0.5,1.3,0,1.7l0,0l-4.5,4.5
				C65.5,62.3,65.2,62.5,64.8,62.4z M62.1,56.7l2.7,2.7l2.7-2.7L64.8,54L62.1,56.7z"/>
		</g>
	</g>
	<path id="Path_8663" class="st1" d="M89.3,129.6L89.3,129.6c-0.6,0-1.1-0.4-1.3-1l-6.5-20.1c-0.2-0.7,0.2-1.5,0.9-1.7
		c0.4-0.1,0.8-0.1,1.1,0.1l18.2,10.6c0.5,0.3,0.8,0.9,0.7,1.5c-0.1,0.6-0.6,1-1.2,1.1l-7.9,1.1l-2.7,7.5
		C90.4,129.3,89.9,129.6,89.3,129.6z M85.3,111.2l4.2,12.8l1.6-4.5c0.2-0.5,0.6-0.8,1.1-0.9l4.8-0.7L85.3,111.2z"/>
</g>
</svg>
