<svg xmlns="http://www.w3.org/2000/svg" width="165.222" height="62.38" viewBox="0 0 165.222 62.38">
  <g id="Layer_2" data-name="Layer 2" transform="translate(0.004 0.001)">
    <g id="Layer_1" data-name="Layer 1" transform="translate(-0.004 -0.001)">
      <path id="Path_151" data-name="Path 151" d="M42.893,59.832a26.657,26.657,0,0,0-3.161-.99,9.559,9.559,0,0,0,.267,1.9C40.951,60.479,41.941,60.174,42.893,59.832Zm-3.2-1.6A19.042,19.042,0,0,1,43.5,59.565l1.676-.724a34.923,34.923,0,0,0-5.56-1.9v1.295Zm4.037,1.9h0A30.923,30.923,0,0,1,38.437,61.7h0a30.468,30.468,0,0,1-4.837.609h0a30.467,30.467,0,0,1-14.015-2.361h-.533c-6.284-2.818-9.14-8.188-2.932-12.415A33.057,33.057,0,0,0,13.8,44.408a10.778,10.778,0,0,1-.762-1.066,3.009,3.009,0,0,0,.267,3.313.343.343,0,0,1,0,.381L8.846,52.329a.267.267,0,0,1-.419,0C-13.738,28.07,11.435-8.72,41.9,1.868a.3.3,0,0,1,0,.419l-4.57,7.921a.228.228,0,0,1-.3,0c-1.485-.267-2.4-.19-3.009.419a26.659,26.659,0,0,1,4.075,1.257,37.171,37.171,0,0,1,4.189-3.808h0a.229.229,0,0,1,.229,0h0l3.2,8.036a.5.5,0,0,1,0,.229h-.267c.571,1.714,4.494,13.558,5.713,16.757a16.224,16.224,0,0,1,1.257,3.808c0,1.1-.762,1.6-2.285,1.714-.762.724-.876.99-.457,1.523a1.734,1.734,0,0,1-.571,2.323c.914.724.686,2.018.267,2.018a1.371,1.371,0,0,0-1.257.762c2.818,2.742.5,5.1-3.237,5.9a19.042,19.042,0,0,1-4.037.3h0a21.4,21.4,0,0,0-.914,4.494,26.926,26.926,0,0,1,6.246,2.285h0a.533.533,0,0,1,0,.229h0l-2.209.99Zm-26.2-10.854h0a6.931,6.931,0,0,1,.229,2.209,3.123,3.123,0,0,0,.8-4.113l-1.371.838.343.952Zm-.457.571a3.808,3.808,0,0,0-1.98,2.628,6.7,6.7,0,0,0,2.057-.533,7.617,7.617,0,0,0,0-2.095Zm-1.828,3.2a3.085,3.085,0,0,0,.343,1.1,5.332,5.332,0,0,0,4.837-7.921l-1.371.914C19.852,48.635,20.538,52.443,15.244,53.053Zm.647,1.638a5.636,5.636,0,0,0,1.257,1.257,7.122,7.122,0,0,0,4.57-10.93l-1.028.876a5.827,5.827,0,0,1-4.951,8.8Zm1.828,1.676a8.074,8.074,0,0,0,1.828.876,9.483,9.483,0,0,0,3.808-13.6l-1.028.99a7.617,7.617,0,0,1-4.76,11.73ZM40,27.194a12.682,12.682,0,0,1,8-.533c-1.066-3.161-2.209-6.512-2.818-8.378A7.617,7.617,0,0,1,40.532,25.9,7.236,7.236,0,0,1,40,27.422Zm-.914.5h0a6.4,6.4,0,0,0,.838-2.133h0a7.617,7.617,0,0,0,0-2.095h0a11.425,11.425,0,0,0-.229-1.6l-.838.99a6.55,6.55,0,0,1-2.209,5.636,6.169,6.169,0,0,1,0,1.676,8.759,8.759,0,0,0,2.437-2.475Zm-14.7,17.024a3.808,3.808,0,0,1,.914-1.6,5.408,5.408,0,0,1-.419-1.219l-1.257,1.371a6.7,6.7,0,0,1,.762,1.485Zm1.371-1.98A3.808,3.808,0,0,1,26.9,42.2a8.036,8.036,0,0,1-.5-2.095l-1.028,1.219a6.474,6.474,0,0,0,.381,1.409ZM12.083,44.9a6.246,6.246,0,0,1,.533-2.133,19.042,19.042,0,0,1-3.161-8.835h0V32.716a1.561,1.561,0,0,1,0-.419,22.622,22.622,0,0,1,.229-3.808h0l.229-1.181a22.013,22.013,0,0,1,5.332-10.587h0a21.289,21.289,0,0,1,2.59-2.323h0a19.042,19.042,0,0,1,5.027-2.7h0a20.641,20.641,0,0,1,7.16-1.257.914.914,0,0,1,.457,0,19.385,19.385,0,0,1,2.932.229,2.59,2.59,0,0,1,1.676-.99h-.3a17.747,17.747,0,0,0-3.808-.609h0A21.86,21.86,0,0,0,13.682,16.3h0a19.727,19.727,0,0,0-2.247,3.2h0a24.259,24.259,0,0,0-1.9,3.351h0a17.975,17.975,0,0,0-1.143,3.5,22.85,22.85,0,0,0,1.828,15.234h0a25.745,25.745,0,0,0,1.866,3.275Zm1.066-2.361h0l.609.876c1.143-.876,2.171-1.79,3.2-2.742l-1.371-.724a3.009,3.009,0,0,1-2.628,1.143.268.268,0,0,1-.267-.381,17.937,17.937,0,0,0,0-3.5,3.047,3.047,0,0,1-.3-.609,6.817,6.817,0,0,1-1.371,0c-.343,0-.457-.267-.19-.5.876-.8.724-1.98.914-3.466A17.443,17.443,0,0,0,9.988,33.82a18.128,18.128,0,0,0,3.085,8.531Zm2.78,3.808c11.692-7.921,16.376-22.165,26.849-31.115l-1.561-.3c-.3,0-.3,0-.267-.419l.267-2.171C31.544,22.2,25.984,38.428,15.206,45.284l.724.99Zm27.23-35.761L41.9,11.655l-.343,2.7,1.79.381,1.028-.8-.267-.724a.914.914,0,0,1-1.219-.609.99.99,0,0,1,.571-1.181l-.3-.876ZM17.681,41.056a44.6,44.6,0,0,1-3.5,3.047h0l.571.724a50.042,50.042,0,0,0,14.243-16.49A93,93,0,0,1,41.331,11.427h0l1.523-1.409-.419-1.295a40.9,40.9,0,0,0-5.256,5.332h0a121.868,121.868,0,0,0-8.226,11.92c-1.333,2.057-2.7,4.151-4.113,6.208h0c-.571.838-1.143,1.638-1.752,2.437h0l-1.333,1.714h0c-.647.838-1.333,1.638-2.057,2.437h0c-.533.647-1.143,1.257-1.714,1.828Zm-.229-.571L18.71,39.19a5.56,5.56,0,0,1-4.722-3.275,5.332,5.332,0,0,1-.99.762l.267.457h0a8.493,8.493,0,0,0,4.113,3.237Zm1.6-1.98c.457-.457.876-.952,1.295-1.447-4.875,1.371-8-6.322.381-9.521a14.471,14.471,0,0,1-1.676-.686c-5.446,2.437-7.274,10.7,0,11.654Zm2.057-2.4,1.257-1.6a3.428,3.428,0,0,0-1.98-3.808,4.722,4.722,0,0,0-1.333.914c2.628.419,2.59,3.808,0,3.808s-1.9-2.437-1.028-3.808h0a5.941,5.941,0,0,1,1.942-1.523h0a12,12,0,0,1,2.894-.876h0a13.063,13.063,0,0,1,1.828-.3,14.7,14.7,0,0,0-1.828-.647l-1.143-.419c-8.988,2.932-5.37,10.854-.5,8.264Zm1.866-2.437c.419-.533.8-1.1,1.181-1.638a4.8,4.8,0,0,0-1.295-2.209,8.226,8.226,0,0,0-1.676.647,3.808,3.808,0,0,1,1.9,3.313Zm1.6-2.247,1.219-1.828-.3-.229a5.464,5.464,0,0,0-2.095.3,6.17,6.17,0,0,1,1.181,1.752ZM26.1,29.136l1.257-1.942a30.467,30.467,0,0,0-6.208,0l1.9.609a15.234,15.234,0,0,1,2.628,1.143h0l.343.267Zm1.714-2.475.876-1.409a23.536,23.536,0,0,0-6.322-.381,24.945,24.945,0,0,1-5.979-.381,9.9,9.9,0,0,0,3.2,1.9,24.412,24.412,0,0,0,3.808,0A18.28,18.28,0,0,1,27.812,26.66Zm1.181-1.9.762-1.143a25.554,25.554,0,0,0-8.15-.571,11.159,11.159,0,0,1-7.122-1.6,7.617,7.617,0,0,0,1.1,2.247,38.084,38.084,0,0,0,10.549.647,12.111,12.111,0,0,1,2.856.457Zm1.066-1.638c.419-.267.419-.8.762-1.181a13.1,13.1,0,0,0-2.628-.609h0A45.7,45.7,0,0,0,21.3,21.1a13.406,13.406,0,0,1-4.189-.419h0a5.218,5.218,0,0,1-2.666-1.9l-.381.267a12.911,12.911,0,0,0,0,1.333c1.447,1.9,4.227,2.171,7.388,2.171a24.336,24.336,0,0,1,8.455.647Zm6.969-9.788.8-.99a28.144,28.144,0,0,0-4.38-.914h0l-1.98-.381a2.59,2.59,0,0,1,.343,1.561,1.561,1.561,0,0,1,.571,1.1,1.9,1.9,0,0,1,1.6,0,1.79,1.79,0,0,1,3.047-.267ZM5.342,47.607,10.56,43.8l-.724-1.333L5.494,45.131c-.343.19-.647-.3-.3-.5l4.418-2.7c0-.381-.343-.762-.5-1.143L3.1,43.608a31.343,31.343,0,0,0,2.247,4.113Zm5.484-3.428L5.647,47.987A38.579,38.579,0,0,0,8.617,51.8l4.075-4.913a11.426,11.426,0,0,1-.762-1.1L8.122,49.587a.269.269,0,1,1-.381-.381L11.55,45.4c-.267-.381-.5-.8-.762-1.219ZM2.867,42.77l6.017-2.818a4.012,4.012,0,0,0-.419-1.181L3.552,40.218a.267.267,0,1,1,0-.533l4.76-1.6c-.19-.533-.3-1.066-.457-1.6l-6.512,1.6a28.373,28.373,0,0,0,1.523,4.722ZM1.191,37.476l6.436-1.409A2.532,2.532,0,0,0,7.36,34.7l-5.065.5a.3.3,0,0,1,0-.571l5.1-.343V32.716H.734a28.259,28.259,0,0,0,.457,4.76Zm-.609-5.6H7.246V30.659L2.1,30.088a.3.3,0,1,1,0-.571l5.141.571V28.374L.924,27.041a34.009,34.009,0,0,0-.343,4.837Zm.457-5.218L7.627,27.8V26.66L2.79,24.947a.3.3,0,0,1,.19-.571l4.913,1.561.343-1.257L2.257,21.671A29.515,29.515,0,0,0,1.039,26.66Zm1.447-5.332L8.427,24.3a3.461,3.461,0,0,1,.5-1.257l-4.57-2.818a.275.275,0,0,1,.3-.457l4.456,2.742c.229-.457.419-.914.647-1.333l-5.37-4.3a33.018,33.018,0,0,0-1.9,4.265Zm2.209-4.951,5.332,4.075.609-1.028L6.827,15.616a.3.3,0,0,1,.3-.381l3.808,3.808a15.234,15.234,0,0,1,.876-1.295L7.36,12.417a34.276,34.276,0,0,0-2.666,3.808ZM7.627,11.96l4.608,5.218a11.845,11.845,0,0,1,.876-1.066L9.76,11.427a.3.3,0,0,1,.457-.343l3.275,4.494L14.52,14.55,10.978,8.532A34.808,34.808,0,0,0,7.7,11.96Zm3.808-3.808,3.542,6.093.952-.8-2.361-5.37a.3.3,0,1,1,.533-.229l2.247,5.218,1.257-.876L15.244,5.219a32.448,32.448,0,0,0-3.808,2.932Zm4.38-3.237,2.323,6.931,1.143-.647L17.872,5.41a.267.267,0,0,1,.533,0l1.371,5.636,1.219-.571L20,2.858a31.343,31.343,0,0,0-4.227,2.133Zm4.722-2.323.99,7.617,1.333-.647V3.315a.286.286,0,1,1,.571,0l.19,6.093a8.572,8.572,0,0,0,1.333-.343L25.3,1.182a28.563,28.563,0,0,0-4.76,1.409Zm5.332-1.523-.533,7.807L26.9,8.609l.952-6.17a.3.3,0,0,1,.571,0l-.952,6.093h1.219L30.706.573a29.325,29.325,0,0,0-4.837.5Zm5.446-.5L29.3,8.418h1.561L32.8,2.249a.283.283,0,0,1,.533.19l-1.9,6.017h1.447L36.152.84A30.01,30.01,0,0,0,31.315.573Zm5.408.5L33.448,8.685l1.295.267,3.351-6.17a.3.3,0,0,1,.381.267l-3.2,6.132,1.676.533,4.494-7.426a37.474,37.474,0,0,0-4.722-1.219ZM26.364,18.32h0a3.808,3.808,0,0,1-1.447,0h0a3.123,3.123,0,0,0,.99,1.828l.762.419,1.447-5.332c-1.409-.381-1.79-2.894,0-3.2a1.371,1.371,0,0,1,.457-1.066,17.671,17.671,0,0,0-2.894.381l.267,2.932V14.7a.3.3,0,1,1-.571,0v-.114l-1.181-.838a1.447,1.447,0,0,0,.914,2.514h.419a.3.3,0,0,1,.571,0v2.209h0Zm-2.133-5.294h0l.914.686V11.389a18.091,18.091,0,0,0-2.285.838,3.237,3.237,0,0,0-.381,4.456h0A3.808,3.808,0,0,0,25.527,17.9V16.644H25.07a2.018,2.018,0,0,1-1.98-1.98,1.942,1.942,0,0,1,.609-1.447c0-.229,0-.571.419-.381ZM24,18.32a4.684,4.684,0,0,1-1.638-1.066,4.189,4.189,0,0,1-4.418-2.018,20.831,20.831,0,0,0-1.942,1.714l1.219.3h.3a6.322,6.322,0,0,0,6.208.99Zm-2.057-1.561a3.808,3.808,0,0,1,0-4.113,21.746,21.746,0,0,0-3.58,2.018,3.808,3.808,0,0,0,3.542,2.095Zm-4.532.952h0a5.674,5.674,0,0,0,0,2.4,12.225,12.225,0,0,0,3.808.381h3.5A3.389,3.389,0,0,1,24,19.044a6.779,6.779,0,0,1-6.589-1.219Zm.952,8.95L17.3,26.089l-1.181.876h0a16.452,16.452,0,0,0-1.828,1.79h0l-.571.762h0a7.274,7.274,0,0,0-1.143,2.742,10.054,10.054,0,0,1-.762,3.808,2.475,2.475,0,0,0,2.095-1.028,8.8,8.8,0,0,1,4.456-8.378Zm.343,5.6a.99.99,0,0,0,0,.343c-.647,1.295,0,2.285.838,2.285,1.79,0,1.676-2.552-.647-2.628Zm-3.237-5.6a8.226,8.226,0,0,1-2.59-2.78,3.808,3.808,0,0,0,0,1.79h0a7.16,7.16,0,0,0,1.1,2.361,16.377,16.377,0,0,1,1.485-1.371ZM13.378,38.086a12.682,12.682,0,0,1,0,2.4,2.133,2.133,0,0,0,1.866-.762,6.284,6.284,0,0,1-1.866-1.638Zm-.267-10.511-1.143.571.609,1.219a1.866,1.866,0,0,1,.647-.229,3.161,3.161,0,0,1,.457-.609,6.285,6.285,0,0,1-.571-.952ZM9.95,32.64v.686a10.321,10.321,0,0,1,1.942-1.143,7.617,7.617,0,0,1,.8-2.247h0a8.188,8.188,0,0,0-2.59,2.628Zm0-3.808a15.653,15.653,0,0,0,0,2.666,7.617,7.617,0,0,1,1.028-1.028l-.914-1.485Zm.3-1.9a9.75,9.75,0,0,0-.19,1.028l1.371,2.171a2.513,2.513,0,0,1,.647-.457c-1.028-2.095-1.219-1.638.762-2.628a7.084,7.084,0,0,1-.381-.952,6.17,6.17,0,0,0-2.095,1.028Zm3.2-7.388a21.479,21.479,0,0,0-3.009,6.589,6.284,6.284,0,0,1,1.79-.762,4.875,4.875,0,0,1,.343-2.514c0-.343.5-.3.533,0,.229,1.447,1.676,2.59,2.818,3.466l.876-.647a7.96,7.96,0,0,1-3.237-5.9Zm1.98-2.514-.914,1.028a4.8,4.8,0,0,0,2.057,1.676,5.446,5.446,0,0,1,0-2.361l-1.257-.343Zm16.186-1.79a1.9,1.9,0,0,1-1.143.343,9.026,9.026,0,0,0,0,2.475L32,16.454a2.1,2.1,0,0,1-.381-1.219Zm-1.676,1.714a1.03,1.03,0,0,1-1.028-.686c-.152-.457.533,0,.609,0h.457l.114-1.028h0v-.3a.267.267,0,1,1,.533,0,1.143,1.143,0,1,0-.152-2.095.3.3,0,1,1,0-.571,1.98,1.98,0,0,1,1.066,0c0-2.437-3.808-.952-1.79.838a.3.3,0,0,1-.381.457,3.009,3.009,0,0,1-.724-.952c-1.333.229-.952,1.828,0,2.133h0a.267.267,0,1,1,.533,0v.3h0l-1.79,5.6h.686l1.98-2.133a5.065,5.065,0,0,1,0-1.523Zm2.818,2.095a2.057,2.057,0,0,1-.343-1.6c0-.267.3,0,.381.229a1.752,1.752,0,0,0,.647.343c.457-.686.952-1.371,1.447-2.018s1.143-1.523,1.752-2.247c-.99-1.143-2.628-.5-2.171,1.371a.3.3,0,0,1-.571.114,2.818,2.818,0,0,1,0-1.1A1.181,1.181,0,0,0,32.534,16a.3.3,0,0,1,.419.419l-2.475,2.4v.229l-1.79,1.942a14.776,14.776,0,0,1,2.4.609c.533-.8,1.028-1.6,1.6-2.4Zm-2.552,16a5.789,5.789,0,0,0,4.075-5.865l-2.095,3.085c-.647.952-1.257,1.866-1.942,2.78ZM36.533,27.8a5.789,5.789,0,0,0,1.79-4.265c-.724.914-1.447,1.9-2.133,2.856A9.483,9.483,0,0,1,36.533,27.8Zm4.151-4.951a4.608,4.608,0,0,0,1.98-3.808,21.289,21.289,0,0,0-2.247,2.285,11.68,11.68,0,0,0,.267,1.6Zm0,2.361a7.617,7.617,0,0,0,3.808-7.845l-1.371,1.1a5.294,5.294,0,0,1-2.475,5.065,8.112,8.112,0,0,1,0,1.676Zm-11.425,12.3h0A7.96,7.96,0,0,0,36,30.774a8.53,8.53,0,0,0,0-2.209h0a10.13,10.13,0,0,0-.267-1.409L34.7,28.641a6.512,6.512,0,0,1-5.1,7.617l-1.028,1.066Zm-12.53,9.94h0V47.8A27.916,27.916,0,0,0,20.119,45.7h0c.5-.381.952-.8,1.409-1.219h0l1.333-1.447h0c.609-.609,1.181-1.219,1.752-1.866h0c.533-.571,1.028-1.181,1.523-1.79h0l1.257-1.638h0l1.409-1.9h0c2.171-2.78,3.77-5.37,5.484-7.541h0c.457-.647.914-1.333,1.409-1.98h0c.8-1.1,1.6-2.209,2.437-3.237l.229-.3h0c.457-.571.952-1.181,1.447-1.714h0a31.571,31.571,0,0,1,2.742-2.78h0A22.85,22.85,0,0,1,44.416,16.8h.267l-.533-1.6-.533.038h0c-10.74,8.95-15.234,23.46-27.268,31.457l.457.724Zm10.283,1.066h0a2.209,2.209,0,0,0,.724,0,3.047,3.047,0,0,0,1.9-.686h0A2.894,2.894,0,0,0,30.782,45.7a2.742,2.742,0,0,0-.3-1.295h0a2.932,2.932,0,0,0-2.666-1.676h-.5a3.009,3.009,0,0,0-1.447.686h0a3.009,3.009,0,0,0,1.181,5.1ZM19.4,59.336a12.3,12.3,0,0,0,2.361-1.1h0a12.682,12.682,0,0,0,1.752-1.371h0a10.854,10.854,0,0,0,3.161-7.617,3.313,3.313,0,0,1-1.485-.99A9.407,9.407,0,0,1,19.585,58h-.3a8.417,8.417,0,0,1-2.4-1.219h0a7.122,7.122,0,0,1-1.638-2.133h0c-.952-1.638-.762-3.808,1.942-5.217a7.312,7.312,0,0,0-.533-1.257c-5.484,3.808-3.313,8.417,2.894,11.425Zm2.59-.571a10.245,10.245,0,0,1-1.828.914A30.467,30.467,0,0,0,32.229,61.85a69.39,69.39,0,0,0-10.245-3.085Zm1.9-1.447a10.587,10.587,0,0,1-1.219.99,75.406,75.406,0,0,1,10.892,3.466,31.342,31.342,0,0,0,3.808-.419C33.943,60.212,27.05,58.042,24,57.318Zm3.5-8.15a11.692,11.692,0,0,1-3.047,7.617C27.888,57.7,35.771,60.1,38.4,61.126l1.143-.267a18.318,18.318,0,0,1,.686-9.14A22.317,22.317,0,0,1,30.02,48.483a3.542,3.542,0,0,1-2.095.686Zm0-7.617.229.724h.19a3.5,3.5,0,0,1,1.561.381c.381-1.523-1.143-2.209-2.133-1.066Zm2.057-2.856a3.808,3.808,0,0,1,1.79,5.789,2.971,2.971,0,0,1,.267,1.333,3.466,3.466,0,0,1-.99,2.437,20.832,20.832,0,0,0,14.243,2.818c3.808-.8,5.217-2.856,2.78-5.1-.419-.381.724-1.447,1.561-1.523a.99.99,0,0,0-.571-1.181,18.356,18.356,0,0,0-4.38.8.267.267,0,1,1-.533,0,2.209,2.209,0,0,1,.3-1.219c0-.381.647,0,.5,0a1.409,1.409,0,0,0,0,.419,16,16,0,0,1,4.3-.762c.3-.229,1.143-.838.952-1.257a1.447,1.447,0,0,0-.267-.419,1.371,1.371,0,0,1,0-2.018,3.313,3.313,0,0,0-2.856.762c-.381.419-1.066-.724-1.143-.876a1.942,1.942,0,0,1,.724-2.323.283.283,0,0,1,.381.419c-.762.686-.952,1.447-.229,2.171h0a4.227,4.227,0,0,1,3.808-.647h0c2.133,0,1.98-1.028,1.409-2.59-.229-.647-.533-1.371-.838-2.209s-1.333-3.808-2.247-6.4a12.3,12.3,0,0,0-8.645.8,10.549,10.549,0,0,1-3.009,2.932,8.569,8.569,0,0,1-7.388,7.007v.686Zm-.571,0v-.533a1.828,1.828,0,0,1-.647,0c-.419.533-.8,1.066-1.219,1.561a6.322,6.322,0,0,0,0,1.257,1.752,1.752,0,0,1,2.78,2.057,3.808,3.808,0,0,1,.952.99,3.047,3.047,0,0,0-2.285-4.76.286.286,0,1,1,0-.571Zm9.94-20.489a.533.533,0,1,1-.533-.533.533.533,0,0,1,.533.533Zm1.523-1.752a.609.609,0,0,1-.609.571.571.571,0,0,1-.571-.571.591.591,0,1,1,1.181,0Zm-3.009,3.808a.457.457,0,1,1-.147-.337.457.457,0,0,1,.147.337ZM20.842,14.7a.591.591,0,1,1,0-.038Zm6.969,31.991a1.066,1.066,0,0,0,1.028-.99,1.085,1.085,0,0,0-2.171,0A1.066,1.066,0,0,0,27.7,46.731Zm0,.571a1.58,1.58,0,1,1,0,.038ZM49.862,38.39Zm-8.455-6.436a4.646,4.646,0,0,1,0-1.676,7.617,7.617,0,0,0-2.4,1.181,8.53,8.53,0,0,0,1.1.3l1.447.19Zm.5-1.828a3.808,3.808,0,0,0,0,1.866h1.181A2.1,2.1,0,0,1,42.7,31a2.247,2.247,0,0,1,0-1.028,5.9,5.9,0,0,0-1.181.228Zm2.4-.876a3.2,3.2,0,0,1,1.066,0,.267.267,0,0,1,.267.267c0,.343-.457.533-.8.647a1.219,1.219,0,0,1,0,.533c0,.8-.267,1.523-.762,1.638h0a12.645,12.645,0,0,1-2.133,0h0a10.7,10.7,0,0,1-3.389-.609h0a.3.3,0,0,1-.457-.381h.19a8.836,8.836,0,0,1,6.093-2.095Z" transform="translate(0.004 0.001)" fill="#29023f"/>
      <path id="Path_152" data-name="Path 152" d="M42.893,59.832a26.657,26.657,0,0,0-3.161-.99,9.559,9.559,0,0,0,.267,1.9C40.951,60.479,41.941,60.174,42.893,59.832Zm-3.2-1.6A19.042,19.042,0,0,1,43.5,59.565l1.676-.724a34.923,34.923,0,0,0-5.56-1.9v1.295Zm4.037,1.9h0A30.923,30.923,0,0,1,38.437,61.7h0a30.468,30.468,0,0,1-4.837.609h0a30.467,30.467,0,0,1-14.015-2.361h-.533c-6.284-2.818-9.14-8.188-2.932-12.415A33.057,33.057,0,0,0,13.8,44.408a10.778,10.778,0,0,1-.762-1.066,3.009,3.009,0,0,0,.267,3.313.343.343,0,0,1,0,.381L8.846,52.329a.267.267,0,0,1-.419,0C-13.738,28.07,11.435-8.72,41.9,1.868a.3.3,0,0,1,0,.419l-4.57,7.921a.228.228,0,0,1-.3,0c-1.485-.267-2.4-.19-3.009.419a26.659,26.659,0,0,1,4.075,1.257,37.171,37.171,0,0,1,4.189-3.808h0a.229.229,0,0,1,.229,0h0l3.2,8.036a.5.5,0,0,1,0,.229h-.267c.571,1.714,4.494,13.558,5.713,16.757a16.224,16.224,0,0,1,1.257,3.808c0,1.1-.762,1.6-2.285,1.714-.762.724-.876.99-.457,1.523a1.734,1.734,0,0,1-.571,2.323c.914.724.686,2.018.267,2.018a1.371,1.371,0,0,0-1.257.762c2.818,2.742.5,5.1-3.237,5.9a19.042,19.042,0,0,1-4.037.3h0a21.4,21.4,0,0,0-.914,4.494,26.926,26.926,0,0,1,6.246,2.285h0a.533.533,0,0,1,0,.229h0l-2.209.99Zm-26.2-10.854h0a6.931,6.931,0,0,1,.229,2.209,3.123,3.123,0,0,0,.8-4.113l-1.371.838.343.952Zm-.457.571a3.808,3.808,0,0,0-1.98,2.628,6.7,6.7,0,0,0,2.057-.533,7.617,7.617,0,0,0,0-2.095Zm-1.828,3.2a3.085,3.085,0,0,0,.343,1.1,5.332,5.332,0,0,0,4.837-7.921l-1.371.914C19.852,48.635,20.538,52.443,15.244,53.053Zm.647,1.638a5.636,5.636,0,0,0,1.257,1.257,7.122,7.122,0,0,0,4.57-10.93l-1.028.876a5.827,5.827,0,0,1-4.951,8.8Zm1.828,1.676a8.074,8.074,0,0,0,1.828.876,9.483,9.483,0,0,0,3.808-13.6l-1.028.99a7.617,7.617,0,0,1-4.76,11.73ZM40,27.194a12.682,12.682,0,0,1,8-.533c-1.066-3.161-2.209-6.512-2.818-8.378A7.617,7.617,0,0,1,40.532,25.9,7.236,7.236,0,0,1,40,27.422Zm-.914.5h0a6.4,6.4,0,0,0,.838-2.133h0a7.617,7.617,0,0,0,0-2.095h0a11.425,11.425,0,0,0-.229-1.6l-.838.99a6.55,6.55,0,0,1-2.209,5.636,6.169,6.169,0,0,1,0,1.676,8.759,8.759,0,0,0,2.437-2.475Zm-14.7,17.024a3.808,3.808,0,0,1,.914-1.6,5.408,5.408,0,0,1-.419-1.219l-1.257,1.371a6.7,6.7,0,0,1,.762,1.485Zm1.371-1.98A3.808,3.808,0,0,1,26.9,42.2a8.036,8.036,0,0,1-.5-2.095l-1.028,1.219a6.474,6.474,0,0,0,.381,1.409ZM12.083,44.9a6.246,6.246,0,0,1,.533-2.133,19.042,19.042,0,0,1-3.161-8.835h0V32.716a1.561,1.561,0,0,1,0-.419,22.622,22.622,0,0,1,.229-3.808h0l.229-1.181a22.013,22.013,0,0,1,5.332-10.587h0a21.289,21.289,0,0,1,2.59-2.323h0a19.042,19.042,0,0,1,5.027-2.7h0a20.641,20.641,0,0,1,7.16-1.257.914.914,0,0,1,.457,0,19.385,19.385,0,0,1,2.932.229,2.59,2.59,0,0,1,1.676-.99h-.3a17.747,17.747,0,0,0-3.808-.609h0A21.86,21.86,0,0,0,13.682,16.3h0a19.727,19.727,0,0,0-2.247,3.2h0a24.259,24.259,0,0,0-1.9,3.351h0a17.975,17.975,0,0,0-1.143,3.5,22.85,22.85,0,0,0,1.828,15.234h0a25.745,25.745,0,0,0,1.866,3.275Zm1.066-2.361h0l.609.876c1.143-.876,2.171-1.79,3.2-2.742l-1.371-.724a3.009,3.009,0,0,1-2.628,1.143.268.268,0,0,1-.267-.381,17.937,17.937,0,0,0,0-3.5,3.047,3.047,0,0,1-.3-.609,6.817,6.817,0,0,1-1.371,0c-.343,0-.457-.267-.19-.5.876-.8.724-1.98.914-3.466A17.443,17.443,0,0,0,9.988,33.82a18.128,18.128,0,0,0,3.085,8.531Zm2.78,3.808c11.692-7.921,16.376-22.165,26.849-31.115l-1.561-.3c-.3,0-.3,0-.267-.419l.267-2.171C31.544,22.2,25.984,38.428,15.206,45.284l.724.99Zm27.23-35.761L41.9,11.655l-.343,2.7,1.79.381,1.028-.8-.267-.724a.914.914,0,0,1-1.219-.609.99.99,0,0,1,.571-1.181l-.3-.876ZM17.681,41.056a44.6,44.6,0,0,1-3.5,3.047h0l.571.724a50.042,50.042,0,0,0,14.243-16.49A93,93,0,0,1,41.331,11.427h0l1.523-1.409-.419-1.295a40.9,40.9,0,0,0-5.256,5.332h0a121.868,121.868,0,0,0-8.226,11.92c-1.333,2.057-2.7,4.151-4.113,6.208h0c-.571.838-1.143,1.638-1.752,2.437h0l-1.333,1.714h0c-.647.838-1.333,1.638-2.057,2.437h0c-.533.647-1.143,1.257-1.714,1.828Zm-.229-.571L18.71,39.19a5.56,5.56,0,0,1-4.722-3.275,5.332,5.332,0,0,1-.99.762l.267.457h0a8.493,8.493,0,0,0,4.113,3.237Zm1.6-1.98c.457-.457.876-.952,1.295-1.447-4.875,1.371-8-6.322.381-9.521a14.471,14.471,0,0,1-1.676-.686c-5.446,2.437-7.274,10.7,0,11.654Zm2.057-2.4,1.257-1.6a3.428,3.428,0,0,0-1.98-3.808,4.722,4.722,0,0,0-1.333.914c2.628.419,2.59,3.808,0,3.808s-1.9-2.437-1.028-3.808h0a5.941,5.941,0,0,1,1.942-1.523h0a12,12,0,0,1,2.894-.876h0a13.063,13.063,0,0,1,1.828-.3,14.7,14.7,0,0,0-1.828-.647l-1.143-.419c-8.988,2.932-5.37,10.854-.5,8.264Zm1.866-2.437c.419-.533.8-1.1,1.181-1.638a4.8,4.8,0,0,0-1.295-2.209,8.226,8.226,0,0,0-1.676.647,3.808,3.808,0,0,1,1.9,3.313Zm1.6-2.247,1.219-1.828-.3-.229a5.464,5.464,0,0,0-2.095.3,6.17,6.17,0,0,1,1.181,1.752ZM26.1,29.136l1.257-1.942a30.467,30.467,0,0,0-6.208,0l1.9.609a15.234,15.234,0,0,1,2.628,1.143h0l.343.267Zm1.714-2.475.876-1.409a23.536,23.536,0,0,0-6.322-.381,24.945,24.945,0,0,1-5.979-.381,9.9,9.9,0,0,0,3.2,1.9,24.412,24.412,0,0,0,3.808,0A18.28,18.28,0,0,1,27.812,26.66Zm1.181-1.9.762-1.143a25.554,25.554,0,0,0-8.15-.571,11.159,11.159,0,0,1-7.122-1.6,7.617,7.617,0,0,0,1.1,2.247,38.084,38.084,0,0,0,10.549.647,12.111,12.111,0,0,1,2.856.457Zm1.066-1.638c.419-.267.419-.8.762-1.181a13.1,13.1,0,0,0-2.628-.609h0A45.7,45.7,0,0,0,21.3,21.1a13.406,13.406,0,0,1-4.189-.419h0a5.218,5.218,0,0,1-2.666-1.9l-.381.267a12.911,12.911,0,0,0,0,1.333c1.447,1.9,4.227,2.171,7.388,2.171a24.336,24.336,0,0,1,8.455.647Zm6.969-9.788.8-.99a28.144,28.144,0,0,0-4.38-.914h0l-1.98-.381a2.59,2.59,0,0,1,.343,1.561,1.561,1.561,0,0,1,.571,1.1,1.9,1.9,0,0,1,1.6,0,1.79,1.79,0,0,1,3.047-.267ZM5.342,47.607,10.56,43.8l-.724-1.333L5.494,45.131c-.343.19-.647-.3-.3-.5l4.418-2.7c0-.381-.343-.762-.5-1.143L3.1,43.608a31.343,31.343,0,0,0,2.247,4.113Zm5.484-3.428L5.647,47.987A38.579,38.579,0,0,0,8.617,51.8l4.075-4.913a11.426,11.426,0,0,1-.762-1.1L8.122,49.587a.269.269,0,1,1-.381-.381L11.55,45.4c-.267-.381-.5-.8-.762-1.219ZM2.867,42.77l6.017-2.818a4.012,4.012,0,0,0-.419-1.181L3.552,40.218a.267.267,0,1,1,0-.533l4.76-1.6c-.19-.533-.3-1.066-.457-1.6l-6.512,1.6a28.373,28.373,0,0,0,1.523,4.722ZM1.191,37.476l6.436-1.409A2.532,2.532,0,0,0,7.36,34.7l-5.065.5a.3.3,0,0,1,0-.571l5.1-.343V32.716H.734a28.259,28.259,0,0,0,.457,4.76Zm-.609-5.6H7.246V30.659L2.1,30.088a.3.3,0,1,1,0-.571l5.141.571V28.374L.924,27.041a34.009,34.009,0,0,0-.343,4.837Zm.457-5.218L7.627,27.8V26.66L2.79,24.947a.3.3,0,0,1,.19-.571l4.913,1.561.343-1.257L2.257,21.671A29.515,29.515,0,0,0,1.039,26.66Zm1.447-5.332L8.427,24.3a3.461,3.461,0,0,1,.5-1.257l-4.57-2.818a.275.275,0,0,1,.3-.457l4.456,2.742c.229-.457.419-.914.647-1.333l-5.37-4.3a33.018,33.018,0,0,0-1.9,4.265Zm2.209-4.951,5.332,4.075.609-1.028L6.827,15.616a.3.3,0,0,1,.3-.381l3.808,3.808a15.234,15.234,0,0,1,.876-1.295L7.36,12.417a34.276,34.276,0,0,0-2.666,3.808ZM7.627,11.96l4.608,5.218a11.845,11.845,0,0,1,.876-1.066L9.76,11.427a.3.3,0,0,1,.457-.343l3.275,4.494L14.52,14.55,10.978,8.532A34.808,34.808,0,0,0,7.7,11.96Zm3.808-3.808,3.542,6.093.952-.8-2.361-5.37a.3.3,0,1,1,.533-.229l2.247,5.218,1.257-.876L15.244,5.219a32.448,32.448,0,0,0-3.808,2.932Zm4.38-3.237,2.323,6.931,1.143-.647L17.872,5.41a.267.267,0,0,1,.533,0l1.371,5.636,1.219-.571L20,2.858a31.343,31.343,0,0,0-4.227,2.133Zm4.722-2.323.99,7.617,1.333-.647V3.315a.286.286,0,1,1,.571,0l.19,6.093a8.572,8.572,0,0,0,1.333-.343L25.3,1.182a28.563,28.563,0,0,0-4.76,1.409Zm5.332-1.523-.533,7.807L26.9,8.609l.952-6.17a.3.3,0,0,1,.571,0l-.952,6.093h1.219L30.706.573a29.325,29.325,0,0,0-4.837.5Zm5.446-.5L29.3,8.418h1.561L32.8,2.249a.283.283,0,0,1,.533.19l-1.9,6.017h1.447L36.152.84A30.01,30.01,0,0,0,31.315.573Zm5.408.5L33.448,8.685l1.295.267,3.351-6.17a.3.3,0,0,1,.381.267l-3.2,6.132,1.676.533,4.494-7.426a37.474,37.474,0,0,0-4.722-1.219ZM26.364,18.32h0a3.808,3.808,0,0,1-1.447,0h0a3.123,3.123,0,0,0,.99,1.828l.762.419,1.447-5.332c-1.409-.381-1.79-2.894,0-3.2a1.371,1.371,0,0,1,.457-1.066,17.671,17.671,0,0,0-2.894.381l.267,2.932V14.7a.3.3,0,1,1-.571,0v-.114l-1.181-.838a1.447,1.447,0,0,0,.914,2.514h.419a.3.3,0,0,1,.571,0v2.209h0Zm-2.133-5.294h0l.914.686V11.389a18.091,18.091,0,0,0-2.285.838,3.237,3.237,0,0,0-.381,4.456h0A3.808,3.808,0,0,0,25.527,17.9V16.644H25.07a2.018,2.018,0,0,1-1.98-1.98,1.942,1.942,0,0,1,.609-1.447c0-.229,0-.571.419-.381ZM24,18.32a4.684,4.684,0,0,1-1.638-1.066,4.189,4.189,0,0,1-4.418-2.018,20.831,20.831,0,0,0-1.942,1.714l1.219.3h.3a6.322,6.322,0,0,0,6.208.99Zm-2.057-1.561a3.808,3.808,0,0,1,0-4.113,21.746,21.746,0,0,0-3.58,2.018,3.808,3.808,0,0,0,3.542,2.095Zm-4.532.952h0a5.674,5.674,0,0,0,0,2.4,12.225,12.225,0,0,0,3.808.381h3.5A3.389,3.389,0,0,1,24,19.044a6.779,6.779,0,0,1-6.589-1.219Zm.952,8.95L17.3,26.089l-1.181.876h0a16.452,16.452,0,0,0-1.828,1.79h0l-.571.762h0a7.274,7.274,0,0,0-1.143,2.742,10.054,10.054,0,0,1-.762,3.808,2.475,2.475,0,0,0,2.095-1.028,8.8,8.8,0,0,1,4.456-8.378Zm.343,5.6a.99.99,0,0,0,0,.343c-.647,1.295,0,2.285.838,2.285,1.79,0,1.676-2.552-.647-2.628Zm-3.237-5.6a8.226,8.226,0,0,1-2.59-2.78,3.808,3.808,0,0,0,0,1.79h0a7.16,7.16,0,0,0,1.1,2.361,16.377,16.377,0,0,1,1.485-1.371ZM13.378,38.086a12.682,12.682,0,0,1,0,2.4,2.133,2.133,0,0,0,1.866-.762,6.284,6.284,0,0,1-1.866-1.638Zm-.267-10.511-1.143.571.609,1.219a1.866,1.866,0,0,1,.647-.229,3.161,3.161,0,0,1,.457-.609,6.285,6.285,0,0,1-.571-.952ZM9.95,32.64v.686a10.321,10.321,0,0,1,1.942-1.143,7.617,7.617,0,0,1,.8-2.247h0a8.188,8.188,0,0,0-2.59,2.628Zm0-3.808a15.653,15.653,0,0,0,0,2.666,7.617,7.617,0,0,1,1.028-1.028l-.914-1.485Zm.3-1.9a9.75,9.75,0,0,0-.19,1.028l1.371,2.171a2.513,2.513,0,0,1,.647-.457c-1.028-2.095-1.219-1.638.762-2.628a7.084,7.084,0,0,1-.381-.952,6.17,6.17,0,0,0-2.095,1.028Zm3.2-7.388a21.479,21.479,0,0,0-3.009,6.589,6.284,6.284,0,0,1,1.79-.762,4.875,4.875,0,0,1,.343-2.514c0-.343.5-.3.533,0,.229,1.447,1.676,2.59,2.818,3.466l.876-.647a7.96,7.96,0,0,1-3.237-5.9Zm1.98-2.514-.914,1.028a4.8,4.8,0,0,0,2.057,1.676,5.446,5.446,0,0,1,0-2.361l-1.257-.343Zm16.186-1.79a1.9,1.9,0,0,1-1.143.343,9.026,9.026,0,0,0,0,2.475L32,16.454a2.1,2.1,0,0,1-.381-1.219Zm-1.676,1.714a1.03,1.03,0,0,1-1.028-.686c-.152-.457.533,0,.609,0h.457l.114-1.028h0v-.3a.267.267,0,1,1,.533,0,1.143,1.143,0,1,0-.152-2.095.3.3,0,1,1,0-.571,1.98,1.98,0,0,1,1.066,0c0-2.437-3.808-.952-1.79.838a.3.3,0,0,1-.381.457,3.009,3.009,0,0,1-.724-.952c-1.333.229-.952,1.828,0,2.133h0a.267.267,0,1,1,.533,0v.3h0l-1.79,5.6h.686l1.98-2.133a5.065,5.065,0,0,1,0-1.523Zm2.818,2.095a2.057,2.057,0,0,1-.343-1.6c0-.267.3,0,.381.229a1.752,1.752,0,0,0,.647.343c.457-.686.952-1.371,1.447-2.018s1.143-1.523,1.752-2.247c-.99-1.143-2.628-.5-2.171,1.371a.3.3,0,0,1-.571.114,2.818,2.818,0,0,1,0-1.1A1.181,1.181,0,0,0,32.534,16a.3.3,0,0,1,.419.419l-2.475,2.4v.229l-1.79,1.942a14.776,14.776,0,0,1,2.4.609c.533-.8,1.028-1.6,1.6-2.4Zm-2.552,16a5.789,5.789,0,0,0,4.075-5.865l-2.095,3.085c-.647.952-1.257,1.866-1.942,2.78ZM36.533,27.8a5.789,5.789,0,0,0,1.79-4.265c-.724.914-1.447,1.9-2.133,2.856A9.483,9.483,0,0,1,36.533,27.8Zm4.151-4.951a4.608,4.608,0,0,0,1.98-3.808,21.289,21.289,0,0,0-2.247,2.285,11.68,11.68,0,0,0,.267,1.6Zm0,2.361a7.617,7.617,0,0,0,3.808-7.845l-1.371,1.1a5.294,5.294,0,0,1-2.475,5.065,8.112,8.112,0,0,1,0,1.676Zm-11.425,12.3h0A7.96,7.96,0,0,0,36,30.774a8.53,8.53,0,0,0,0-2.209h0a10.13,10.13,0,0,0-.267-1.409L34.7,28.641a6.512,6.512,0,0,1-5.1,7.617l-1.028,1.066Zm-12.53,9.94h0V47.8A27.916,27.916,0,0,0,20.119,45.7h0c.5-.381.952-.8,1.409-1.219h0l1.333-1.447h0c.609-.609,1.181-1.219,1.752-1.866h0c.533-.571,1.028-1.181,1.523-1.79h0l1.257-1.638h0l1.409-1.9h0c2.171-2.78,3.77-5.37,5.484-7.541h0c.457-.647.914-1.333,1.409-1.98h0c.8-1.1,1.6-2.209,2.437-3.237l.229-.3h0c.457-.571.952-1.181,1.447-1.714h0a31.571,31.571,0,0,1,2.742-2.78h0A22.85,22.85,0,0,1,44.416,16.8h.267l-.533-1.6-.533.038h0c-10.74,8.95-15.234,23.46-27.268,31.457l.457.724Zm10.283,1.066h0a2.209,2.209,0,0,0,.724,0,3.047,3.047,0,0,0,1.9-.686h0A2.894,2.894,0,0,0,30.782,45.7a2.742,2.742,0,0,0-.3-1.295h0a2.932,2.932,0,0,0-2.666-1.676h-.5a3.009,3.009,0,0,0-1.447.686h0a3.009,3.009,0,0,0,1.181,5.1ZM19.4,59.336a12.3,12.3,0,0,0,2.361-1.1h0a12.682,12.682,0,0,0,1.752-1.371h0a10.854,10.854,0,0,0,3.161-7.617,3.313,3.313,0,0,1-1.485-.99A9.407,9.407,0,0,1,19.585,58h-.3a8.417,8.417,0,0,1-2.4-1.219h0a7.122,7.122,0,0,1-1.638-2.133h0c-.952-1.638-.762-3.808,1.942-5.217a7.312,7.312,0,0,0-.533-1.257c-5.484,3.808-3.313,8.417,2.894,11.425Zm2.59-.571a10.245,10.245,0,0,1-1.828.914A30.467,30.467,0,0,0,32.229,61.85a69.39,69.39,0,0,0-10.245-3.085Zm1.9-1.447a10.587,10.587,0,0,1-1.219.99,75.406,75.406,0,0,1,10.892,3.466,31.342,31.342,0,0,0,3.808-.419C33.943,60.212,27.05,58.042,24,57.318Zm3.5-8.15a11.692,11.692,0,0,1-3.047,7.617C27.888,57.7,35.771,60.1,38.4,61.126l1.143-.267a18.318,18.318,0,0,1,.686-9.14A22.317,22.317,0,0,1,30.02,48.483a3.542,3.542,0,0,1-2.095.686Zm0-7.617.229.724h.19a3.5,3.5,0,0,1,1.561.381c.381-1.523-1.143-2.209-2.133-1.066Zm2.057-2.856a3.808,3.808,0,0,1,1.79,5.789,2.971,2.971,0,0,1,.267,1.333,3.466,3.466,0,0,1-.99,2.437,20.832,20.832,0,0,0,14.243,2.818c3.808-.8,5.217-2.856,2.78-5.1-.419-.381.724-1.447,1.561-1.523a.99.99,0,0,0-.571-1.181,18.356,18.356,0,0,0-4.38.8.267.267,0,1,1-.533,0,2.209,2.209,0,0,1,.3-1.219c0-.381.647,0,.5,0a1.409,1.409,0,0,0,0,.419,16,16,0,0,1,4.3-.762c.3-.229,1.143-.838.952-1.257a1.447,1.447,0,0,0-.267-.419,1.371,1.371,0,0,1,0-2.018,3.313,3.313,0,0,0-2.856.762c-.381.419-1.066-.724-1.143-.876a1.942,1.942,0,0,1,.724-2.323.283.283,0,0,1,.381.419c-.762.686-.952,1.447-.229,2.171h0a4.227,4.227,0,0,1,3.808-.647h0c2.133,0,1.98-1.028,1.409-2.59-.229-.647-.533-1.371-.838-2.209s-1.333-3.808-2.247-6.4a12.3,12.3,0,0,0-8.645.8,10.549,10.549,0,0,1-3.009,2.932,8.569,8.569,0,0,1-7.388,7.007v.686Zm-.571,0v-.533a1.828,1.828,0,0,1-.647,0c-.419.533-.8,1.066-1.219,1.561a6.322,6.322,0,0,0,0,1.257,1.752,1.752,0,0,1,2.78,2.057,3.808,3.808,0,0,1,.952.99,3.047,3.047,0,0,0-2.285-4.76.286.286,0,1,1,0-.571Zm9.94-20.489a.533.533,0,1,1-.533-.533.533.533,0,0,1,.533.533Zm1.523-1.752a.609.609,0,0,1-.609.571.571.571,0,0,1-.571-.571.591.591,0,1,1,1.181,0Zm-3.009,3.808a.457.457,0,1,1-.147-.337.457.457,0,0,1,.147.337ZM20.842,14.7a.591.591,0,1,1,0-.038Zm6.969,31.991a1.066,1.066,0,0,0,1.028-.99,1.085,1.085,0,0,0-2.171,0A1.066,1.066,0,0,0,27.7,46.731Zm0,.571a1.58,1.58,0,1,1,0,.038ZM49.862,38.39Zm-8.455-6.436a4.646,4.646,0,0,1,0-1.676,7.617,7.617,0,0,0-2.4,1.181,8.53,8.53,0,0,0,1.1.3l1.447.19Zm.5-1.828a3.808,3.808,0,0,0,0,1.866h1.181A2.1,2.1,0,0,1,42.7,31a2.247,2.247,0,0,1,0-1.028,5.9,5.9,0,0,0-1.181.228Zm2.4-.876a3.2,3.2,0,0,1,1.066,0,.267.267,0,0,1,.267.267c0,.343-.457.533-.8.647a1.219,1.219,0,0,1,0,.533c0,.8-.267,1.523-.762,1.638h0a12.645,12.645,0,0,1-2.133,0h0a10.7,10.7,0,0,1-3.389-.609h0a.3.3,0,0,1-.457-.381h.19a8.836,8.836,0,0,1,6.093-2.095Z" transform="translate(0.004 0.001)" fill="#29023f"/>
      <path id="Path_153" data-name="Path 153" d="M17,2.208V3.237h3.2v9.94h1.219V3.2h3.2v-.99Zm10.13,0V13.177H33.11V12.148H28.425V8h4.3V6.969h-4.3V3.16h4.761V2.208Zm14.053.724A4.837,4.837,0,0,1,44,3.694l.5-.876a6.893,6.893,0,0,0-3.313-.838,5.6,5.6,0,0,0-5.789,5.675,5.484,5.484,0,0,0,5.789,5.713,7.007,7.007,0,0,0,3.237-.99L44,11.615a6.284,6.284,0,0,1-2.818.8,4.57,4.57,0,0,1-4.57-4.76,4.532,4.532,0,0,1,4.57-4.722ZM47.2,2.208V13.177h1.219V7.921H54.4v5.256h1.219V2.208H54.4V6.893H48.419V2.208ZM60.8,1.98l-1.257.229V13.177h1.143V3.732l6.474,9.673,1.295-.381V2.208H67.309v9.407L60.8,1.942Zm12.073.229V13.177h1.257V2.208Zm7.617,10.321a4.684,4.684,0,0,1-2.552-.8l-.5.8a5.484,5.484,0,0,0,2.932.8,3.085,3.085,0,0,0,3.466-3.085c0-1.676-1.181-2.4-2.437-3.009l-.914-.419c-.8-.419-1.638-.952-1.638-1.98A2.057,2.057,0,0,1,81.019,2.78a4.227,4.227,0,0,1,2.323.762l.419-.8a5.522,5.522,0,0,0-2.818-.8A2.971,2.971,0,0,0,77.668,4.76c0,2.285,1.714,2.7,3.313,3.5.876.419,1.638.952,1.638,2.095A2.133,2.133,0,0,1,80.3,12.491Zm11.92-9.635a4.951,4.951,0,0,1,2.856.762l.457-.876a6.893,6.893,0,0,0-3.313-.838,5.6,5.6,0,0,0-5.789,5.675,5.484,5.484,0,0,0,5.789,5.713,7.274,7.274,0,0,0,3.275-.99l-.457-.762a6.17,6.17,0,0,1-2.818.8,4.532,4.532,0,0,1-4.532-4.76,4.532,4.532,0,0,1,4.532-4.722Zm6.436-.686V13.177H100.1V7.921h5.979v5.256H107.3V2.208h-1.219V6.893H100.1V2.208Zm12.339,0V13.177h5.979V12.148h-4.722V8H116.7V6.969h-4.265V3.16h4.722V2.208ZM26.711,27.534v-7.2H25.493v7.007c0,2.475-1.181,3.237-3.047,3.237s-2.971-1.1-2.971-3.237V20.336H18.219v7.312c0,2.475,1.447,3.808,4.189,3.808,2.057,0,4.3-.647,4.3-3.808Zm4.722-7.426-1.257.3V31.3h1.181V21.9l6.436,9.673,1.295-.381V20.336H37.946v9.407Zm11.425.229V31.3h1.219V20.336Zm4.8,0-1.181.381,4.189,10.74h1.181l4.227-10.74-1.143-.381L51.276,30.01l-3.618-9.826Zm10.778,0V31.3h5.979v-.99H59.768V26.125h4.265V25.059H59.768V21.25h4.722v-.914Zm11.425,5.37H68.413V21.25h1.9c1.9,0,2.475.914,2.475,2.171s-1.371,2.247-2.78,2.247Zm.609-5.37H67.157V31.343h1.257v-4.76h.99a1.9,1.9,0,0,1,1.714.914l.457.571,2.59,3.542,1.066-.647L73.06,28.067c-.419-.533-.99-1.561-1.714-1.714v-.229a2.552,2.552,0,0,0,2.78-2.856c0-1.79-1.219-2.932-3.313-2.932Zm9.14,10.4a4.38,4.38,0,0,1-2.323-.8l-.5.8a5.256,5.256,0,0,0,2.894.838,3.123,3.123,0,0,0,3.5-3.123c0-1.638-1.181-2.361-2.437-2.971l-.724-.419c-.8-.419-1.638-.952-1.638-1.98a2.057,2.057,0,0,1,2.171-2.057,3.808,3.808,0,0,1,2.323.762l.419-.8a5.522,5.522,0,0,0-2.818-.8A2.932,2.932,0,0,0,77.211,23c0,2.285,1.676,2.7,3.313,3.5.876.419,1.6.952,1.6,2.057A2.133,2.133,0,0,1,79.8,30.733Zm7.084-10.4V31.3h1.219V20.336Zm3.808,0v.914h3.237V31.3H94.92V21.25h3.275v-.914Zm13.253,1.1,2.018,5.446h-4.3l2.095-5.446ZM108.4,31.19l-4.227-10.854h-1.257L98.423,31.19l1.219.419,1.485-3.808h4.76l1.447,3.808Zm-1.79-11.425h-1.1V21.25h1.1V19.765Zm-5.1,1.485v-1.6h-1.1v1.6Zm8.15-.724v.724H112.9V31.3h1.181V21.25h3.237v-.914ZM21.037,48.709h-1.6V39.454H21.3c3.047,0,5.027,1.561,5.027,4.456s-2.018,4.608-5.294,4.608Zm.533-10.016H18.219V49.661h2.971c3.808,0,6.322-1.942,6.322-5.636a5.179,5.179,0,0,0-5.941-5.332Zm12.72,1.1,2.057,5.408H32.234L34.29,39.8Zm4.989,9.711L34.938,38.693H33.681L29.187,49.318l1.219.457,1.485-3.808h4.76L38.1,49.775l1.181-.457Zm5.636-5.484H43.659v-4.57h1.752c1.9,0,2.437.914,2.437,2.171s-1.333,2.209-2.742,2.209Zm.609-5.332H42.212V49.661h1.447V44.748h.99a2.018,2.018,0,0,1,1.714.876l.457.609,2.59,3.5,1.066-.647-2.171-2.856c-.419-.533-1.028-1.561-1.714-1.714v-.229a2.552,2.552,0,0,0,2.4-2.856A2.894,2.894,0,0,0,45.715,38.5Zm11.425,0H55.579L52.532,49.547l1.181.3L56.3,40.33l2.78,9.331h1.371l2.932-9.369,2.552,9.559,1.181-.3L64.072,38.693H62.7l-2.818,9.216L57.064,38.35ZM72.184,49.014a4.342,4.342,0,0,1-2.323-.762l-.5.8a5.256,5.256,0,0,0,2.894.8,3.123,3.123,0,0,0,3.5-3.085c0-1.676-1.181-2.361-2.437-2.971l-.914-.457c-.8-.381-1.676-.914-1.676-1.942a2.057,2.057,0,0,1,2.209-2.057,3.808,3.808,0,0,1,2.323.762l.419-.8a5.522,5.522,0,0,0-2.818-.8,2.932,2.932,0,0,0-3.275,2.818c0,2.285,1.676,2.7,3.313,3.466.876.457,1.6.99,1.6,2.095a2.095,2.095,0,0,1-2.323,2.133ZM77.934,38.5v.99h3.2v9.978h1.219V39.493h3.2V38.5Zm13.367,1.1,2.018,5.408H89.359l2.095-5.408Zm4.989,9.749L91.949,38.5H90.654L86.2,49.356l1.219.419,1.447-3.808h4.8l1.409,3.808Zm5.332-.838h-1.6V39.454h1.866c3.047,0,5.027,1.561,5.027,4.456s-2.018,4.608-5.294,4.608Zm.533-10.016H98.8V49.471h2.971c3.808,0,6.322-1.942,6.322-5.636a5.179,5.179,0,0,0-5.941-5.332Zm7.617,0v.99h3.237v9.978h1.181V39.493h3.275V38.5Z" transform="translate(47.757 5.411)" fill="#29023f"/>
    </g>
  </g>
</svg>
