<svg xmlns="http://www.w3.org/2000/svg" width="104.266" height="51.239" viewBox="0 0 104.266 51.239">
  <g id="Telekom_logo" transform="translate(0 0.02)">
    <path id="Path_4241" data-name="Path 4241" d="M0,227V216.63H10.375V227Zm31.638,0V216.63H42.014V227H31.638Zm31.126,0V216.63H73.139V227Zm31.127,0V216.63h10.375V227Z" transform="translate(0 -193.078)" fill="#29023f"/>
    <path id="Path_4242" data-name="Path 4242" d="M41.5-.02H.512L0,18.062l2.72.47q.762-7.99,4.194-11.859c2.41-2.7,5.728-4.109,9.994-4.23v37.82c0,3.3-.461,5.448-1.425,6.437a6.627,6.627,0,0,1-4.159,1.555q-.87.073-2.965.073V51.22h25.3V48.327q-2.1,0-2.965-.073A6.622,6.622,0,0,1,26.531,46.7c-.964-.989-1.431-3.133-1.431-6.437V2.441c4.266.121,7.59,1.531,10,4.23Q38.536,10.54,39.3,18.531l2.72-.47Z" fill="#29023f"/>
  </g>
</svg>
