<svg id="twitter" xmlns="http://www.w3.org/2000/svg" width="22.85" height="18.565" viewBox="0 0 22.85 18.565">
  <g id="Group_3" data-name="Group 3" transform="translate(0 0)">
    <path id="Path_5" data-name="Path 5" d="M22.849,50.2a9.766,9.766,0,0,1-2.7.74,4.658,4.658,0,0,0,2.061-2.589,9.362,9.362,0,0,1-2.97,1.134,4.684,4.684,0,0,0-8.1,3.2,4.823,4.823,0,0,0,.109,1.068,13.259,13.259,0,0,1-9.655-4.9,4.686,4.686,0,0,0,1.44,6.261,4.626,4.626,0,0,1-2.116-.577v.051a4.706,4.706,0,0,0,3.753,4.6,4.675,4.675,0,0,1-1.228.154,4.142,4.142,0,0,1-.887-.08,4.729,4.729,0,0,0,4.377,3.263,9.412,9.412,0,0,1-5.808,2A8.774,8.774,0,0,1,0,64.463a13.188,13.188,0,0,0,7.186,2.1,13.241,13.241,0,0,0,13.333-13.33c0-.207-.007-.407-.017-.606A9.345,9.345,0,0,0,22.849,50.2Z" transform="translate(0 -48)" fill="#29023f"/>
  </g>
</svg>
