<?xml version="1.0" encoding="utf-8"?>
<!-- Generator: Adobe Illustrator 23.0.0, SVG Export Plug-In . SVG Version: 6.00 Build 0)  -->
<svg version="1.1" id="Layer_1" xmlns="http://www.w3.org/2000/svg" xmlns:xlink="http://www.w3.org/1999/xlink" x="0px" y="0px"
	 viewBox="0 0 176 176" style="enable-background:new 0 0 176 176;" xml:space="preserve">
<style type="text/css">
	.st0{fill:#29023F;}
</style>
<g>
	<g>
		<path class="st0" d="M141.1,46.8c-7,0-12.8-5.7-12.8-12.8c0-1.4-1.1-2.6-2.6-2.6H54.2c-1.4,0-2.6,1.1-2.6,2.6
			c0,7-5.7,12.8-12.8,12.8c-1.4,0-2.6,1.1-2.6,2.6v41.7c0,32.5,21.2,61.7,53,71.2c0.2,0.1,0.5,0.1,0.7,0.1c0.2,0,0.5,0,0.7-0.1
			c31.1-9.3,53-38,53-71.2V49.4C143.7,47.9,142.5,46.8,141.1,46.8z M138.6,91.1c0,30.5-19.5,57-48.6,66.1
			c-28.9-9-48.6-35.7-48.6-66.1V51.7c7.8-1.1,14-7.3,15.2-15.2h66.8c1.1,7.8,7.3,14,15.2,15.2L138.6,91.1L138.6,91.1z"/>
		<path class="st0" d="M90,162.6c-0.3,0-0.5,0-0.8-0.1c-15.6-4.7-28.9-14-38.5-27.1C41.1,122.5,36,107.2,36,91.1V49.4
			c0-1.6,1.3-2.8,2.8-2.8c6.9,0,12.5-5.6,12.5-12.5c0-1.6,1.3-2.8,2.8-2.8h71.6c1.6,0,2.8,1.3,2.8,2.8c0,6.9,5.6,12.5,12.5,12.5
			c1.6,0,2.8,1.3,2.8,2.8v41.7c0,16.3-5.1,31.7-14.9,44.7c-9.6,12.9-22.9,22.1-38.3,26.7C90.5,162.6,90.3,162.6,90,162.6z
			 M54.2,31.7c-1.3,0-2.3,1-2.3,2.3c0,7.2-5.8,13-13,13c-1.3,0-2.3,1-2.3,2.3v41.7c0,33,21.2,61.5,52.8,70.9c0.4,0.1,0.9,0.1,1.3,0
			c31.6-9.5,52.8-38,52.8-70.9V49.4c0-1.3-1-2.3-2.3-2.3c-7.2,0-13-5.8-13-13c0-1.3-1-2.3-2.3-2.3H54.2z M90,157.4L90,157.4
			c-14.3-4.5-26.5-13.1-35.3-25.1c-8.8-12-13.5-26.3-13.5-41.2V51.5l0.2,0c7.7-1.1,13.8-7.3,14.9-14.9l0-0.2h67.3l0,0.2
			c1.1,7.7,7.3,13.8,14.9,14.9l0.2,0v39.6c0,15-4.6,29.3-13.4,41.2C116.6,144.2,104.4,152.9,90,157.4L90,157.4z M41.7,52v39.1
			c0,30.3,19.4,56.7,48.3,65.8c28.9-9,48.3-35.5,48.3-65.8V52c-7.7-1.2-13.9-7.4-15.1-15.1H56.8C55.6,44.6,49.4,50.7,41.7,52z"/>
	</g>
	<g>
		<path class="st0" d="M131.9,55.1c-5.3-2.3-9.6-6.6-11.9-11.9c-0.4-0.9-1.3-1.5-2.3-1.5h-17.5c-1.4,0-2.6,1.1-2.6,2.6
			c0,1.4,1.1,2.6,2.6,2.6h15.9c2.7,5.3,7,9.6,12.3,12.3v32c0,25-15,46.6-38.4,55.3c-23.3-8.6-38.4-30.2-38.4-55.3v-32
			c5.3-2.7,9.6-7,12.3-12.3h15.9c1.4,0,2.6-1.1,2.6-2.6c0-1.4-1.1-2.6-2.6-2.6H62.3c-1,0-1.9,0.6-2.3,1.5
			c-2.3,5.3-6.6,9.6-11.9,11.9c-0.9,0.4-1.5,1.3-1.5,2.3v33.6c0,27.4,17,51.3,42.6,60.4c0.3,0.1,0.6,0.1,0.9,0.1
			c0.3,0,0.6,0,0.9-0.1c25.6-9.1,42.6-32.9,42.6-60.4V57.4C133.4,56.4,132.8,55.5,131.9,55.1z"/>
		<path class="st0" d="M90,151.9c-0.3,0-0.6-0.1-0.9-0.2c-12.7-4.5-23.4-12.6-31.1-23.4c-7.7-10.9-11.7-23.7-11.7-37.2V57.4
			c0-1.1,0.7-2.1,1.7-2.6c5.3-2.3,9.4-6.5,11.8-11.8c0.4-1,1.5-1.7,2.6-1.7h17.5c1.6,0,2.8,1.3,2.8,2.8s-1.3,2.8-2.8,2.8H64.1
			c-2.7,5.2-6.9,9.4-12.2,12.2v31.9c0,24.8,15,46.4,38.1,55c23.1-8.6,38.1-30.2,38.1-55V59.2c-5.2-2.7-9.4-6.9-12.2-12.2h-15.7
			c-1.6,0-2.8-1.3-2.8-2.8s1.3-2.8,2.8-2.8h17.5c1.1,0,2.1,0.7,2.6,1.7c2.3,5.3,6.5,9.4,11.8,11.8l0,0c1,0.4,1.7,1.5,1.7,2.6v33.6
			c0,13.5-4.1,26.4-11.7,37.2c-7.7,10.8-18.4,18.9-31,23.4C90.6,151.8,90.3,151.9,90,151.9z M62.3,41.9c-0.9,0-1.7,0.5-2.1,1.4
			c-2.4,5.4-6.6,9.7-12,12c-0.8,0.4-1.4,1.2-1.4,2.1v33.6c0,27.4,16.7,51,42.4,60.1c0.5,0.2,1,0.2,1.5,0
			c25.8-9.1,42.4-32.7,42.4-60.1V57.4c0-0.9-0.5-1.7-1.4-2.1l0,0c-5.4-2.4-9.7-6.6-12-12c-0.4-0.8-1.2-1.4-2.1-1.4h-17.5
			c-1.3,0-2.3,1-2.3,2.3c0,1.3,1,2.3,2.3,2.3h16l0.1,0.1c2.7,5.3,6.9,9.5,12.2,12.2l0.1,0.1v32.2c0,25-15.1,46.8-38.5,55.5l-0.1,0
			l-0.1,0c-23.4-8.7-38.5-30.4-38.5-55.5V58.9l0.1-0.1c5.3-2.7,9.5-6.9,12.2-12.2l0.1-0.1h16c1.3,0,2.3-1,2.3-2.3
			c0-1.3-1-2.3-2.3-2.3H62.3z"/>
	</g>
	<g>
		<g>
			<path class="st0" d="M104.4,85.5h-0.7v-3.4c0-6.4-5-11.7-11.3-11.8c-0.2,0-0.5,0-0.7,0c-6.3,0.1-11.3,5.4-11.3,11.8v3.4h-0.7
				c-1.1,0-2.1,1.2-2.1,2.6v17.2c0,1.4,0.9,2.6,2.1,2.6h24.9c1.1,0,2.1-1.2,2.1-2.6V88.2C106.5,86.7,105.6,85.5,104.4,85.5z
				 M94.3,96.8v5.2c0,0.6-0.5,1.1-1.1,1.1h-2.5c-0.6,0-1.1-0.5-1.1-1.1v-5.2c-0.6-0.6-0.9-1.4-0.9-2.2c0-1.7,1.3-3.1,2.9-3.1
				c0.2,0,0.5,0,0.7,0c1.6,0.1,2.9,1.5,2.9,3.1C95.3,95.4,94.9,96.2,94.3,96.8z M98.9,85.5h-6.5h-0.7h-6.5v-3.4
				c0-3.8,3.1-6.9,6.9-6.9c3.8,0,6.9,3.1,6.9,6.9L98.9,85.5L98.9,85.5z"/>
		</g>
	</g>
	<g>
		<g>
			<g>
				<g>
					<g>
						<path class="st0" d="M90.5,41.7c-1.4,0-2.6,1.1-2.6,2.6c0,1.3,1,2.4,2.3,2.5c1.5,0.2,2.8-1,2.8-2.5
							C93,42.8,91.9,41.7,90.5,41.7z"/>
					</g>
					<g>
						<path class="st0" d="M90.5,47.3c-0.1,0-0.2,0-0.3,0c-1.6-0.2-2.8-1.5-2.8-3.1c0-1.7,1.4-3.1,3.1-3.1s3.1,1.4,3.1,3.1
							c0,0.9-0.4,1.7-1,2.3C92,47,91.3,47.3,90.5,47.3z M90.5,42.2c-1.1,0-2,0.9-2,2c0,1.1,0.8,1.9,1.8,2c0.6,0.1,1.1-0.1,1.6-0.5
							c0.4-0.4,0.7-0.9,0.7-1.5C92.5,43.1,91.6,42.2,90.5,42.2z"/>
					</g>
				</g>
			</g>
		</g>
		<g>
			<g>
				<g>
					<path class="st0" d="M104,36.3c-1.3,0-2.3-1-2.3-2.3V13.5c0-1.3,1-2.3,2.3-2.3c1.3,0,2.3,1,2.3,2.3V34
						C106.3,35.3,105.3,36.3,104,36.3z"/>
				</g>
				<g>
					<path class="st0" d="M104,36.8c-1.6,0-2.8-1.3-2.8-2.8V13.5c0-1.6,1.3-2.8,2.8-2.8s2.8,1.3,2.8,2.8V34
						C106.9,35.6,105.6,36.8,104,36.8z M104,11.7c-1,0-1.8,0.8-1.8,1.8V34c0,1,0.8,1.8,1.8,1.8c1,0,1.8-0.8,1.8-1.8V13.5
						C105.8,12.5,105,11.7,104,11.7z"/>
				</g>
			</g>
		</g>
		<g>
			<g>
				<g>
					<path class="st0" d="M104,14.7c-3.8,0-6.8-3.1-6.8-6.8s3.1-6.8,6.8-6.8c3.8,0,6.8,3.1,6.8,6.8S107.8,14.7,104,14.7z M104,5.7
						c-1.2,0-2.2,1-2.2,2.2s1,2.2,2.2,2.2s2.2-1,2.2-2.2S105.3,5.7,104,5.7z"/>
				</g>
				<g>
					<path class="st0" d="M104,15.2c-4,0-7.3-3.3-7.3-7.3s3.3-7.3,7.3-7.3c4,0,7.3,3.3,7.3,7.3S108.1,15.2,104,15.2z M104,1.6
						c-3.5,0-6.3,2.8-6.3,6.3s2.8,6.3,6.3,6.3c3.5,0,6.3-2.8,6.3-6.3S107.5,1.6,104,1.6z M104,10.6c-1.5,0-2.7-1.2-2.7-2.7
						s1.2-2.7,2.7-2.7c1.5,0,2.7,1.2,2.7,2.7S105.5,10.6,104,10.6z M104,6.2c-0.9,0-1.7,0.8-1.7,1.7s0.8,1.7,1.7,1.7
						c0.9,0,1.7-0.8,1.7-1.7S105,6.2,104,6.2z"/>
				</g>
			</g>
		</g>
		<g>
			<g>
				<g>
					<path class="st0" d="M64.8,164.8c-1.3,0-2.3-1-2.3-2.3v-15.1c0-1.3,1-2.3,2.3-2.3s2.3,1,2.3,2.3v15.1
						C67.1,163.7,66.1,164.8,64.8,164.8z"/>
				</g>
				<g>
					<path class="st0" d="M64.8,165.3c-1.6,0-2.8-1.3-2.8-2.8v-15.1c0-1.6,1.3-2.8,2.8-2.8s2.8,1.3,2.8,2.8v15.1
						C67.7,164,66.4,165.3,64.8,165.3z M64.8,145.5c-1,0-1.8,0.8-1.8,1.8v15.1c0,1,0.8,1.8,1.8,1.8s1.8-0.8,1.8-1.8v-15.1
						C66.6,146.3,65.8,145.5,64.8,145.5z"/>
				</g>
			</g>
		</g>
		<g>
			<g>
				<g>
					<path class="st0" d="M64.8,174.9c-3.8,0-6.8-3.1-6.8-6.8s3.1-6.8,6.8-6.8c3.8,0,6.8,3.1,6.8,6.8S68.6,174.9,64.8,174.9z
						 M64.8,165.9c-1.2,0-2.2,1-2.2,2.2c0,1.2,1,2.2,2.2,2.2c1.2,0,2.2-1,2.2-2.2C67,166.9,66.1,165.9,64.8,165.9z"/>
				</g>
				<g>
					<path class="st0" d="M64.8,175.4c-4,0-7.3-3.3-7.3-7.3s3.3-7.3,7.3-7.3s7.3,3.3,7.3,7.3S68.9,175.4,64.8,175.4z M64.8,161.8
						c-3.5,0-6.3,2.8-6.3,6.3c0,3.5,2.8,6.3,6.3,6.3c3.5,0,6.3-2.8,6.3-6.3C71.1,164.6,68.3,161.8,64.8,161.8z M64.8,170.8
						c-1.5,0-2.7-1.2-2.7-2.7s1.2-2.7,2.7-2.7c1.5,0,2.7,1.2,2.7,2.7S66.3,170.8,64.8,170.8z M64.8,166.4c-0.9,0-1.7,0.8-1.7,1.7
						c0,0.9,0.8,1.7,1.7,1.7c0.9,0,1.7-0.8,1.7-1.7S65.8,166.4,64.8,166.4z"/>
				</g>
			</g>
		</g>
		<g>
			<g>
				<g>
					<path class="st0" d="M155.5,94.8h-14.1c-1.3,0-2.3-1-2.3-2.3c0-1.3,1-2.3,2.3-2.3h14.1c1.3,0,2.3,1,2.3,2.3
						C157.8,93.8,156.8,94.8,155.5,94.8z"/>
				</g>
				<g>
					<path class="st0" d="M155.5,95.4h-14.1c-1.6,0-2.8-1.3-2.8-2.8s1.3-2.8,2.8-2.8h14.1c1.6,0,2.8,1.3,2.8,2.8
						S157,95.4,155.5,95.4z M141.4,90.8c-1,0-1.8,0.8-1.8,1.8c0,1,0.8,1.8,1.8,1.8h14.1c1,0,1.8-0.8,1.8-1.8c0-1-0.8-1.8-1.8-1.8
						H141.4z"/>
				</g>
			</g>
		</g>
		<g>
			<g>
				<g>
					<path class="st0" d="M161.1,99.3c-3.8,0-6.8-3.1-6.8-6.8c0-3.8,3.1-6.8,6.8-6.8s6.8,3.1,6.8,6.8
						C167.9,96.3,164.9,99.3,161.1,99.3z M161.1,90.3c-1.2,0-2.2,1-2.2,2.2s1,2.2,2.2,2.2c1.2,0,2.2-1,2.2-2.2
						S162.3,90.3,161.1,90.3z"/>
				</g>
				<g>
					<path class="st0" d="M161.1,99.9c-4,0-7.3-3.3-7.3-7.3c0-4,3.3-7.3,7.3-7.3s7.3,3.3,7.3,7.3C168.4,96.6,165.2,99.9,161.1,99.9z
						 M161.1,86.3c-3.5,0-6.3,2.8-6.3,6.3c0,3.5,2.8,6.3,6.3,6.3s6.3-2.8,6.3-6.3C167.4,89.1,164.6,86.3,161.1,86.3z M161.1,95.3
						c-1.5,0-2.7-1.2-2.7-2.7c0-1.5,1.2-2.7,2.7-2.7s2.7,1.2,2.7,2.7C163.8,94,162.6,95.3,161.1,95.3z M161.1,90.9
						c-0.9,0-1.7,0.8-1.7,1.7s0.8,1.7,1.7,1.7s1.7-0.8,1.7-1.7S162.1,90.9,161.1,90.9z"/>
				</g>
			</g>
		</g>
		<g>
			<g>
				<g>
					<path class="st0" d="M150.4,109.5h-10.1c-1.3,0-2.3-1-2.3-2.3s1-2.3,2.3-2.3h10.1c1.3,0,2.3,1,2.3,2.3S151.7,109.5,150.4,109.5
						z"/>
				</g>
				<g>
					<path class="st0" d="M150.4,110h-10.1c-1.6,0-2.8-1.3-2.8-2.8s1.3-2.8,2.8-2.8h10.1c1.6,0,2.8,1.3,2.8,2.8S152,110,150.4,110z
						 M140.3,105.4c-1,0-1.8,0.8-1.8,1.8s0.8,1.8,1.8,1.8h10.1c1,0,1.8-0.8,1.8-1.8s-0.8-1.8-1.8-1.8H140.3z"/>
				</g>
			</g>
		</g>
		<g>
			<g>
				<g>
					<path class="st0" d="M156,114c-3.8,0-6.8-3.1-6.8-6.8s3.1-6.8,6.8-6.8s6.8,3.1,6.8,6.8S159.8,114,156,114z M156,105
						c-1.2,0-2.2,1-2.2,2.2s1,2.2,2.2,2.2c1.2,0,2.2-1,2.2-2.2S157.3,105,156,105z"/>
				</g>
				<g>
					<path class="st0" d="M156,114.5c-4,0-7.3-3.3-7.3-7.3c0-4,3.3-7.3,7.3-7.3s7.3,3.3,7.3,7.3C163.4,111.2,160.1,114.5,156,114.5z
						 M156,100.9c-3.5,0-6.3,2.8-6.3,6.3s2.8,6.3,6.3,6.3s6.3-2.8,6.3-6.3C162.3,103.7,159.5,100.9,156,100.9z M156,109.9
						c-1.5,0-2.7-1.2-2.7-2.7c0-1.5,1.2-2.7,2.7-2.7s2.7,1.2,2.7,2.7S157.5,109.9,156,109.9z M156,105.5c-0.9,0-1.7,0.8-1.7,1.7
						s0.8,1.7,1.7,1.7s1.7-0.8,1.7-1.7C157.7,106.2,157,105.5,156,105.5z"/>
				</g>
			</g>
		</g>
		<g>
			<g>
				<g>
					<path class="st0" d="M37.1,65.8H23.1c-1.3,0-2.3-1-2.3-2.3c0-1.3,1-2.3,2.3-2.3h14.1c1.3,0,2.3,1,2.3,2.3
						C39.4,64.8,38.4,65.8,37.1,65.8z"/>
				</g>
				<g>
					<path class="st0" d="M37.1,66.3H23.1c-1.6,0-2.8-1.3-2.8-2.8c0-1.6,1.3-2.8,2.8-2.8h14.1c1.6,0,2.8,1.3,2.8,2.8
						S38.7,66.3,37.1,66.3z M23.1,61.7c-1,0-1.8,0.8-1.8,1.8c0,1,0.8,1.8,1.8,1.8h14.1c1,0,1.8-0.8,1.8-1.8c0-1-0.8-1.8-1.8-1.8
						H23.1z"/>
				</g>
			</g>
		</g>
		<g>
			<g>
				<g>
					<path class="st0" d="M17.4,70.3c-3.8,0-6.8-3.1-6.8-6.8s3.1-6.8,6.8-6.8s6.8,3.1,6.8,6.8S21.2,70.3,17.4,70.3z M17.4,61.3
						c-1.2,0-2.2,1-2.2,2.2c0,1.2,1,2.2,2.2,2.2s2.2-1,2.2-2.2C19.6,62.3,18.7,61.3,17.4,61.3z"/>
				</g>
				<g>
					<path class="st0" d="M17.4,70.8c-4,0-7.3-3.3-7.3-7.3s3.3-7.3,7.3-7.3s7.3,3.3,7.3,7.3S21.5,70.8,17.4,70.8z M17.4,57.2
						c-3.5,0-6.3,2.8-6.3,6.3s2.8,6.3,6.3,6.3s6.3-2.8,6.3-6.3C23.7,60.1,20.9,57.2,17.4,57.2z M17.4,66.2c-1.5,0-2.7-1.2-2.7-2.7
						c0-1.5,1.2-2.7,2.7-2.7s2.7,1.2,2.7,2.7C20.2,65,18.9,66.2,17.4,66.2z M17.4,61.8c-0.9,0-1.7,0.8-1.7,1.7
						c0,0.9,0.8,1.7,1.7,1.7c0.9,0,1.7-0.8,1.7-1.7C19.1,62.6,18.4,61.8,17.4,61.8z"/>
				</g>
			</g>
		</g>
		<g>
			<g>
				<g>
					<path class="st0" d="M38.6,79.8H28.5c-1.3,0-2.3-1-2.3-2.3s1-2.3,2.3-2.3h10.1c1.3,0,2.3,1,2.3,2.3S39.9,79.8,38.6,79.8z"/>
				</g>
				<g>
					<path class="st0" d="M38.6,80.3H28.5c-1.6,0-2.8-1.3-2.8-2.8s1.3-2.8,2.8-2.8h10.1c1.6,0,2.8,1.3,2.8,2.8S40.2,80.3,38.6,80.3z
						 M28.5,75.7c-1,0-1.8,0.8-1.8,1.8s0.8,1.8,1.8,1.8h10.1c1,0,1.8-0.8,1.8-1.8s-0.8-1.8-1.8-1.8H28.5z"/>
				</g>
			</g>
		</g>
		<g>
			<g>
				<g>
					<path class="st0" d="M22.9,84.3c-3.8,0-6.8-3.1-6.8-6.8c0-3.8,3.1-6.8,6.8-6.8s6.8,3.1,6.8,6.8C29.7,81.2,26.6,84.3,22.9,84.3z
						 M22.9,75.3c-1.2,0-2.2,1-2.2,2.2s1,2.2,2.2,2.2c1.2,0,2.2-1,2.2-2.2S24.1,75.3,22.9,75.3z"/>
				</g>
				<g>
					<path class="st0" d="M22.9,84.8c-4,0-7.3-3.3-7.3-7.3c0-4,3.3-7.3,7.3-7.3s7.3,3.3,7.3,7.3C30.2,81.5,26.9,84.8,22.9,84.8z
						 M22.9,71.2c-3.5,0-6.3,2.8-6.3,6.3c0,3.5,2.8,6.3,6.3,6.3s6.3-2.8,6.3-6.3C29.2,74,26.4,71.2,22.9,71.2z M22.9,80.2
						c-1.5,0-2.7-1.2-2.7-2.7s1.2-2.7,2.7-2.7c1.5,0,2.7,1.2,2.7,2.7S24.4,80.2,22.9,80.2z M22.9,75.8c-0.9,0-1.7,0.8-1.7,1.7
						s0.8,1.7,1.7,1.7s1.7-0.8,1.7-1.7S23.8,75.8,22.9,75.8z"/>
				</g>
			</g>
		</g>
	</g>
</g>
</svg>
