<?xml version="1.0" encoding="utf-8"?>
<!-- Generator: Adobe Illustrator 23.0.0, SVG Export Plug-In . SVG Version: 6.00 Build 0)  -->
<svg version="1.1" id="Layer_1" xmlns="http://www.w3.org/2000/svg" xmlns:xlink="http://www.w3.org/1999/xlink" x="0px" y="0px"
	 viewBox="0 0 176 176" style="enable-background:new 0 0 176 176;" xml:space="preserve">
<style type="text/css">
	.st0{fill:#29023F;}
</style>
<g>
	<g>
		<path class="st0" d="M105.4,174.8H24.1c-8.5,0-15.3-6.9-15.3-15.3v-142C8.7,9,15.6,2.2,24.1,2.2h81.4c0.6,0,1.2,0,1.7,0.1
			c1.9,0.2,3.3,2,3.1,3.9c-0.2,1.9-2,3.3-3.9,3.1c-0.3,0-0.6,0-0.9,0H24.1c-4.6,0-8.3,3.7-8.3,8.3v142c0,4.6,3.7,8.3,8.3,8.3h81.4
			c2,0,3.9-0.7,5.4-2c1.5-1.3,3.7-1.1,4.9,0.4c1.3,1.5,1.1,3.7-0.4,4.9C112.6,173.5,109.1,174.8,105.4,174.8z"/>
	</g>
	<g>
		<path class="st0" d="M117.3,113.4c-1.9,0-3.5-1.6-3.5-3.5V57.8c0-1.9,1.6-3.5,3.5-3.5s3.5,1.6,3.5,3.5v52.1
			C120.8,111.8,119.2,113.4,117.3,113.4z"/>
	</g>
	<g>
		<path class="st0" d="M105.1,174.8H24.4c-8.7,0-15.7-7-15.7-15.7V142c0-1.9,1.6-3.5,3.5-3.5h91.4c1.9,0,3.5,1.6,3.5,3.5
			s-1.6,3.5-3.5,3.5H15.7v13.6c0,4.8,3.9,8.7,8.7,8.7h80.6c2,0,4-0.7,5.6-2c1.5-1.2,3.7-1,4.9,0.4c1.2,1.5,1,3.7-0.4,4.9
			C112.3,173.5,108.7,174.8,105.1,174.8z"/>
	</g>
	<g>
		<path class="st0" d="M73.8,160.7H53c-1.9,0-3.5-1.6-3.5-3.5s1.6-3.5,3.5-3.5h20.8c1.9,0,3.5,1.6,3.5,3.5S75.8,160.7,73.8,160.7z"
			/>
	</g>
	<g>
		<path class="st0" d="M108.7,62.7c-16.7,0-30.3-13.6-30.3-30.3S92,2.2,108.7,2.2s30.3,13.6,30.3,30.3S125.4,62.7,108.7,62.7z
			 M108.7,9.2c-12.8,0-23.3,10.4-23.3,23.3s10.4,23.3,23.3,23.3s23.3-10.4,23.3-23.3S121.5,9.2,108.7,9.2z"/>
	</g>
	<g>
		<path class="st0" d="M106.2,43.5c-0.1,0-0.2,0-0.2,0c-1-0.1-1.8-0.5-2.5-1.3l-5-6.1c-1.2-1.5-1-3.7,0.4-4.9c1.5-1.2,3.7-1,4.9,0.4
			l2.7,3.2l10.4-9.6c1.4-1.3,3.6-1.2,4.9,0.2c1.3,1.4,1.2,3.6-0.2,4.9l-13.1,12.1C107.9,43.2,107,43.5,106.2,43.5z"/>
	</g>
	<g>
		<g>
			<g>
				<path class="st0" d="M139.4,176c-0.6,0-1.1,0-1.7-0.1c-0.8,0-1.5,0-2.2-0.1l-43.2-7.3c-2.6-0.4-4.8-1.9-6.4-4
					c-1.5-2.1-2.1-4.7-1.7-7.3c0.4-2.6,1.9-4.8,4-6.4c2.1-1.5,4.7-2.1,7.3-1.7l11,1.8l-27.9-34c-1.7-2-2.4-4.6-2.2-7.2
					s1.5-5,3.5-6.6c2-1.7,4.6-2.4,7.2-2.2s5,1.5,6.6,3.5l6.6,8.1c0.5-0.8,1.2-1.5,1.9-2.1c2-1.7,4.6-2.4,7.2-2.2
					c1.3,0.1,2.5,0.5,3.7,1.1c0.6-1,1.4-2,2.3-2.8c2-1.7,4.6-2.4,7.2-2.2c0.7,0.1,1.5,0.2,2.2,0.5c0.6-1.3,1.5-2.5,2.7-3.5
					c4.2-3.4,10.4-2.8,13.8,1.4l26,31.7c3.4,4.2,5,9.4,4.5,14.8s-3.1,10.2-7.3,13.6l-8.6,7.1C151.2,173.9,145.4,176,139.4,176z
					 M137.7,168.9c0.1,0,0.2,0,0.3,0c4.9,0.4,9.7-1.2,13.5-4.3l8.6-7.1c5.6-4.6,6.4-12.9,1.8-18.5l-26-31.7c-1-1.2-2.8-1.4-3.9-0.4
					l0,0c-1.2,1-1.4,2.8-0.4,3.9c1.2,1.5,1,3.7-0.5,4.9c-1.5,1.2-3.7,1-4.9-0.5l-2.3-2.8c-0.5-0.6-1.1-0.9-1.9-1
					c-0.8-0.1-1.5,0.1-2.1,0.6c-1.2,1-1.4,2.7-0.4,3.9l0,0c1.2,1.5,1,3.7-0.5,4.9c-1.5,1.2-3.7,1-4.9-0.5l-3.4-4.2
					c-0.5-0.6-1.1-0.9-1.9-1c-0.7-0.1-1.5,0.1-2.1,0.6c-0.6,0.5-0.9,1.1-1,1.9c-0.1,0.7,0.1,1.5,0.6,2.1l0,0c1.2,1.5,1,3.7-0.5,4.9
					c-1.5,1.2-3.7,1-4.9-0.5v0L88.4,109c-0.5-0.6-1.1-0.9-1.9-1c-0.7-0.1-1.5,0.1-2.1,0.6c-0.6,0.5-0.9,1.1-1,1.9s0.1,1.5,0.6,2.1
					l33.8,41.2c0.9,1.1,1.1,2.7,0.3,4c-0.7,1.3-2.2,1.9-3.6,1.7l-20.2-3.4c-1.5-0.3-3,0.8-3.2,2.3c-0.1,0.7,0,1.5,0.5,2.1
					c0.4,0.6,1.1,1,1.8,1.1l43.2,7.3c0.2,0,0.5,0,0.7,0C137.5,168.9,137.6,168.9,137.7,168.9z M129.8,104.3L129.8,104.3L129.8,104.3
					z"/>
			</g>
			<g>
				<path class="st0" d="M120.3,145.8c-1,0-2-0.4-2.7-1.3l-17-20.7c-1.2-1.5-1-3.7,0.5-4.9c1.5-1.2,3.7-1,4.9,0.5l17,20.7
					c1.2,1.5,1,3.7-0.5,4.9C121.9,145.6,121.1,145.8,120.3,145.8z"/>
			</g>
			<g>
				<path class="st0" d="M132.9,141.3c-1,0-2-0.4-2.7-1.3l-17-20.7c-1.2-1.5-1-3.7,0.5-4.9s3.7-1,4.9,0.5l17,20.7
					c1.2,1.5,1,3.7-0.5,4.9C134.5,141.1,133.7,141.3,132.9,141.3z"/>
			</g>
			<g>
				<path class="st0" d="M144.9,136.1c-1,0-2-0.4-2.7-1.3l-17-20.7c-1.2-1.5-1-3.7,0.5-4.9c1.5-1.2,3.7-1,4.9,0.5l17,20.7
					c1.2,1.5,1,3.7-0.5,4.9C146.5,135.8,145.7,136.1,144.9,136.1z"/>
			</g>
		</g>
		<g>
			<path class="st0" d="M68.3,95.3c-1,0-2-0.4-2.7-1.3l-7.4-9.1c-1.2-1.5-1-3.7,0.5-4.9c1.5-1.2,3.7-1,4.9,0.5l7.4,9.1
				c1.2,1.5,1,3.7-0.5,4.9C69.9,95,69.1,95.3,68.3,95.3z"/>
		</g>
		<g>
			<path class="st0" d="M93.9,95.2c-1,0-2-0.4-2.7-1.3c-1.2-1.5-1-3.7,0.5-4.9l9.1-7.4c1.5-1.2,3.7-1,4.9,0.5c1.2,1.5,1,3.7-0.5,4.9
				l-9.1,7.4C95.5,95,94.7,95.2,93.9,95.2z"/>
		</g>
		<g>
			<path class="st0" d="M54.2,127.8c-1,0-2-0.4-2.7-1.3c-1.2-1.5-1-3.7,0.5-4.9l9.1-7.4c1.5-1.2,3.7-1,4.9,0.5
				c1.2,1.5,1,3.7-0.5,4.9l-9.1,7.4C55.8,127.5,55,127.8,54.2,127.8z"/>
		</g>
		<g>
			<path class="st0" d="M62.5,106.2c-0.1,0-0.2,0-0.3,0L50.5,105c-1.9-0.2-3.3-1.9-3.1-3.8c0.2-1.9,1.9-3.3,3.8-3.1l11.7,1.2
				c1.9,0.2,3.3,1.9,3.1,3.8C65.8,104.9,64.2,106.2,62.5,106.2z"/>
		</g>
		<g>
			<path class="st0" d="M80.2,91.7c-0.1,0-0.2,0-0.3,0c-1.9-0.2-3.3-1.9-3.1-3.8l1.2-11.7c0.2-1.9,1.9-3.3,3.8-3.1
				c1.9,0.2,3.3,1.9,3.1,3.8l-1.2,11.7C83.5,90.3,82,91.7,80.2,91.7z"/>
		</g>
	</g>
</g>
</svg>
