<?xml version="1.0" encoding="utf-8"?>
<!-- Generator: Adobe Illustrator 23.0.0, SVG Export Plug-In . SVG Version: 6.00 Build 0)  -->
<svg version="1.1" id="Layer_1" xmlns="http://www.w3.org/2000/svg" xmlns:xlink="http://www.w3.org/1999/xlink" x="0px" y="0px"
	 viewBox="0 0 176 176" style="enable-background:new 0 0 176 176;" xml:space="preserve">
<style type="text/css">
	.st0{fill:#29023F;}
</style>
<g>
	<path class="st0" d="M88,174.4c-1.4,0-2.8-0.6-3.9-1.6l-81-81c-2.1-2.1-2.1-5.6,0-7.7l81-81c1-1,2.4-1.6,3.9-1.6
		c1.4,0,2.8,0.6,3.9,1.6l81,81c1,1,1.6,2.4,1.6,3.9s-0.6,2.8-1.6,3.9l-81,81C90.8,173.8,89.4,174.4,88,174.4z M88.4,168.5
		L88.4,168.5L88.4,168.5z M7.8,88L88,168.1L168.1,88L88,7.9L7.8,88z"/>
</g>
<g>
	<path class="st0" d="M88,159.4c-0.6,0-1.3-0.2-1.8-0.7L17.4,89.8c-0.5-0.5-0.7-1.1-0.7-1.8s0.3-1.3,0.7-1.8l68.9-68.9
		c0.9-0.9,2.6-0.9,3.5,0l68.9,68.9c1,1,1,2.6,0,3.5L117,131.3c-1,1-2.6,1-3.5,0s-1-2.6,0-3.5L153.3,88L88,22.7L22.7,88L88,153.3
		l8.1-8.1c1-1,2.6-1,3.5,0s1,2.6,0,3.5l-9.8,9.8C89.3,159.1,88.6,159.4,88,159.4z"/>
</g>
<g>
	<path class="st0" d="M96.1,125H79.9c-1.7,0-3-1.3-3-3V72.8H70c-1.2,0-2.3-0.7-2.7-1.8s-0.3-2.4,0.5-3.2l18-19.8
		c1.1-1.3,3.3-1.3,4.4,0l18,19.8c0.8,0.9,1,2.1,0.5,3.2s-1.6,1.8-2.7,1.8h-6.9V122C99.1,123.7,97.8,125,96.1,125z M82.9,119h10.2
		V69.8c0-1.7,1.3-3,3-3h3.1L88,54.5L76.8,66.8h3.1c1.7,0,3,1.3,3,3V119z"/>
</g>
<g>
	<circle class="st0" cx="106.5" cy="137.5" r="2.5"/>
</g>
</svg>
