<?xml version="1.0" encoding="utf-8"?>
<!-- Generator: Adobe Illustrator 23.0.0, SVG Export Plug-In . SVG Version: 6.00 Build 0)  -->
<svg version="1.1" id="Layer_1" xmlns="http://www.w3.org/2000/svg" xmlns:xlink="http://www.w3.org/1999/xlink" x="0px" y="0px"
	 viewBox="0 0 176 176" style="enable-background:new 0 0 176 176;" xml:space="preserve">
<style type="text/css">
	.st0{fill:#29023F;}
</style>
<g>
	<g>
		<g>
			<g>
				<path class="st0" d="M75.1,116.3c3-2.7,4.8-6.6,4.8-10.6c0-7.8-6.3-14.2-14.2-14.2H41c-2,0-3.5,1.6-3.5,3.5v42.5
					c0,2,1.6,3.5,3.5,3.5h24.8c4.1,0,7.9-1.7,10.6-4.8C81.5,130.5,81,121.5,75.1,116.3z M65.8,134H44.5v-14.2h21.3
					c3.9,0,7.1,3.2,7.1,7.1C72.8,130.9,69.7,134,65.8,134z M65.8,112.8H44.5V98.6h21.3c3.9,0,7.1,3.2,7.1,7.1
					C72.8,109.6,69.7,112.8,65.8,112.8z"/>
			</g>
		</g>
	</g>
	<g>
		<g>
			<g>
				<path class="st0" d="M90.5,112.8L90.5,112.8c2,0,3.5,1.6,3.5,3.5v0c0,2-1.6,3.5-3.5,3.5h0c-2,0-3.5-1.6-3.5-3.5v0
					C87,114.4,88.6,112.8,90.5,112.8z"/>
			</g>
		</g>
	</g>
	<g>
		<g>
			<g>
				<path class="st0" d="M26.8,112.8L26.8,112.8c2,0,3.5,1.6,3.5,3.5v0c0,2-1.6,3.5-3.5,3.5h0c-2,0-3.5-1.6-3.5-3.5v0
					C23.3,114.4,24.8,112.8,26.8,112.8z"/>
			</g>
		</g>
	</g>
	<g>
		<path class="st0" d="M155.8,169.9H99.6c-1.7,0-3-1.3-3-3s1.3-3,3-3h56.1c6.5,0,11.8-5.3,11.8-11.8V18.6c0-6.4-5.2-11.6-11.6-11.6
			H22c-6.4,0-11.6,5.2-11.6,11.6v52.3c0,1.7-1.3,3-3,3s-3-1.3-3-3V18.6C4.4,8.9,12.3,1,22,1H156c9.7,0,17.6,7.9,17.6,17.6v133.6
			C173.5,161.9,165.6,169.9,155.8,169.9z"/>
	</g>
	<g>
		<path class="st0" d="M160,36H19c-1.7,0-3-1.3-3-3s1.3-3,3-3h141c1.7,0,3,1.3,3,3S161.7,36,160,36z"/>
	</g>
	<g>
		<path class="st0" d="M22,25c-3.3,0-6-2.7-6-6s2.7-6,6-6s6,2.7,6,6S25.3,25,22,25z M22,17c-1.1,0-2,0.9-2,2s0.9,2,2,2s2-0.9,2-2
			S23.1,17,22,17z"/>
	</g>
	<g>
		<path class="st0" d="M38.5,25c-3.3,0-6-2.7-6-6s2.7-6,6-6s6,2.7,6,6S41.8,25,38.5,25z M38.5,17c-1.1,0-2,0.9-2,2s0.9,2,2,2
			s2-0.9,2-2S39.6,17,38.5,17z"/>
	</g>
	<g>
		<path class="st0" d="M55,25c-3.3,0-6-2.7-6-6s2.7-6,6-6s6,2.7,6,6S58.3,25,55,25z M55,17c-1.1,0-2,0.9-2,2s0.9,2,2,2s2-0.9,2-2
			S56.1,17,55,17z"/>
	</g>
	<g>
		<path class="st0" d="M156,25c-3.3,0-6-2.7-6-6s2.7-6,6-6s6,2.7,6,6S159.3,25,156,25z M156,17c-1.1,0-2,0.9-2,2s0.9,2,2,2
			s2-0.9,2-2S157.1,17,156,17z"/>
	</g>
	<g>
		<path class="st0" d="M156,91c-3.3,0-6-2.7-6-6s2.7-6,6-6s6,2.7,6,6S159.3,91,156,91z M156,83c-1.1,0-2,0.9-2,2s0.9,2,2,2
			s2-0.9,2-2S157.1,83,156,83z"/>
	</g>
	<g>
		<path class="st0" d="M140,91c-3.3,0-6-2.7-6-6s2.7-6,6-6s6,2.7,6,6S143.3,91,140,91z M140,83c-1.1,0-2,0.9-2,2s0.9,2,2,2
			s2-0.9,2-2S141.1,83,140,83z"/>
	</g>
	<g>
		<path class="st0" d="M150.5,70H133c-1.7,0-3-1.3-3-3s1.3-3,3-3h17.5c3.6,0,6.5-2.9,6.5-6.5s-2.9-6.5-6.5-6.5H109c-1.7,0-3-1.3-3-3
			s1.3-3,3-3h41.5c6.9,0,12.5,5.6,12.5,12.5S157.4,70,150.5,70z"/>
	</g>
	<g>
		<path class="st0" d="M155,105h-24c-1.7,0-3-1.3-3-3s1.3-3,3-3h24c1.7,0,3,1.3,3,3S156.7,105,155,105z"/>
	</g>
	<g>
		<path class="st0" d="M155,118h-24c-1.7,0-3-1.3-3-3s1.3-3,3-3h24c1.7,0,3,1.3,3,3S156.7,118,155,118z"/>
	</g>
	<g>
		<path class="st0" d="M155,131h-24c-1.7,0-3-1.3-3-3s1.3-3,3-3h24c1.7,0,3,1.3,3,3S156.7,131,155,131z"/>
	</g>
	<g>
		<path class="st0" d="M155,144h-24c-1.7,0-3-1.3-3-3s1.3-3,3-3h24c1.7,0,3,1.3,3,3S156.7,144,155,144z"/>
	</g>
	<g>
		<path class="st0" d="M57.5,174C26.3,174,1,148.7,1,117.5S26.3,61,57.5,61S114,86.3,114,117.5S88.7,174,57.5,174z M57.5,67
			C29.7,67,7,89.7,7,117.5S29.7,168,57.5,168s50.5-22.7,50.5-50.5S85.3,67,57.5,67z"/>
	</g>
	<g>
		<path class="st0" d="M50,98c-1.7,0-3-1.3-3-3V85c0-1.7,1.3-3,3-3s3,1.3,3,3v10C53,96.7,51.7,98,50,98z"/>
	</g>
	<g>
		<path class="st0" d="M64,98c-1.7,0-3-1.3-3-3V85c0-1.7,1.3-3,3-3s3,1.3,3,3v10C67,96.7,65.7,98,64,98z"/>
	</g>
	<g>
		<path class="st0" d="M50,151c-1.7,0-3-1.3-3-3v-10c0-1.7,1.3-3,3-3s3,1.3,3,3v10C53,149.7,51.7,151,50,151z"/>
	</g>
	<g>
		<path class="st0" d="M64,151c-1.7,0-3-1.3-3-3v-10c0-1.7,1.3-3,3-3s3,1.3,3,3v10C67,149.7,65.7,151,64,151z"/>
	</g>
</g>
</svg>
