<?xml version="1.0" encoding="utf-8"?>
<!-- Generator: Adobe Illustrator 23.0.0, SVG Export Plug-In . SVG Version: 6.00 Build 0)  -->
<svg version="1.1" id="Layer_1" xmlns="http://www.w3.org/2000/svg" xmlns:xlink="http://www.w3.org/1999/xlink" x="0px" y="0px"
	 viewBox="0 0 176 176" style="enable-background:new 0 0 176 176;" xml:space="preserve">
<style type="text/css">
	.st0{fill:#29023F;}
</style>
<g>
	<g>
		<path class="st0" d="M114.2,103c-0.6-0.6-1.5-1-2.4-1c-0.9,0-1.8,0.4-2.4,1c-0.6,0.6-1,1.5-1,2.4c0,0.9,0.4,1.8,1,2.4
			c0.6,0.6,1.5,1,2.4,1c0.9,0,1.8-0.4,2.4-1c0.6-0.6,1-1.5,1-2.4C115.1,104.5,114.8,103.7,114.2,103z"/>
	</g>
</g>
<g>
	<g>
		<path class="st0" d="M66.6,121.1l6.8-0.1c0.6-5.1,4-9.3,8.6-11.2c0.9-1.3,2.9-4.4,5.2-7.8C76.3,102.2,67.5,110.5,66.6,121.1z
			 M157.2,50.4h-3.6L106.2,3c-1.3-1.3-3.4-1.3-4.8,0L89.3,15.1l-48.5-13c-1.8-0.5-3.6,0.6-4.1,2.4L24.3,50.4h-8.2
			C8.3,50.4,2,56.7,2,64.5c0,0.2,0,0.4,0,0.6c0,0.1,0,0.2,0,0.3v91.9c0,9.3,7.5,16.8,16.8,16.8h138.4c9.3,0,16.8-7.5,16.8-16.8v-90
			C174,57.9,166.5,50.4,157.2,50.4z M103.8,10.1L147.8,54L130,71.8h-6.2l8-8c1.3-1.3,1.3-3.4,0-4.8c-2.7-2.7-2.7-7.1,0-9.9
			c1.3-1.3,1.3-3.4,0-4.8l-18.4-18.4c-1.3-1.3-3.4-1.3-4.8,0c-2.7,2.7-7.1,2.7-9.9,0c-1.3-1.3-3.4-1.3-4.8,0L48.3,71.8h-6.1
			L103.8,10.1z M82.8,59.1c-7.7,0-14.1,5.4-15.7,12.6h-9.3l39-39c4.3,2.6,9.7,2.6,14,0L125.1,47c-2.6,4.3-2.6,9.7,0,14l-10.7,10.7
			H98.5C96.9,64.5,90.5,59.1,82.8,59.1z M91.5,71.8H74.1c1.4-3.5,4.7-5.9,8.7-5.9S90.1,68.3,91.5,71.8z M38.6,65.8l8.9-33.2
			c2.4,0,4.9-0.6,7-1.8c2.2-1.3,3.9-3,5.1-5.2l15.1,4.1L52.8,51.6L38.6,65.8z M42.3,9.5l41.6,11.1l-3.5,3.5l-21.7-5.8
			c-0.9-0.2-1.8-0.1-2.5,0.3c-0.8,0.4-1.3,1.2-1.6,2C54,22.5,52.8,24,51.2,25c-1.6,0.9-3.5,1.2-5.3,0.7c-1.8-0.5-3.6,0.6-4.1,2.4
			L30,71.9h-4.5L42.3,9.5z M16.1,57.1h6.4l-4,14.8h-2.5c-4.1,0-7.4-3.3-7.4-7.4C8.7,60.4,12,57.1,16.1,57.1z M167.3,157.2
			c0,5.6-4.5,10.1-10.1,10.1h-4.7c2.1-2.8,3.4-6.3,3.4-10.1v-13.5h2c3.5,0,6.8-1.1,9.4-3V157.2z M167.3,127.6c0,5.2-4.2,9.4-9.4,9.4
			H87.3c-2.5,0-4.9-0.7-6.9-1.8c-2.2-1.2-4-3.1-5.3-5.3l-3.5,6.7c1.3,1.5,2.8,2.8,4.5,3.9c3.2,2.1,7.1,3.3,11.2,3.3h61.8v13.5
			c0,5.5-4.4,10-9.9,10.1H24.8v-37.8c0-1.9-1.5-3.4-3.4-3.4c-1.9,0-3.4,1.5-3.4,3.4v37.8c-5.3-0.4-9.4-4.7-9.4-10.1V76.5
			c2.2,1.3,4.7,2.1,7.4,2.1h123c5.6,0,10.1,4.5,10.1,10.1V102h-24.3c-1.9,0-3.4,1.5-3.4,3.4c0,1.9,1.5,3.4,3.4,3.4h34.5
			c2.9,0,5.7-0.9,8-2.4V127.6z M167.3,94.1c0,4.4-3.6,8-8,8h-3.5V88.7c0-9.2-7.3-16.6-16.5-16.8l14.8-14.8h3
			c5.6,0,10.1,4.5,10.1,10.1V94.1z M66.6,121.1l6.8-0.1c0.6-5.1,4-9.3,8.6-11.2c0.9-1.3,2.9-4.4,5.2-7.8
			C76.3,102.2,67.5,110.5,66.6,121.1z M66.6,121.1l6.8-0.1c0.6-5.1,4-9.3,8.6-11.2c0.9-1.3,2.9-4.4,5.2-7.8
			C76.3,102.2,67.5,110.5,66.6,121.1z"/>
	</g>
</g>
<g>
	<g>
		<path class="st0" d="M23.9,114c-0.6-0.6-1.5-1-2.4-1c-0.9,0-1.8,0.4-2.4,1s-1,1.5-1,2.4c0,0.9,0.4,1.8,1,2.4c0.6,0.6,1.5,1,2.4,1
			c0.9,0,1.8-0.4,2.4-1c0.6-0.6,1-1.5,1-2.4C24.8,115.5,24.5,114.6,23.9,114z"/>
	</g>
</g>
<g>
	<g>
		<g>
			<path class="st0" d="M97.9,112.1l-1.9,2.4c0,0-7.6,9.3-15.6,19.1c-1.2,1.5-2.4,3-3.7,4.5c-7.6,9.3-14.6,17.9-15.1,18.4l11.2-21.7
				l2.9-5.7l4-7.6l-5.5,0.1l-5.8,0.1l-5.1,0.1l11.9-22.3l3.1-6.2c4.9,0,9.4-0.1,15.8,0c-0.1,0-4.5,6.6-8.2,12.1
				c-1.9,2.9-3.7,5.5-4.4,6.7c0,0.1-0.1,0.1-0.1,0.2C81.6,112.1,92.8,112.3,97.9,112.1z"/>
			<path class="st0" d="M61.6,157.6c-0.2,0-0.4-0.1-0.6-0.2c-0.4-0.3-0.6-0.8-0.3-1.3l17.4-33.6l-14.7,0.2c-0.3,0-0.7-0.2-0.9-0.5
				c-0.2-0.3-0.2-0.7,0-1L74.4,99l3.1-6.2c0.2-0.3,0.5-0.6,0.9-0.6c1.4,0,2.7,0,4.1,0c3.5,0,7.1,0,11.7,0c0.5,0,1,0.5,1,1
				c0,0.3-0.1,0.5-0.3,0.7c-0.6,0.8-5.2,7.7-8,11.9c-1.3,2-2.6,3.9-3.5,5.2c0.8,0,1.8,0,3.2,0c3.6,0,8.4,0,11.3-0.1
				c0.4,0,0.7,0.2,0.9,0.6c0.2,0.3,0.1,0.8-0.1,1.1l-1.9,2.4l0,0c-0.4,0.6-1.6,2.1-4.7,5.9l-10.9,13.3c-1.2,1.5-2.4,3-3.7,4.5
				c-7.6,9.3-14.6,17.9-15.1,18.4C62.2,157.5,61.9,157.6,61.6,157.6z M79.7,120.6c0.3,0,0.7,0.2,0.9,0.5c0.2,0.3,0.2,0.7,0,1
				l-13.7,26.5c2.6-3.2,5.7-7,9-11c1.2-1.5,2.5-3,3.7-4.5l10.9-13.3c2.8-3.4,4.6-5.6,4.7-5.8c0,0,0,0,0,0l0.6-0.7
				c-2.8,0-6.3,0-9.2,0c-2.3,0-4.5,0-4.9,0c-0.3,0-0.5,0-0.8-0.2c-0.4-0.3-0.6-0.9-0.3-1.4l0.1-0.1c0.8-1.2,2.5-3.8,4.5-6.7
				c3.8-5.8,5.9-8.9,7.1-10.6c-3.7,0-6.8,0-9.8,0c-1.2,0-2.3,0-3.5,0l-2.8,5.6L65,120.7L79.7,120.6
				C79.7,120.6,79.7,120.6,79.7,120.6z"/>
		</g>
	</g>
</g>
</svg>
